{"glyphs":{"0":{"ha":986,"x_min":74,"x_max":913,"o":"m 494 -21 q 278 44 374 -21 q 128 225 182 110 q 74 486 74 340 q 128 747 74 631 q 278 928 182 863 q 494 993 374 993 q 710 928 615 993 q 859 748 806 864 q 913 486 913 632 q 859 226 913 342 q 710 44 806 110 q 494 -21 614 -21 m 494 79 q 649 131 581 79 q 757 276 718 183 q 796 486 796 369 q 757 695 796 603 q 649 840 718 788 q 494 892 581 892 q 338 840 407 892 q 231 695 269 788 q 192 486 192 603 q 231 276 192 369 q 338 131 269 183 q 494 79 407 79 z "},"1":{"ha":574,"x_min":24,"x_max":581,"o":"m 24 103 l 263 103 l 263 832 l 50 688 l 50 808 l 293 972 l 372 972 l 372 103 l 581 103 l 581 0 l 24 0 l 24 103 z "},"2":{"ha":853,"x_min":44,"x_max":813,"o":"m 60 0 l 60 99 l 450 350 q 551 431 514 396 q 485 402 522 411 q 386 393 447 393 q 207 433 285 393 q 87 541 129 474 q 44 688 44 608 q 92 842 44 772 q 228 952 140 911 q 429 993 315 993 q 626 953 539 993 q 763 844 714 914 q 813 685 813 774 q 744 491 813 583 q 561 325 675 399 l 217 100 l 692 100 q 694 104 694 100 l 694 249 l 807 249 l 807 -68 l 694 -68 l 694 0 l 60 0 m 425 481 q 565 507 503 481 q 663 581 628 533 q 697 689 697 629 q 663 796 697 749 q 566 870 628 843 q 425 897 504 897 q 285 870 346 897 q 189 796 224 843 q 154 689 154 749 q 189 582 154 629 q 285 508 224 535 q 425 481 346 481 z "},"3":{"ha":833,"x_min":42,"x_max":767,"o":"m 140 371 l 140 314 q 175 190 140 244 q 270 106 210 136 q 404 75 331 75 q 533 103 476 75 q 620 181 589 132 q 651 292 651 231 q 622 397 651 350 q 540 471 592 444 q 425 497 489 497 q 351 488 388 497 q 293 461 314 478 l 281 451 l 226 525 l 617 871 l 182 871 l 179 869 l 179 711 l 79 711 l 79 1040 l 179 1040 l 179 972 l 740 972 l 740 865 l 403 565 q 472 574 433 574 q 619 535 551 574 q 727 431 688 497 q 767 286 767 365 q 719 127 767 197 q 591 18 672 57 q 410 -21 510 -21 q 249 15 319 -21 q 142 108 178 50 l 142 0 l 42 0 l 42 371 l 140 371 z "},"4":{"ha":906,"x_min":14,"x_max":874,"o":"m 536 100 l 536 278 l 14 278 l 14 376 l 521 972 l 651 972 l 651 376 l 774 376 q 776 379 776 376 l 776 499 l 874 499 l 874 197 l 776 197 l 776 278 l 651 278 l 651 100 l 803 100 l 803 0 l 368 0 l 368 100 l 536 100 m 546 376 l 546 860 l 129 376 l 546 376 z "},"5":{"ha":836,"x_min":65,"x_max":781,"o":"m 161 292 l 161 274 q 197 176 161 221 q 290 105 232 131 q 411 79 347 79 q 540 109 482 79 q 631 192 597 139 q 664 315 664 246 q 631 433 664 382 q 542 513 599 485 q 417 542 486 542 q 274 512 336 542 q 188 429 213 482 l 83 429 l 157 972 l 619 972 q 622 975 622 972 l 622 1036 l 728 1036 l 728 764 l 622 764 l 622 874 l 247 874 l 201 553 q 303 612 243 590 q 433 633 363 633 q 617 591 538 633 q 738 476 696 549 q 781 314 781 403 q 736 148 781 224 q 611 27 692 72 q 426 -18 531 -18 q 271 15 339 -18 q 161 106 203 47 l 161 0 l 65 0 l 65 292 l 161 292 z "},"6":{"ha":882,"x_min":74,"x_max":849,"o":"m 482 -21 q 269 41 363 -21 q 125 217 176 103 q 74 481 74 331 q 126 750 74 633 q 269 930 178 867 q 476 993 361 993 q 615 963 550 993 q 718 882 681 932 l 718 981 l 813 981 l 813 692 l 703 692 l 703 710 q 672 800 703 758 q 590 865 642 842 q 475 889 538 889 q 320 841 386 889 q 218 707 254 793 q 182 510 182 621 q 185 465 182 481 q 301 595 222 547 q 481 643 381 643 q 674 599 590 643 q 803 479 758 556 q 849 310 849 403 q 801 146 849 222 q 671 24 754 69 q 482 -21 588 -21 m 485 74 q 613 105 554 74 q 704 190 671 136 q 738 307 738 243 q 702 435 738 378 q 607 524 667 492 q 478 556 547 556 q 344 524 404 556 q 251 437 285 492 q 217 317 217 382 q 251 206 217 263 q 346 111 285 149 q 485 74 407 74 z "},"7":{"ha":799,"x_min":50,"x_max":785,"o":"m 307 100 q 310 118 307 107 q 446 532 347 331 q 668 871 544 733 l 158 871 q 156 868 156 871 l 156 692 l 50 692 l 50 1054 l 156 1054 l 156 972 l 785 972 l 785 865 q 558 533 651 721 q 422 117 465 344 q 419 100 419 106 l 643 100 l 643 0 l 143 0 l 143 100 l 307 100 z "},"8":{"ha":931,"x_min":69,"x_max":863,"o":"m 465 -21 q 260 15 350 -21 q 119 113 169 50 q 69 258 69 176 q 129 406 69 343 q 292 497 189 468 q 144 584 199 525 q 89 721 89 643 q 137 860 89 799 q 270 955 185 921 q 465 989 356 989 q 660 955 575 989 q 794 860 746 921 q 842 721 842 799 q 787 584 842 643 q 639 497 732 525 q 802 406 742 468 q 863 258 863 343 q 813 113 863 176 q 672 15 763 50 q 465 -21 582 -21 m 465 546 q 603 568 542 546 q 698 631 664 590 q 732 721 732 671 q 698 810 732 771 q 603 872 664 850 q 465 894 542 894 q 328 872 389 894 q 233 810 267 850 q 199 721 199 771 q 233 631 199 671 q 328 568 267 590 q 465 546 389 546 m 465 74 q 611 97 547 74 q 711 163 675 121 q 747 260 747 206 q 711 355 747 313 q 611 421 675 397 q 465 444 547 444 q 321 421 385 444 q 221 355 257 397 q 185 260 185 313 q 221 163 185 206 q 321 97 257 121 q 465 74 385 74 z "},"9":{"ha":882,"x_min":35,"x_max":808,"o":"m 401 993 q 613 931 521 993 q 757 756 706 869 q 808 490 808 642 q 757 222 808 338 q 614 42 706 106 q 406 -21 522 -21 q 267 10 332 -21 q 164 90 203 40 l 164 -8 l 71 -8 l 71 281 l 179 281 l 179 263 q 210 172 179 214 q 292 107 240 131 q 407 83 344 83 q 563 131 496 83 q 665 265 629 179 q 701 463 701 351 q 699 507 701 476 q 582 377 661 425 q 401 329 503 329 q 208 373 292 329 q 80 493 125 417 q 35 663 35 569 q 81 827 35 751 q 212 948 128 903 q 401 993 296 993 m 397 899 q 270 867 328 899 q 178 783 213 836 q 144 665 144 729 q 180 538 144 594 q 275 449 215 481 q 404 417 335 417 q 539 449 479 417 q 633 535 599 481 q 667 656 667 590 q 633 767 667 710 q 537 861 599 824 q 397 899 475 899 z "},"\r":{"ha":347,"x_min":0,"x_max":0,"o":""}," ":{"ha":347,"x_min":0,"x_max":0,"o":""},"A":{"ha":939,"x_min":-86,"x_max":1025,"o":"m -86 110 l 39 110 l 361 858 l 360 861 l 204 861 l 204 972 l 539 972 l 896 110 l 1025 110 l 1025 0 l 596 0 l 596 110 l 771 110 l 686 314 l 240 314 l 154 110 l 336 110 l 336 0 l -86 0 l -86 110 m 644 419 l 471 836 l 463 836 l 285 419 l 644 419 z "},"Á":{"ha":939,"x_min":-86,"x_max":1025,"o":"m -86 110 l 39 110 l 361 858 l 360 861 l 204 861 l 204 972 l 539 972 l 896 110 l 1025 110 l 1025 0 l 596 0 l 596 110 l 771 110 l 686 314 l 240 314 l 154 110 l 336 110 l 336 0 l -86 0 l -86 110 m 644 419 l 471 836 l 463 836 l 285 419 l 644 419 m 492 1313 l 597 1313 l 500 1090 l 400 1090 l 492 1313 z "},"Ă":{"ha":939,"x_min":-86,"x_max":1025,"o":"m -86 110 l 39 110 l 361 858 l 360 861 l 204 861 l 204 972 l 539 972 l 896 110 l 1025 110 l 1025 0 l 596 0 l 596 110 l 771 110 l 686 314 l 240 314 l 154 110 l 336 110 l 336 0 l -86 0 l -86 110 m 644 419 l 471 836 l 463 836 l 285 419 l 644 419 z "},"Â":{"ha":939,"x_min":-86,"x_max":1025,"o":"m -86 110 l 39 110 l 361 858 l 360 861 l 204 861 l 204 972 l 539 972 l 896 110 l 1025 110 l 1025 0 l 596 0 l 596 110 l 771 110 l 686 314 l 240 314 l 154 110 l 336 110 l 336 0 l -86 0 l -86 110 m 644 419 l 471 836 l 463 836 l 285 419 l 644 419 m 581 1090 l 438 1244 l 293 1090 l 169 1090 l 374 1313 l 501 1313 l 706 1090 l 581 1090 z "},"Ä":{"ha":939,"x_min":-86,"x_max":1025,"o":"m -86 110 l 39 110 l 361 858 l 360 861 l 204 861 l 204 972 l 539 972 l 896 110 l 1025 110 l 1025 0 l 596 0 l 596 110 l 771 110 l 686 314 l 240 314 l 154 110 l 336 110 l 336 0 l -86 0 l -86 110 m 644 419 l 471 836 l 463 836 l 285 419 l 644 419 m 249 1313 l 408 1313 l 335 1071 l 321 1071 l 249 1313 m 450 1313 l 610 1313 l 536 1071 l 522 1071 l 450 1313 z "},"À":{"ha":939,"x_min":-86,"x_max":1025,"o":"m -86 110 l 39 110 l 361 858 l 360 861 l 204 861 l 204 972 l 539 972 l 896 110 l 1025 110 l 1025 0 l 596 0 l 596 110 l 771 110 l 686 314 l 240 314 l 154 110 l 336 110 l 336 0 l -86 0 l -86 110 m 644 419 l 471 836 l 463 836 l 285 419 l 644 419 m 375 1090 l 278 1313 l 383 1313 l 475 1090 l 375 1090 z "},"Ā":{"ha":939,"x_min":-86,"x_max":1025,"o":"m -86 110 l 39 110 l 361 858 l 360 861 l 204 861 l 204 972 l 539 972 l 896 110 l 1025 110 l 1025 0 l 596 0 l 596 110 l 771 110 l 686 314 l 240 314 l 154 110 l 336 110 l 336 0 l -86 0 l -86 110 m 644 419 l 471 836 l 463 836 l 285 419 l 644 419 m 643 1246 l 643 1150 l 232 1150 l 232 1246 l 643 1246 z "},"Ą":{"ha":939,"x_min":-86,"x_max":1025,"o":"m -86 110 l 39 110 l 361 858 l 360 861 l 204 861 l 204 972 l 539 972 l 896 110 l 1025 110 l 1025 0 l 596 0 l 596 110 l 771 110 l 686 314 l 240 314 l 154 110 l 336 110 l 336 0 l -86 0 l -86 110 m 644 419 l 471 836 l 463 836 l 285 419 l 644 419 z "},"Å":{"ha":939,"x_min":-86,"x_max":1025,"o":"m -86 110 l 39 110 l 361 858 l 360 861 l 204 861 l 204 972 l 539 972 l 896 110 l 1025 110 l 1025 0 l 596 0 l 596 110 l 771 110 l 686 314 l 240 314 l 154 110 l 336 110 l 336 0 l -86 0 l -86 110 m 644 419 l 471 836 l 463 836 l 285 419 l 644 419 m 436 1069 q 310 1122 361 1069 q 258 1247 258 1174 q 310 1375 258 1322 q 436 1428 361 1428 q 526 1403 485 1428 q 592 1338 568 1379 q 617 1247 617 1296 q 592 1158 617 1199 q 526 1093 568 1117 q 436 1069 485 1069 m 438 1151 q 506 1180 478 1151 q 535 1249 535 1208 q 506 1317 535 1289 q 438 1346 478 1346 q 368 1317 396 1346 q 340 1249 340 1289 q 368 1179 340 1207 q 438 1151 396 1151 z "},"Ã":{"ha":939,"x_min":-86,"x_max":1025,"o":"m -86 110 l 39 110 l 361 858 l 360 861 l 204 861 l 204 972 l 539 972 l 896 110 l 1025 110 l 1025 0 l 596 0 l 596 110 l 771 110 l 686 314 l 240 314 l 154 110 l 336 110 l 336 0 l -86 0 l -86 110 m 644 419 l 471 836 l 463 836 l 285 419 l 644 419 m 171 1129 q 209 1243 171 1201 q 307 1285 247 1285 q 369 1276 340 1285 q 440 1247 399 1267 q 498 1224 478 1231 q 542 1217 518 1217 q 591 1235 571 1217 q 611 1281 611 1254 l 704 1281 q 666 1167 704 1208 q 568 1125 628 1125 q 506 1134 535 1125 q 435 1163 476 1143 q 376 1186 397 1179 q 333 1193 356 1193 q 285 1175 304 1193 q 265 1129 265 1157 l 171 1129 z "},"Æ":{"ha":1388,"x_min":-86,"x_max":1326,"o":"m 596 0 l 596 110 l 771 110 l 686 314 l 240 314 l 154 110 l 336 110 l 336 0 l -86 0 l -86 110 l 39 110 l 361 858 l 360 861 l 204 861 l 204 972 l 1158 972 l 1158 1054 l 1269 1054 l 1269 644 l 1158 644 l 1158 860 l 1156 861 l 583 861 l 718 539 l 946 539 l 949 540 l 949 654 l 1043 654 l 1043 319 l 949 319 l 949 432 q 946 433 949 433 l 761 433 l 896 110 l 1211 110 q 1214 113 1214 110 l 1214 329 l 1326 329 l 1326 -87 l 1215 -87 l 1215 0 l 596 0 m 644 419 l 471 836 l 463 836 l 285 419 l 644 419 z "},"B":{"ha":947,"x_min":40,"x_max":900,"o":"m 188 110 l 188 861 l 40 861 l 40 972 l 543 972 q 775 906 690 972 q 860 722 860 839 q 816 582 860 642 q 692 496 772 522 l 692 486 q 847 403 793 464 q 900 250 900 343 q 815 67 900 133 q 582 0 731 0 l 40 0 l 40 110 l 188 110 m 526 538 q 681 582 625 538 q 736 701 736 626 q 681 819 736 776 q 526 861 625 861 l 303 861 l 303 538 l 526 538 m 565 110 q 719 153 664 110 q 775 269 775 196 q 717 388 775 344 q 565 432 658 432 l 303 432 l 303 110 l 565 110 z "},"C":{"ha":997,"x_min":50,"x_max":904,"o":"m 504 -19 q 273 46 376 -19 q 110 226 169 111 q 50 486 50 342 q 110 746 50 631 q 273 926 169 861 q 503 992 376 992 q 659 960 586 992 q 776 874 732 928 l 776 1018 l 888 1018 l 888 608 l 772 608 l 772 675 q 735 777 772 729 q 638 853 699 825 q 506 882 576 882 q 332 831 410 882 q 210 689 254 779 q 167 486 167 599 q 210 283 167 374 q 332 142 254 193 q 506 90 410 90 q 647 119 582 90 q 751 199 713 149 q 790 307 790 249 l 790 382 l 904 382 l 904 -11 l 793 -11 l 793 104 q 672 15 749 49 q 504 -19 594 -19 z "},"Ć":{"ha":997,"x_min":50,"x_max":904,"o":"m 504 -19 q 273 46 376 -19 q 110 226 169 111 q 50 486 50 342 q 110 746 50 631 q 273 926 169 861 q 503 992 376 992 q 659 960 586 992 q 776 874 732 928 l 776 1018 l 888 1018 l 888 608 l 772 608 l 772 675 q 735 777 772 729 q 638 853 699 825 q 506 882 576 882 q 332 831 410 882 q 210 689 254 779 q 167 486 167 599 q 210 283 167 374 q 332 142 254 193 q 506 90 410 90 q 647 119 582 90 q 751 199 713 149 q 790 307 790 249 l 790 382 l 904 382 l 904 -11 l 793 -11 l 793 104 q 672 15 749 49 q 504 -19 594 -19 m 561 1313 l 667 1313 l 569 1090 l 469 1090 l 561 1313 z "},"Č":{"ha":997,"x_min":50,"x_max":904,"o":"m 504 -19 q 273 46 376 -19 q 110 226 169 111 q 50 486 50 342 q 110 746 50 631 q 273 926 169 861 q 503 992 376 992 q 659 960 586 992 q 776 874 732 928 l 776 1018 l 888 1018 l 888 608 l 772 608 l 772 675 q 735 777 772 729 q 638 853 699 825 q 506 882 576 882 q 332 831 410 882 q 210 689 254 779 q 167 486 167 599 q 210 283 167 374 q 332 142 254 193 q 506 90 410 90 q 647 119 582 90 q 751 199 713 149 q 790 307 790 249 l 790 382 l 904 382 l 904 -11 l 793 -11 l 793 104 q 672 15 749 49 q 504 -19 594 -19 m 364 1313 l 507 1158 l 651 1313 l 775 1313 l 571 1090 l 443 1090 l 239 1313 l 364 1313 z "},"Ç":{"ha":997,"x_min":50,"x_max":904,"o":"m 504 -19 q 273 46 376 -19 q 110 226 169 111 q 50 486 50 342 q 110 746 50 631 q 273 926 169 861 q 503 992 376 992 q 659 960 586 992 q 776 874 732 928 l 776 1018 l 888 1018 l 888 608 l 772 608 l 772 675 q 735 777 772 729 q 638 853 699 825 q 506 882 576 882 q 332 831 410 882 q 210 689 254 779 q 167 486 167 599 q 210 283 167 374 q 332 142 254 193 q 506 90 410 90 q 647 119 582 90 q 751 199 713 149 q 790 307 790 249 l 790 382 l 904 382 l 904 -11 l 793 -11 l 793 104 q 672 15 749 49 q 504 -19 594 -19 m 361 -340 l 458 -118 l 558 -118 l 467 -340 l 361 -340 z "},"Ċ":{"ha":997,"x_min":50,"x_max":904,"o":"m 504 -19 q 273 46 376 -19 q 110 226 169 111 q 50 486 50 342 q 110 746 50 631 q 273 926 169 861 q 503 992 376 992 q 659 960 586 992 q 776 874 732 928 l 776 1018 l 888 1018 l 888 608 l 772 608 l 772 675 q 735 777 772 729 q 638 853 699 825 q 506 882 576 882 q 332 831 410 882 q 210 689 254 779 q 167 486 167 599 q 210 283 167 374 q 332 142 254 193 q 506 90 410 90 q 647 119 582 90 q 751 199 713 149 q 790 307 790 249 l 790 382 l 904 382 l 904 -11 l 793 -11 l 793 104 q 672 15 749 49 q 504 -19 594 -19 m 418 1313 l 596 1313 l 514 1071 l 499 1071 l 418 1313 z "},"D":{"ha":1008,"x_min":40,"x_max":958,"o":"m 425 972 q 704 911 583 972 q 892 740 825 850 q 958 486 958 629 q 892 233 958 343 q 704 61 825 122 q 425 0 583 0 l 40 0 l 40 110 l 188 110 l 188 861 l 40 861 l 40 972 l 425 972 m 432 110 q 649 156 556 110 q 792 288 742 203 q 842 486 842 374 q 792 683 842 599 q 649 815 742 768 q 432 861 556 861 l 303 861 l 303 110 l 432 110 z "},"Ð":{"ha":1008,"x_min":40,"x_max":958,"o":"m 188 110 l 188 433 l 44 433 l 44 539 l 188 539 l 188 861 l 40 861 l 40 972 l 425 972 q 704 911 583 972 q 892 740 825 850 q 958 486 958 629 q 892 233 958 343 q 704 61 825 122 q 425 0 583 0 l 40 0 l 40 110 l 188 110 m 432 110 q 649 156 556 110 q 792 288 742 203 q 842 486 842 374 q 792 683 842 599 q 649 815 742 768 q 432 861 556 861 l 303 861 l 303 539 l 511 539 l 511 433 l 303 433 l 303 110 l 432 110 z "},"Ď":{"ha":1008,"x_min":40,"x_max":958,"o":"m 425 972 q 704 911 583 972 q 892 740 825 850 q 958 486 958 629 q 892 233 958 343 q 704 61 825 122 q 425 0 583 0 l 40 0 l 40 110 l 188 110 l 188 861 l 40 861 l 40 972 l 425 972 m 432 110 q 649 156 556 110 q 792 288 742 203 q 842 486 842 374 q 792 683 842 599 q 649 815 742 768 q 432 861 556 861 l 303 861 l 303 110 l 432 110 m 283 1313 l 426 1158 l 571 1313 l 694 1313 l 490 1090 l 363 1090 l 158 1313 l 283 1313 z "},"Đ":{"ha":1008,"x_min":40,"x_max":958,"o":"m 188 110 l 188 433 l 44 433 l 44 539 l 188 539 l 188 861 l 40 861 l 40 972 l 425 972 q 704 911 583 972 q 892 740 825 850 q 958 486 958 629 q 892 233 958 343 q 704 61 825 122 q 425 0 583 0 l 40 0 l 40 110 l 188 110 m 432 110 q 649 156 556 110 q 792 288 742 203 q 842 486 842 374 q 792 683 842 599 q 649 815 742 768 q 432 861 556 861 l 303 861 l 303 539 l 511 539 l 511 433 l 303 433 l 303 110 l 432 110 z "},"E":{"ha":929,"x_min":40,"x_max":868,"o":"m 40 0 l 40 110 l 188 110 l 188 861 l 40 861 l 40 972 l 700 972 l 700 1054 l 811 1054 l 811 644 l 700 644 l 700 860 l 697 861 l 299 861 l 299 539 l 468 539 l 471 540 l 471 654 l 565 654 l 565 319 l 471 319 l 471 432 q 468 433 471 433 l 299 433 l 299 110 l 753 110 q 756 113 756 110 l 756 329 l 868 329 l 868 -87 l 758 -87 l 758 0 l 40 0 z "},"É":{"ha":929,"x_min":40,"x_max":868,"o":"m 40 0 l 40 110 l 188 110 l 188 861 l 40 861 l 40 972 l 700 972 l 700 1054 l 811 1054 l 811 644 l 700 644 l 700 860 l 697 861 l 299 861 l 299 539 l 468 539 l 471 540 l 471 654 l 565 654 l 565 319 l 471 319 l 471 432 q 468 433 471 433 l 299 433 l 299 110 l 753 110 q 756 113 756 110 l 756 329 l 868 329 l 868 -87 l 758 -87 l 758 0 l 40 0 m 511 1313 l 617 1313 l 519 1090 l 419 1090 l 511 1313 z "},"Ě":{"ha":929,"x_min":40,"x_max":868,"o":"m 40 0 l 40 110 l 188 110 l 188 861 l 40 861 l 40 972 l 700 972 l 700 1054 l 811 1054 l 811 644 l 700 644 l 700 860 l 697 861 l 299 861 l 299 539 l 468 539 l 471 540 l 471 654 l 565 654 l 565 319 l 471 319 l 471 432 q 468 433 471 433 l 299 433 l 299 110 l 753 110 q 756 113 756 110 l 756 329 l 868 329 l 868 -87 l 758 -87 l 758 0 l 40 0 m 314 1313 l 457 1158 l 601 1313 l 725 1313 l 521 1090 l 393 1090 l 189 1313 l 314 1313 z "},"Ê":{"ha":929,"x_min":40,"x_max":868,"o":"m 40 0 l 40 110 l 188 110 l 188 861 l 40 861 l 40 972 l 700 972 l 700 1054 l 811 1054 l 811 644 l 700 644 l 700 860 l 697 861 l 299 861 l 299 539 l 468 539 l 471 540 l 471 654 l 565 654 l 565 319 l 471 319 l 471 432 q 468 433 471 433 l 299 433 l 299 110 l 753 110 q 756 113 756 110 l 756 329 l 868 329 l 868 -87 l 758 -87 l 758 0 l 40 0 m 600 1090 l 457 1244 l 313 1090 l 189 1090 l 393 1313 l 521 1313 l 725 1090 l 600 1090 z "},"Ë":{"ha":929,"x_min":40,"x_max":868,"o":"m 40 0 l 40 110 l 188 110 l 188 861 l 40 861 l 40 972 l 700 972 l 700 1054 l 811 1054 l 811 644 l 700 644 l 700 860 l 697 861 l 299 861 l 299 539 l 468 539 l 471 540 l 471 654 l 565 654 l 565 319 l 471 319 l 471 432 q 468 433 471 433 l 299 433 l 299 110 l 753 110 q 756 113 756 110 l 756 329 l 868 329 l 868 -87 l 758 -87 l 758 0 l 40 0 m 268 1313 l 428 1313 l 354 1071 l 340 1071 l 268 1313 m 469 1313 l 629 1313 l 556 1071 l 542 1071 l 469 1313 z "},"Ė":{"ha":929,"x_min":40,"x_max":868,"o":"m 40 0 l 40 110 l 188 110 l 188 861 l 40 861 l 40 972 l 700 972 l 700 1054 l 811 1054 l 811 644 l 700 644 l 700 860 l 697 861 l 299 861 l 299 539 l 468 539 l 471 540 l 471 654 l 565 654 l 565 319 l 471 319 l 471 432 q 468 433 471 433 l 299 433 l 299 110 l 753 110 q 756 113 756 110 l 756 329 l 868 329 l 868 -87 l 758 -87 l 758 0 l 40 0 m 368 1313 l 546 1313 l 464 1071 l 449 1071 l 368 1313 z "},"È":{"ha":929,"x_min":40,"x_max":868,"o":"m 40 0 l 40 110 l 188 110 l 188 861 l 40 861 l 40 972 l 700 972 l 700 1054 l 811 1054 l 811 644 l 700 644 l 700 860 l 697 861 l 299 861 l 299 539 l 468 539 l 471 540 l 471 654 l 565 654 l 565 319 l 471 319 l 471 432 q 468 433 471 433 l 299 433 l 299 110 l 753 110 q 756 113 756 110 l 756 329 l 868 329 l 868 -87 l 758 -87 l 758 0 l 40 0 m 394 1090 l 297 1313 l 403 1313 l 494 1090 l 394 1090 z "},"Ē":{"ha":929,"x_min":40,"x_max":868,"o":"m 40 0 l 40 110 l 188 110 l 188 861 l 40 861 l 40 972 l 700 972 l 700 1054 l 811 1054 l 811 644 l 700 644 l 700 860 l 697 861 l 299 861 l 299 539 l 468 539 l 471 540 l 471 654 l 565 654 l 565 319 l 471 319 l 471 432 q 468 433 471 433 l 299 433 l 299 110 l 753 110 q 756 113 756 110 l 756 329 l 868 329 l 868 -87 l 758 -87 l 758 0 l 40 0 m 663 1246 l 663 1150 l 251 1150 l 251 1246 l 663 1246 z "},"Ę":{"ha":929,"x_min":40,"x_max":868,"o":"m 40 0 l 40 110 l 188 110 l 188 861 l 40 861 l 40 972 l 700 972 l 700 1054 l 811 1054 l 811 644 l 700 644 l 700 860 l 697 861 l 299 861 l 299 539 l 468 539 l 471 540 l 471 654 l 565 654 l 565 319 l 471 319 l 471 432 q 468 433 471 433 l 299 433 l 299 110 l 753 110 q 756 113 756 110 l 756 329 l 868 329 l 868 -87 l 758 -87 l 758 0 l 40 0 z "},"F":{"ha":860,"x_min":40,"x_max":822,"o":"m 188 110 l 188 861 l 40 861 l 40 972 l 713 972 l 713 1054 l 822 1054 l 822 649 l 713 649 l 713 860 l 710 861 l 303 861 l 303 547 l 483 547 q 486 550 486 547 l 486 664 l 582 664 l 582 325 l 486 325 l 486 439 q 483 442 486 442 l 303 442 l 303 110 l 525 110 l 525 0 l 40 0 l 40 110 l 188 110 z "},"G":{"ha":1076,"x_min":50,"x_max":1065,"o":"m 814 113 q 812 116 814 115 q 808 115 810 117 q 681 15 761 51 q 496 -21 601 -21 q 270 44 372 -21 q 109 226 168 110 q 50 486 50 342 q 110 747 50 631 q 273 928 169 863 q 503 993 376 993 q 676 959 600 993 q 797 867 753 925 l 797 1018 l 907 1018 l 907 632 l 799 632 l 799 683 q 760 779 799 733 q 655 853 721 825 q 511 882 589 882 q 334 831 413 882 q 211 689 256 779 q 167 486 167 599 q 212 281 167 372 q 335 138 257 190 q 511 86 414 86 q 661 117 592 86 q 771 197 731 147 q 811 303 811 247 l 811 413 l 543 413 l 543 518 l 1065 518 l 1065 413 l 933 413 l 933 -14 l 814 -14 l 814 113 z "},"Ğ":{"ha":1075,"x_min":50,"x_max":1065,"o":"m 814 113 q 812 116 814 115 q 808 115 810 117 q 681 15 761 51 q 496 -21 601 -21 q 270 44 372 -21 q 109 226 168 110 q 50 486 50 342 q 110 747 50 631 q 273 928 169 863 q 503 993 376 993 q 676 959 600 993 q 797 867 753 925 l 797 1018 l 907 1018 l 907 632 l 799 632 l 799 683 q 760 779 799 733 q 655 853 721 825 q 511 882 589 882 q 334 831 413 882 q 211 689 256 779 q 167 486 167 599 q 212 281 167 372 q 335 138 257 190 q 511 86 414 86 q 661 117 592 86 q 771 197 731 147 q 811 303 811 247 l 811 413 l 543 413 l 543 518 l 1065 518 l 1065 413 l 933 413 l 933 -14 l 814 -14 l 814 113 z "},"Ģ":{"ha":1075,"x_min":50,"x_max":1065,"o":"m 814 113 q 812 116 814 115 q 808 115 810 117 q 681 15 761 51 q 496 -21 601 -21 q 270 44 372 -21 q 109 226 168 110 q 50 486 50 342 q 110 747 50 631 q 273 928 169 863 q 503 993 376 993 q 676 959 600 993 q 797 867 753 925 l 797 1018 l 907 1018 l 907 632 l 799 632 l 799 683 q 760 779 799 733 q 655 853 721 825 q 511 882 589 882 q 334 831 413 882 q 211 689 256 779 q 167 486 167 599 q 212 281 167 372 q 335 138 257 190 q 511 86 414 86 q 661 117 592 86 q 771 197 731 147 q 811 303 811 247 l 811 413 l 543 413 l 543 518 l 1065 518 l 1065 413 l 933 413 l 933 -14 l 814 -14 l 814 113 m 492 -340 q 525 -281 510 -314 q 542 -229 540 -249 l 539 -229 q 492 -210 510 -229 q 474 -168 474 -190 q 495 -115 474 -136 q 551 -94 517 -94 q 610 -116 586 -94 q 633 -175 633 -137 q 609 -265 633 -219 q 551 -340 585 -310 l 492 -340 z "},"Ġ":{"ha":1075,"x_min":50,"x_max":1065,"o":"m 814 113 q 812 116 814 115 q 808 115 810 117 q 681 15 761 51 q 496 -21 601 -21 q 270 44 372 -21 q 109 226 168 110 q 50 486 50 342 q 110 747 50 631 q 273 928 169 863 q 503 993 376 993 q 676 959 600 993 q 797 867 753 925 l 797 1018 l 907 1018 l 907 632 l 799 632 l 799 683 q 760 779 799 733 q 655 853 721 825 q 511 882 589 882 q 334 831 413 882 q 211 689 256 779 q 167 486 167 599 q 212 281 167 372 q 335 138 257 190 q 511 86 414 86 q 661 117 592 86 q 771 197 731 147 q 811 303 811 247 l 811 413 l 543 413 l 543 518 l 1065 518 l 1065 413 l 933 413 l 933 -14 l 814 -14 l 814 113 m 424 1313 l 601 1313 l 519 1071 l 504 1071 l 424 1313 z "},"H":{"ha":1139,"x_min":40,"x_max":1099,"o":"m 40 110 l 188 110 l 188 861 l 40 861 l 40 972 l 471 972 l 471 861 l 303 861 l 303 539 l 836 539 l 836 861 l 668 861 l 668 972 l 1099 972 l 1099 861 l 951 861 l 951 110 l 1099 110 l 1099 0 l 668 0 l 668 110 l 836 110 l 836 433 l 303 433 l 303 110 l 471 110 l 471 0 l 40 0 l 40 110 z "},"Ħ":{"ha":1139,"x_min":40,"x_max":1099,"o":"m 951 861 l 951 758 l 1099 758 l 1099 672 l 951 672 l 951 110 l 1099 110 l 1099 0 l 668 0 l 668 110 l 836 110 l 836 433 l 303 433 l 303 110 l 471 110 l 471 0 l 40 0 l 40 110 l 188 110 l 188 672 l 40 672 l 40 758 l 188 758 l 188 861 l 40 861 l 40 972 l 471 972 l 471 861 l 303 861 l 303 758 l 836 758 l 836 861 l 668 861 l 668 972 l 1099 972 l 1099 861 l 951 861 m 836 672 l 303 672 l 303 539 l 836 539 l 836 672 z "},"I":{"ha":489,"x_min":40,"x_max":450,"o":"m 40 110 l 188 110 l 188 861 l 40 861 l 40 972 l 450 972 l 450 861 l 303 861 l 303 110 l 450 110 l 450 0 l 40 0 l 40 110 z "},"Í":{"ha":489,"x_min":40,"x_max":450,"o":"m 40 110 l 188 110 l 188 861 l 40 861 l 40 972 l 450 972 l 450 861 l 303 861 l 303 110 l 450 110 l 450 0 l 40 0 l 40 110 m 299 1313 l 404 1313 l 307 1090 l 207 1090 l 299 1313 z "},"Î":{"ha":489,"x_min":-24,"x_max":513,"o":"m 40 110 l 188 110 l 188 861 l 40 861 l 40 972 l 450 972 l 450 861 l 303 861 l 303 110 l 450 110 l 450 0 l 40 0 l 40 110 m 388 1090 l 244 1244 l 100 1090 l -24 1090 l 181 1313 l 308 1313 l 513 1090 l 388 1090 z "},"Ï":{"ha":489,"x_min":40,"x_max":450,"o":"m 40 110 l 188 110 l 188 861 l 40 861 l 40 972 l 450 972 l 450 861 l 303 861 l 303 110 l 450 110 l 450 0 l 40 0 l 40 110 m 56 1313 l 215 1313 l 142 1071 l 128 1071 l 56 1313 m 257 1313 l 417 1313 l 343 1071 l 329 1071 l 257 1313 z "},"İ":{"ha":489,"x_min":40,"x_max":450,"o":"m 40 110 l 188 110 l 188 861 l 40 861 l 40 972 l 450 972 l 450 861 l 303 861 l 303 110 l 450 110 l 450 0 l 40 0 l 40 110 m 156 1313 l 333 1313 l 251 1071 l 236 1071 l 156 1313 z "},"Ì":{"ha":489,"x_min":40,"x_max":450,"o":"m 40 110 l 188 110 l 188 861 l 40 861 l 40 972 l 450 972 l 450 861 l 303 861 l 303 110 l 450 110 l 450 0 l 40 0 l 40 110 m 182 1090 l 85 1313 l 190 1313 l 282 1090 l 182 1090 z "},"Ī":{"ha":489,"x_min":39,"x_max":450,"o":"m 40 110 l 188 110 l 188 861 l 40 861 l 40 972 l 450 972 l 450 861 l 303 861 l 303 110 l 450 110 l 450 0 l 40 0 l 40 110 m 450 1246 l 450 1150 l 39 1150 l 39 1246 l 450 1246 z "},"Į":{"ha":489,"x_min":40,"x_max":450,"o":"m 40 110 l 188 110 l 188 861 l 40 861 l 40 972 l 450 972 l 450 861 l 303 861 l 303 110 l 450 110 l 450 0 l 40 0 l 40 110 z "},"J":{"ha":806,"x_min":22,"x_max":800,"o":"m 132 414 l 132 306 q 189 152 132 215 q 346 89 246 89 q 490 149 439 89 q 540 311 540 210 l 540 861 l 307 861 l 307 972 l 800 972 l 800 861 l 656 861 l 656 319 q 618 138 656 215 q 513 20 581 61 q 358 -21 446 -21 q 133 90 207 -21 l 133 -44 l 22 -44 l 22 414 l 132 414 z "},"K":{"ha":1006,"x_min":40,"x_max":1028,"o":"m 40 110 l 188 110 l 188 861 l 40 861 l 40 972 l 440 972 l 440 861 l 303 861 l 303 538 l 474 538 l 740 861 l 579 861 l 579 972 l 982 972 l 982 861 l 872 861 l 574 497 l 922 110 l 1028 110 l 1028 0 l 589 0 l 589 110 l 771 110 l 475 436 l 303 436 l 303 110 l 429 110 l 429 0 l 40 0 l 40 110 z "},"Ķ":{"ha":1006,"x_min":40,"x_max":1028,"o":"m 40 110 l 188 110 l 188 861 l 40 861 l 40 972 l 440 972 l 440 861 l 303 861 l 303 538 l 474 538 l 740 861 l 579 861 l 579 972 l 982 972 l 982 861 l 872 861 l 574 497 l 922 110 l 1028 110 l 1028 0 l 589 0 l 589 110 l 771 110 l 475 436 l 303 436 l 303 110 l 429 110 l 429 0 l 40 0 l 40 110 m 471 -340 q 504 -281 489 -314 q 521 -229 519 -249 l 518 -229 q 471 -210 489 -229 q 453 -168 453 -190 q 474 -115 453 -136 q 531 -94 496 -94 q 589 -116 565 -94 q 613 -175 613 -137 q 588 -265 613 -219 q 531 -340 564 -310 l 471 -340 z "},"L":{"ha":875,"x_min":40,"x_max":840,"o":"m 40 0 l 40 110 l 188 110 l 188 861 l 40 861 l 40 972 l 494 972 l 494 861 l 303 861 l 303 110 l 722 110 q 725 113 725 110 l 725 413 l 840 413 l 840 -87 l 725 -87 l 725 0 l 40 0 z "},"Ĺ":{"ha":875,"x_min":40,"x_max":840,"o":"m 40 0 l 40 110 l 188 110 l 188 861 l 40 861 l 40 972 l 494 972 l 494 861 l 303 861 l 303 110 l 722 110 q 725 113 725 110 l 725 413 l 840 413 l 840 -87 l 725 -87 l 725 0 l 40 0 m 310 1313 l 415 1313 l 318 1090 l 218 1090 l 310 1313 z "},"Ľ":{"ha":875,"x_min":40,"x_max":840,"o":"m 40 0 l 40 110 l 188 110 l 188 861 l 40 861 l 40 972 l 494 972 l 494 861 l 303 861 l 303 110 l 722 110 q 725 113 725 110 l 725 413 l 840 413 l 840 -87 l 725 -87 l 725 0 l 40 0 m 586 972 l 688 972 l 681 750 l 586 750 l 586 972 z "},"Ļ":{"ha":875,"x_min":40,"x_max":840,"o":"m 40 0 l 40 110 l 188 110 l 188 861 l 40 861 l 40 972 l 494 972 l 494 861 l 303 861 l 303 110 l 722 110 q 725 113 725 110 l 725 413 l 840 413 l 840 -87 l 725 -87 l 725 0 l 40 0 m 386 -340 q 419 -281 404 -314 q 436 -229 435 -249 l 433 -229 q 386 -210 404 -229 q 368 -168 368 -190 q 390 -115 368 -136 q 446 -94 411 -94 q 504 -116 481 -94 q 528 -175 528 -137 q 503 -265 528 -219 q 446 -340 479 -310 l 386 -340 z "},"Ł":{"ha":875,"x_min":40,"x_max":840,"o":"m 840 -87 l 725 -87 l 725 0 l 40 0 l 40 110 l 188 110 l 188 386 l 54 313 l 54 418 l 188 490 l 188 861 l 40 861 l 40 972 l 494 972 l 494 861 l 303 861 l 303 549 l 510 664 l 510 558 l 303 444 l 303 110 l 722 110 q 725 113 725 110 l 725 413 l 840 413 l 840 -87 z "},"M":{"ha":1385,"x_min":40,"x_max":1346,"o":"m 40 110 l 185 110 l 185 861 l 40 861 l 40 972 l 369 972 l 694 149 l 1019 972 l 1346 972 l 1346 861 l 1201 861 l 1201 110 l 1346 110 l 1346 0 l 944 0 l 944 110 l 1088 110 l 1088 840 l 1083 840 l 750 0 l 635 0 l 300 840 l 297 840 l 297 110 l 451 110 l 451 0 l 40 0 l 40 110 z "},"N":{"ha":1154,"x_min":35,"x_max":1122,"o":"m 299 792 l 299 110 l 474 110 l 474 0 l 40 0 l 40 110 l 188 110 l 188 858 l 183 861 l 35 861 l 35 972 l 314 972 l 869 172 l 869 861 l 701 861 l 701 972 l 1122 972 l 1122 861 l 982 861 l 982 -25 l 867 -25 l 299 792 z "},"Ń":{"ha":1154,"x_min":35,"x_max":1122,"o":"m 299 792 l 299 110 l 474 110 l 474 0 l 40 0 l 40 110 l 188 110 l 188 858 l 183 861 l 35 861 l 35 972 l 314 972 l 869 172 l 869 861 l 701 861 l 701 972 l 1122 972 l 1122 861 l 982 861 l 982 -25 l 867 -25 l 299 792 m 631 1313 l 736 1313 l 639 1090 l 539 1090 l 631 1313 z "},"Ň":{"ha":1154,"x_min":35,"x_max":1122,"o":"m 299 792 l 299 110 l 474 110 l 474 0 l 40 0 l 40 110 l 188 110 l 188 858 l 183 861 l 35 861 l 35 972 l 314 972 l 869 172 l 869 861 l 701 861 l 701 972 l 1122 972 l 1122 861 l 982 861 l 982 -25 l 867 -25 l 299 792 m 433 1313 l 576 1158 l 721 1313 l 844 1313 l 640 1090 l 513 1090 l 308 1313 l 433 1313 z "},"Ņ":{"ha":1154,"x_min":35,"x_max":1122,"o":"m 299 792 l 299 110 l 474 110 l 474 0 l 40 0 l 40 110 l 188 110 l 188 858 l 183 861 l 35 861 l 35 972 l 314 972 l 869 172 l 869 861 l 701 861 l 701 972 l 1122 972 l 1122 861 l 982 861 l 982 -25 l 867 -25 l 299 792 m 517 -340 q 550 -281 535 -314 q 567 -229 565 -249 l 564 -229 q 517 -210 535 -229 q 499 -168 499 -190 q 520 -115 499 -136 q 576 -94 542 -94 q 635 -116 611 -94 q 658 -175 658 -137 q 634 -265 658 -219 q 576 -340 610 -310 l 517 -340 z "},"Ŋ":{"ha":1154,"x_min":35,"x_max":1122,"o":"m 661 -47 l 661 -67 q 694 -156 661 -121 q 775 -192 726 -192 q 844 -161 818 -192 q 871 -81 871 -131 q 839 15 871 -33 l 299 792 l 299 110 l 474 110 l 474 0 l 40 0 l 40 110 l 188 110 l 188 858 l 183 861 l 35 861 l 35 972 l 314 972 l 869 172 l 869 861 l 701 861 l 701 972 l 1122 972 l 1122 861 l 982 861 l 982 -79 q 957 -189 982 -140 q 890 -265 932 -237 q 799 -292 849 -292 q 713 -269 753 -292 q 654 -215 674 -246 l 654 -292 l 561 -292 l 561 -47 l 661 -47 z "},"Ñ":{"ha":1154,"x_min":35,"x_max":1122,"o":"m 299 792 l 299 110 l 474 110 l 474 0 l 40 0 l 40 110 l 188 110 l 188 858 l 183 861 l 35 861 l 35 972 l 314 972 l 869 172 l 869 861 l 701 861 l 701 972 l 1122 972 l 1122 861 l 982 861 l 982 -25 l 867 -25 l 299 792 m 310 1129 q 348 1243 310 1201 q 446 1285 386 1285 q 508 1276 479 1285 q 579 1247 538 1267 q 637 1224 617 1231 q 681 1217 657 1217 q 730 1235 710 1217 q 750 1281 750 1254 l 843 1281 q 805 1167 843 1208 q 707 1125 767 1125 q 644 1134 674 1125 q 574 1163 615 1143 q 515 1186 536 1179 q 472 1193 494 1193 q 424 1175 443 1193 q 404 1129 404 1157 l 310 1129 z "},"O":{"ha":1110,"x_min":50,"x_max":1060,"o":"m 554 -21 q 296 45 411 -21 q 115 226 181 111 q 50 486 50 342 q 115 746 50 631 q 296 927 181 861 q 554 993 411 993 q 814 927 699 993 q 994 746 929 861 q 1060 486 1060 631 q 994 226 1060 342 q 814 45 929 111 q 554 -21 699 -21 m 554 89 q 754 140 665 89 q 893 282 843 192 q 943 486 943 372 q 893 690 943 600 q 755 831 843 781 q 554 882 667 882 q 355 831 443 882 q 217 690 267 781 q 167 486 167 600 q 217 282 167 372 q 355 140 267 192 q 554 89 443 89 z "},"Ó":{"ha":1110,"x_min":50,"x_max":1060,"o":"m 554 -21 q 296 45 411 -21 q 115 226 181 111 q 50 486 50 342 q 115 746 50 631 q 296 927 181 861 q 554 993 411 993 q 814 927 699 993 q 994 746 929 861 q 1060 486 1060 631 q 994 226 1060 342 q 814 45 929 111 q 554 -21 699 -21 m 554 89 q 754 140 665 89 q 893 282 843 192 q 943 486 943 372 q 893 690 943 600 q 755 831 843 781 q 554 882 667 882 q 355 831 443 882 q 217 690 267 781 q 167 486 167 600 q 217 282 167 372 q 355 140 267 192 q 554 89 443 89 m 610 1313 l 715 1313 l 618 1090 l 518 1090 l 610 1313 z "},"Ô":{"ha":1110,"x_min":50,"x_max":1060,"o":"m 554 -21 q 296 45 411 -21 q 115 226 181 111 q 50 486 50 342 q 115 746 50 631 q 296 927 181 861 q 554 993 411 993 q 814 927 699 993 q 994 746 929 861 q 1060 486 1060 631 q 994 226 1060 342 q 814 45 929 111 q 554 -21 699 -21 m 554 89 q 754 140 665 89 q 893 282 843 192 q 943 486 943 372 q 893 690 943 600 q 755 831 843 781 q 554 882 667 882 q 355 831 443 882 q 217 690 267 781 q 167 486 167 600 q 217 282 167 372 q 355 140 267 192 q 554 89 443 89 m 699 1090 l 556 1244 l 411 1090 l 288 1090 l 492 1313 l 619 1313 l 824 1090 l 699 1090 z "},"Ö":{"ha":1110,"x_min":50,"x_max":1060,"o":"m 554 -21 q 296 45 411 -21 q 115 226 181 111 q 50 486 50 342 q 115 746 50 631 q 296 927 181 861 q 554 993 411 993 q 814 927 699 993 q 994 746 929 861 q 1060 486 1060 631 q 994 226 1060 342 q 814 45 929 111 q 554 -21 699 -21 m 554 89 q 754 140 665 89 q 893 282 843 192 q 943 486 943 372 q 893 690 943 600 q 755 831 843 781 q 554 882 667 882 q 355 831 443 882 q 217 690 267 781 q 167 486 167 600 q 217 282 167 372 q 355 140 267 192 q 554 89 443 89 m 365 1313 l 525 1313 l 451 1071 l 438 1071 l 365 1313 m 567 1313 l 726 1313 l 653 1071 l 639 1071 l 567 1313 z "},"Ò":{"ha":1110,"x_min":50,"x_max":1060,"o":"m 554 -21 q 296 45 411 -21 q 115 226 181 111 q 50 486 50 342 q 115 746 50 631 q 296 927 181 861 q 554 993 411 993 q 814 927 699 993 q 994 746 929 861 q 1060 486 1060 631 q 994 226 1060 342 q 814 45 929 111 q 554 -21 699 -21 m 554 89 q 754 140 665 89 q 893 282 843 192 q 943 486 943 372 q 893 690 943 600 q 755 831 843 781 q 554 882 667 882 q 355 831 443 882 q 217 690 267 781 q 167 486 167 600 q 217 282 167 372 q 355 140 267 192 q 554 89 443 89 m 493 1090 l 396 1313 l 501 1313 l 593 1090 l 493 1090 z "},"Ő":{"ha":1110,"x_min":50,"x_max":1060,"o":"m 554 -21 q 296 45 411 -21 q 115 226 181 111 q 50 486 50 342 q 115 746 50 631 q 296 927 181 861 q 554 993 411 993 q 814 927 699 993 q 994 746 929 861 q 1060 486 1060 631 q 994 226 1060 342 q 814 45 929 111 q 554 -21 699 -21 m 554 89 q 754 140 665 89 q 893 282 843 192 q 943 486 943 372 q 893 690 943 600 q 755 831 843 781 q 554 882 667 882 q 355 831 443 882 q 217 690 267 781 q 167 486 167 600 q 217 282 167 372 q 355 140 267 192 q 554 89 443 89 m 590 1313 l 503 1090 l 413 1090 l 494 1313 l 590 1313 m 796 1313 l 708 1090 l 617 1090 l 700 1313 l 796 1313 z "},"Ō":{"ha":1110,"x_min":50,"x_max":1060,"o":"m 554 -21 q 296 45 411 -21 q 115 226 181 111 q 50 486 50 342 q 115 746 50 631 q 296 927 181 861 q 554 993 411 993 q 814 927 699 993 q 994 746 929 861 q 1060 486 1060 631 q 994 226 1060 342 q 814 45 929 111 q 554 -21 699 -21 m 554 89 q 754 140 665 89 q 893 282 843 192 q 943 486 943 372 q 893 690 943 600 q 755 831 843 781 q 554 882 667 882 q 355 831 443 882 q 217 690 267 781 q 167 486 167 600 q 217 282 167 372 q 355 140 267 192 q 554 89 443 89 m 761 1246 l 761 1150 l 350 1150 l 350 1246 l 761 1246 z "},"Ø":{"ha":1110,"x_min":42,"x_max":1068,"o":"m 554 -21 q 249 78 381 -21 l 176 0 l 42 0 l 174 144 q 82 299 114 213 q 50 486 50 386 q 115 746 50 631 q 296 927 181 861 q 554 993 411 993 q 721 967 643 993 q 861 894 799 942 l 933 972 l 1068 972 l 936 828 q 1028 674 996 761 q 1060 486 1060 586 q 994 226 1060 342 q 814 45 929 111 q 554 -21 699 -21 m 786 813 q 554 885 688 885 q 354 833 443 885 q 215 691 265 782 q 165 486 165 600 q 188 345 165 411 q 250 229 210 279 l 786 813 m 554 88 q 756 139 667 88 q 894 281 844 190 q 944 486 944 372 q 923 626 944 561 q 860 743 901 692 l 324 160 q 554 88 422 88 z "},"Õ":{"ha":1110,"x_min":50,"x_max":1060,"o":"m 554 -21 q 296 45 411 -21 q 115 226 181 111 q 50 486 50 342 q 115 746 50 631 q 296 927 181 861 q 554 993 411 993 q 814 927 699 993 q 994 746 929 861 q 1060 486 1060 631 q 994 226 1060 342 q 814 45 929 111 q 554 -21 699 -21 m 554 89 q 754 140 665 89 q 893 282 843 192 q 943 486 943 372 q 893 690 943 600 q 755 831 843 781 q 554 882 667 882 q 355 831 443 882 q 217 690 267 781 q 167 486 167 600 q 217 282 167 372 q 355 140 267 192 q 554 89 443 89 m 289 1129 q 327 1243 289 1201 q 425 1285 365 1285 q 488 1276 458 1285 q 558 1247 517 1267 q 616 1224 596 1231 q 660 1217 636 1217 q 709 1235 689 1217 q 729 1281 729 1254 l 822 1281 q 784 1167 822 1208 q 686 1125 746 1125 q 624 1134 653 1125 q 553 1163 594 1143 q 494 1186 515 1179 q 451 1193 474 1193 q 403 1175 422 1193 q 383 1129 383 1157 l 289 1129 z "},"Œ":{"ha":1421,"x_min":50,"x_max":1360,"o":"m 583 0 q 304 61 425 0 q 117 233 183 122 q 50 486 50 343 q 117 740 50 629 q 304 911 183 850 q 583 972 425 972 l 1192 972 l 1192 1054 l 1301 1054 l 1301 644 l 1192 644 l 1192 860 l 1189 861 l 806 861 l 806 539 l 969 539 l 972 540 l 972 654 l 1067 654 l 1067 319 l 972 319 l 972 432 q 969 433 972 433 l 806 433 l 806 110 l 1244 110 q 1247 113 1247 110 l 1247 329 l 1360 329 l 1360 -87 l 1249 -87 l 1249 0 l 583 0 m 694 861 l 576 861 q 360 815 453 861 q 217 683 267 768 q 167 486 167 599 q 217 288 167 374 q 360 156 267 203 q 576 110 453 110 l 694 110 l 694 861 z "},"P":{"ha":896,"x_min":40,"x_max":864,"o":"m 188 110 l 188 861 l 40 861 l 40 972 l 504 972 q 767 894 671 972 q 864 681 864 815 q 768 465 864 543 q 504 386 672 386 l 303 386 l 303 110 l 499 110 l 499 0 l 40 0 l 40 110 l 188 110 m 507 486 q 683 538 619 486 q 747 676 747 589 q 683 816 747 765 q 507 867 619 867 l 303 867 l 303 486 l 507 486 z "},"Þ":{"ha":894,"x_min":40,"x_max":858,"o":"m 188 110 l 188 861 l 40 861 l 40 972 l 499 972 l 499 861 l 303 861 l 303 743 l 532 743 q 772 675 685 743 q 858 486 858 607 q 772 298 858 367 q 532 229 685 229 l 303 229 l 303 110 l 499 110 l 499 0 l 40 0 l 40 110 l 188 110 m 543 331 q 688 372 635 331 q 740 486 740 414 q 688 600 740 558 q 543 642 635 642 l 303 642 l 303 331 l 543 331 z "},"Q":{"ha":1104,"x_min":50,"x_max":1054,"o":"m 496 -168 l 496 3 q 266 81 368 14 q 107 256 164 147 q 50 494 50 364 q 115 750 50 636 q 295 928 181 864 q 551 993 410 993 q 809 928 694 993 q 989 750 924 864 q 1054 494 1054 636 q 997 256 1054 364 q 840 81 940 147 q 611 3 739 14 l 611 -168 l 789 -168 l 789 -278 l 315 -278 l 315 -168 l 496 -168 m 551 106 q 744 156 658 106 q 880 294 831 206 q 929 490 929 382 q 880 686 929 599 q 744 824 831 774 q 551 874 658 874 q 359 824 444 874 q 224 686 274 774 q 175 490 175 599 q 224 294 175 382 q 360 156 274 206 q 551 106 446 106 z "},"R":{"ha":935,"x_min":40,"x_max":1013,"o":"m 188 110 l 188 861 l 40 861 l 40 972 l 496 972 q 758 898 663 972 q 854 694 854 824 q 792 522 854 590 q 617 429 729 453 l 894 110 l 1013 110 l 1013 0 l 560 0 l 560 110 l 743 110 l 496 396 l 303 396 l 303 110 l 424 110 l 424 0 l 40 0 l 40 110 l 188 110 m 497 499 q 672 548 608 499 q 736 682 736 597 q 672 817 736 768 q 497 867 608 867 l 303 867 l 303 499 l 497 499 z "},"Ŕ":{"ha":935,"x_min":40,"x_max":1013,"o":"m 188 110 l 188 861 l 40 861 l 40 972 l 496 972 q 758 898 663 972 q 854 694 854 824 q 792 522 854 590 q 617 429 729 453 l 894 110 l 1013 110 l 1013 0 l 560 0 l 560 110 l 743 110 l 496 396 l 303 396 l 303 110 l 424 110 l 424 0 l 40 0 l 40 110 l 188 110 m 497 499 q 672 548 608 499 q 736 682 736 597 q 672 817 736 768 q 497 867 608 867 l 303 867 l 303 499 l 497 499 m 500 1313 l 606 1313 l 508 1090 l 408 1090 l 500 1313 z "},"Ř":{"ha":935,"x_min":40,"x_max":1013,"o":"m 188 110 l 188 861 l 40 861 l 40 972 l 496 972 q 758 898 663 972 q 854 694 854 824 q 792 522 854 590 q 617 429 729 453 l 894 110 l 1013 110 l 1013 0 l 560 0 l 560 110 l 743 110 l 496 396 l 303 396 l 303 110 l 424 110 l 424 0 l 40 0 l 40 110 l 188 110 m 497 499 q 672 548 608 499 q 736 682 736 597 q 672 817 736 768 q 497 867 608 867 l 303 867 l 303 499 l 497 499 m 303 1313 l 446 1158 l 590 1313 l 714 1313 l 510 1090 l 382 1090 l 178 1313 l 303 1313 z "},"Ŗ":{"ha":935,"x_min":40,"x_max":1013,"o":"m 188 110 l 188 861 l 40 861 l 40 972 l 496 972 q 758 898 663 972 q 854 694 854 824 q 792 522 854 590 q 617 429 729 453 l 894 110 l 1013 110 l 1013 0 l 560 0 l 560 110 l 743 110 l 496 396 l 303 396 l 303 110 l 424 110 l 424 0 l 40 0 l 40 110 l 188 110 m 497 499 q 672 548 608 499 q 736 682 736 597 q 672 817 736 768 q 497 867 608 867 l 303 867 l 303 499 l 497 499 m 443 -340 q 476 -281 461 -314 q 493 -229 492 -249 l 490 -229 q 443 -210 461 -229 q 425 -168 425 -190 q 447 -115 425 -136 q 503 -94 468 -94 q 561 -116 538 -94 q 585 -175 585 -137 q 560 -265 585 -219 q 503 -340 536 -310 l 443 -340 z "},"S":{"ha":931,"x_min":61,"x_max":868,"o":"m 174 374 l 174 321 q 219 206 174 261 q 343 119 265 151 q 511 86 421 86 q 683 128 618 86 q 749 242 749 171 q 709 328 749 294 q 612 382 669 361 q 435 436 554 403 q 258 494 329 465 q 135 582 188 524 q 83 732 83 640 q 176 924 83 856 q 417 993 269 993 q 598 958 515 993 q 733 863 681 924 l 733 1013 l 844 1013 l 844 629 l 735 629 l 735 675 q 691 775 735 725 q 574 858 647 825 q 417 890 500 890 q 258 849 317 890 q 199 735 199 807 q 238 640 199 676 q 336 582 276 603 q 508 531 396 561 q 696 471 625 499 q 817 388 767 443 q 868 246 868 333 q 822 103 868 164 q 697 11 776 43 q 518 -21 618 -21 q 315 17 404 -21 q 172 124 226 56 l 172 -18 l 61 -18 l 61 374 l 174 374 z "},"Ś":{"ha":931,"x_min":61,"x_max":868,"o":"m 174 374 l 174 321 q 219 206 174 261 q 343 119 265 151 q 511 86 421 86 q 683 128 618 86 q 749 242 749 171 q 709 328 749 294 q 612 382 669 361 q 435 436 554 403 q 258 494 329 465 q 135 582 188 524 q 83 732 83 640 q 176 924 83 856 q 417 993 269 993 q 598 958 515 993 q 733 863 681 924 l 733 1013 l 844 1013 l 844 629 l 735 629 l 735 675 q 691 775 735 725 q 574 858 647 825 q 417 890 500 890 q 258 849 317 890 q 199 735 199 807 q 238 640 199 676 q 336 582 276 603 q 508 531 396 561 q 696 471 625 499 q 817 388 767 443 q 868 246 868 333 q 822 103 868 164 q 697 11 776 43 q 518 -21 618 -21 q 315 17 404 -21 q 172 124 226 56 l 172 -18 l 61 -18 l 61 374 l 174 374 m 507 1313 l 613 1313 l 515 1090 l 415 1090 l 507 1313 z "},"Š":{"ha":931,"x_min":61,"x_max":868,"o":"m 174 374 l 174 321 q 219 206 174 261 q 343 119 265 151 q 511 86 421 86 q 683 128 618 86 q 749 242 749 171 q 709 328 749 294 q 612 382 669 361 q 435 436 554 403 q 258 494 329 465 q 135 582 188 524 q 83 732 83 640 q 176 924 83 856 q 417 993 269 993 q 598 958 515 993 q 733 863 681 924 l 733 1013 l 844 1013 l 844 629 l 735 629 l 735 675 q 691 775 735 725 q 574 858 647 825 q 417 890 500 890 q 258 849 317 890 q 199 735 199 807 q 238 640 199 676 q 336 582 276 603 q 508 531 396 561 q 696 471 625 499 q 817 388 767 443 q 868 246 868 333 q 822 103 868 164 q 697 11 776 43 q 518 -21 618 -21 q 315 17 404 -21 q 172 124 226 56 l 172 -18 l 61 -18 l 61 374 l 174 374 m 310 1313 l 453 1158 l 597 1313 l 721 1313 l 517 1090 l 389 1090 l 185 1313 l 310 1313 z "},"Ş":{"ha":931,"x_min":61,"x_max":868,"o":"m 174 374 l 174 321 q 219 206 174 261 q 343 119 265 151 q 511 86 421 86 q 683 128 618 86 q 749 242 749 171 q 709 328 749 294 q 612 382 669 361 q 435 436 554 403 q 258 494 329 465 q 135 582 188 524 q 83 732 83 640 q 176 924 83 856 q 417 993 269 993 q 598 958 515 993 q 733 863 681 924 l 733 1013 l 844 1013 l 844 629 l 735 629 l 735 675 q 691 775 735 725 q 574 858 647 825 q 417 890 500 890 q 258 849 317 890 q 199 735 199 807 q 238 640 199 676 q 336 582 276 603 q 508 531 396 561 q 696 471 625 499 q 817 388 767 443 q 868 246 868 333 q 822 103 868 164 q 697 11 776 43 q 518 -21 618 -21 q 315 17 404 -21 q 172 124 226 56 l 172 -18 l 61 -18 l 61 374 l 174 374 m 321 -340 l 418 -118 l 518 -118 l 426 -340 l 321 -340 z "},"Ș":{"ha":931,"x_min":61,"x_max":868,"o":"m 174 374 l 174 321 q 219 206 174 261 q 343 119 265 151 q 511 86 421 86 q 683 128 618 86 q 749 242 749 171 q 709 328 749 294 q 612 382 669 361 q 435 436 554 403 q 258 494 329 465 q 135 582 188 524 q 83 732 83 640 q 176 924 83 856 q 417 993 269 993 q 598 958 515 993 q 733 863 681 924 l 733 1013 l 844 1013 l 844 629 l 735 629 l 735 675 q 691 775 735 725 q 574 858 647 825 q 417 890 500 890 q 258 849 317 890 q 199 735 199 807 q 238 640 199 676 q 336 582 276 603 q 508 531 396 561 q 696 471 625 499 q 817 388 767 443 q 868 246 868 333 q 822 103 868 164 q 697 11 776 43 q 518 -21 618 -21 q 315 17 404 -21 q 172 124 226 56 l 172 -18 l 61 -18 l 61 374 l 174 374 m 407 -340 q 440 -281 425 -314 q 457 -229 456 -249 l 454 -229 q 407 -210 425 -229 q 389 -168 389 -190 q 410 -115 389 -136 q 467 -94 432 -94 q 525 -116 501 -94 q 549 -175 549 -137 q 524 -265 549 -219 q 467 -340 500 -310 l 407 -340 z "},"ẞ":{"ha":1147,"x_min":40,"x_max":1119,"o":"m 551 333 l 551 294 q 585 185 551 233 q 672 111 618 138 q 783 85 725 85 q 941 142 879 85 q 1003 292 1003 200 q 938 437 1003 382 q 771 492 874 492 q 687 481 729 492 q 611 453 644 471 l 594 443 l 551 514 l 908 865 l 303 865 l 303 0 l 40 0 l 40 110 l 188 110 l 188 861 l 40 861 l 40 972 l 1051 972 l 1051 874 l 743 567 q 831 576 778 576 q 982 536 917 574 q 1083 435 1047 499 q 1119 294 1119 372 q 1080 135 1119 207 q 967 22 1040 64 q 796 -19 893 -19 q 651 10 713 -19 q 553 93 589 40 l 553 -24 l 450 -24 l 450 333 l 551 333 z "},"T":{"ha":957,"x_min":33,"x_max":925,"o":"m 421 110 l 421 861 l 146 861 l 143 860 l 143 636 l 33 636 l 33 1054 l 143 1054 l 143 972 l 815 972 l 815 1054 l 925 1054 l 925 636 l 815 636 l 815 860 l 813 861 l 536 861 l 536 110 l 736 110 l 736 0 l 221 0 l 221 110 l 421 110 z "},"Ŧ":{"ha":957,"x_min":33,"x_max":925,"o":"m 421 110 l 421 433 l 243 433 l 243 539 l 421 539 l 421 861 l 146 861 l 143 860 l 143 636 l 33 636 l 33 1054 l 143 1054 l 143 972 l 815 972 l 815 1054 l 925 1054 l 925 636 l 815 636 l 815 860 l 813 861 l 536 861 l 536 539 l 715 539 l 715 433 l 536 433 l 536 110 l 736 110 l 736 0 l 221 0 l 221 110 l 421 110 z "},"Ť":{"ha":957,"x_min":33,"x_max":925,"o":"m 421 110 l 421 861 l 146 861 l 143 860 l 143 636 l 33 636 l 33 1054 l 143 1054 l 143 972 l 815 972 l 815 1054 l 925 1054 l 925 636 l 815 636 l 815 860 l 813 861 l 536 861 l 536 110 l 736 110 l 736 0 l 221 0 l 221 110 l 421 110 m 336 1313 l 479 1158 l 624 1313 l 747 1313 l 543 1090 l 415 1090 l 211 1313 l 336 1313 z "},"Ţ":{"ha":957,"x_min":33,"x_max":925,"o":"m 421 110 l 421 861 l 146 861 l 143 860 l 143 636 l 33 636 l 33 1054 l 143 1054 l 143 972 l 815 972 l 815 1054 l 925 1054 l 925 636 l 815 636 l 815 860 l 813 861 l 536 861 l 536 110 l 736 110 l 736 0 l 221 0 l 221 110 l 421 110 m 333 -340 l 431 -118 l 531 -118 l 439 -340 l 333 -340 z "},"Ț":{"ha":957,"x_min":33,"x_max":925,"o":"m 421 110 l 421 861 l 146 861 l 143 860 l 143 636 l 33 636 l 33 1054 l 143 1054 l 143 972 l 815 972 l 815 1054 l 925 1054 l 925 636 l 815 636 l 815 860 l 813 861 l 536 861 l 536 110 l 736 110 l 736 0 l 221 0 l 221 110 l 421 110 m 419 -340 q 453 -281 438 -314 q 469 -229 468 -249 l 467 -229 q 419 -210 438 -229 q 401 -168 401 -190 q 423 -115 401 -136 q 479 -94 444 -94 q 538 -116 514 -94 q 561 -175 561 -137 q 537 -265 561 -219 q 479 -340 513 -310 l 419 -340 z "},"U":{"ha":1101,"x_min":4,"x_max":1097,"o":"m 554 -21 q 342 33 435 -21 q 199 182 250 86 q 147 403 147 278 l 147 861 l 4 861 l 4 972 l 438 972 l 438 861 l 263 861 l 263 407 q 299 240 263 313 q 401 128 335 168 q 554 89 467 89 q 703 128 639 89 q 803 240 768 168 q 839 407 839 313 l 839 861 l 665 861 l 665 972 l 1097 972 l 1097 861 l 954 861 l 954 403 q 903 182 954 278 q 763 33 853 86 q 554 -21 672 -21 z "},"Ú":{"ha":1101,"x_min":4,"x_max":1097,"o":"m 554 -21 q 342 33 435 -21 q 199 182 250 86 q 147 403 147 278 l 147 861 l 4 861 l 4 972 l 438 972 l 438 861 l 263 861 l 263 407 q 299 240 263 313 q 401 128 335 168 q 554 89 467 89 q 703 128 639 89 q 803 240 768 168 q 839 407 839 313 l 839 861 l 665 861 l 665 972 l 1097 972 l 1097 861 l 954 861 l 954 403 q 903 182 954 278 q 763 33 853 86 q 554 -21 672 -21 m 606 1313 l 711 1313 l 614 1090 l 514 1090 l 606 1313 z "},"Û":{"ha":1101,"x_min":4,"x_max":1097,"o":"m 554 -21 q 342 33 435 -21 q 199 182 250 86 q 147 403 147 278 l 147 861 l 4 861 l 4 972 l 438 972 l 438 861 l 263 861 l 263 407 q 299 240 263 313 q 401 128 335 168 q 554 89 467 89 q 703 128 639 89 q 803 240 768 168 q 839 407 839 313 l 839 861 l 665 861 l 665 972 l 1097 972 l 1097 861 l 954 861 l 954 403 q 903 182 954 278 q 763 33 853 86 q 554 -21 672 -21 m 694 1090 l 551 1244 l 407 1090 l 283 1090 l 488 1313 l 615 1313 l 819 1090 l 694 1090 z "},"Ü":{"ha":1101,"x_min":4,"x_max":1097,"o":"m 554 -21 q 342 33 435 -21 q 199 182 250 86 q 147 403 147 278 l 147 861 l 4 861 l 4 972 l 438 972 l 438 861 l 263 861 l 263 407 q 299 240 263 313 q 401 128 335 168 q 554 89 467 89 q 703 128 639 89 q 803 240 768 168 q 839 407 839 313 l 839 861 l 665 861 l 665 972 l 1097 972 l 1097 861 l 954 861 l 954 403 q 903 182 954 278 q 763 33 853 86 q 554 -21 672 -21 m 361 1313 l 521 1313 l 447 1071 l 433 1071 l 361 1313 m 563 1313 l 722 1313 l 649 1071 l 635 1071 l 563 1313 z "},"Ù":{"ha":1101,"x_min":4,"x_max":1097,"o":"m 554 -21 q 342 33 435 -21 q 199 182 250 86 q 147 403 147 278 l 147 861 l 4 861 l 4 972 l 438 972 l 438 861 l 263 861 l 263 407 q 299 240 263 313 q 401 128 335 168 q 554 89 467 89 q 703 128 639 89 q 803 240 768 168 q 839 407 839 313 l 839 861 l 665 861 l 665 972 l 1097 972 l 1097 861 l 954 861 l 954 403 q 903 182 954 278 q 763 33 853 86 q 554 -21 672 -21 m 489 1090 l 392 1313 l 497 1313 l 589 1090 l 489 1090 z "},"Ű":{"ha":1101,"x_min":4,"x_max":1097,"o":"m 554 -21 q 342 33 435 -21 q 199 182 250 86 q 147 403 147 278 l 147 861 l 4 861 l 4 972 l 438 972 l 438 861 l 263 861 l 263 407 q 299 240 263 313 q 401 128 335 168 q 554 89 467 89 q 703 128 639 89 q 803 240 768 168 q 839 407 839 313 l 839 861 l 665 861 l 665 972 l 1097 972 l 1097 861 l 954 861 l 954 403 q 903 182 954 278 q 763 33 853 86 q 554 -21 672 -21 m 586 1313 l 499 1090 l 408 1090 l 490 1313 l 586 1313 m 792 1313 l 704 1090 l 613 1090 l 696 1313 l 792 1313 z "},"Ū":{"ha":1101,"x_min":4,"x_max":1097,"o":"m 554 -21 q 342 33 435 -21 q 199 182 250 86 q 147 403 147 278 l 147 861 l 4 861 l 4 972 l 438 972 l 438 861 l 263 861 l 263 407 q 299 240 263 313 q 401 128 335 168 q 554 89 467 89 q 703 128 639 89 q 803 240 768 168 q 839 407 839 313 l 839 861 l 665 861 l 665 972 l 1097 972 l 1097 861 l 954 861 l 954 403 q 903 182 954 278 q 763 33 853 86 q 554 -21 672 -21 m 757 1246 l 757 1150 l 346 1150 l 346 1246 l 757 1246 z "},"Ų":{"ha":1101,"x_min":4,"x_max":1097,"o":"m 554 -21 q 342 33 435 -21 q 199 182 250 86 q 147 403 147 278 l 147 861 l 4 861 l 4 972 l 438 972 l 438 861 l 263 861 l 263 407 q 299 240 263 313 q 401 128 335 168 q 554 89 467 89 q 703 128 639 89 q 803 240 768 168 q 839 407 839 313 l 839 861 l 665 861 l 665 972 l 1097 972 l 1097 861 l 954 861 l 954 403 q 903 182 954 278 q 763 33 853 86 q 554 -21 672 -21 z "},"Ů":{"ha":1101,"x_min":4,"x_max":1097,"o":"m 554 -21 q 342 33 435 -21 q 199 182 250 86 q 147 403 147 278 l 147 861 l 4 861 l 4 972 l 438 972 l 438 861 l 263 861 l 263 407 q 299 240 263 313 q 401 128 335 168 q 554 89 467 89 q 703 128 639 89 q 803 240 768 168 q 839 407 839 313 l 839 861 l 665 861 l 665 972 l 1097 972 l 1097 861 l 954 861 l 954 403 q 903 182 954 278 q 763 33 853 86 q 554 -21 672 -21 m 550 1069 q 424 1122 475 1069 q 372 1247 372 1174 q 424 1375 372 1322 q 550 1428 475 1428 q 640 1403 599 1428 q 706 1338 682 1379 q 731 1247 731 1296 q 706 1158 731 1199 q 640 1093 682 1117 q 550 1069 599 1069 m 551 1151 q 620 1180 592 1151 q 649 1249 649 1208 q 620 1317 649 1289 q 551 1346 592 1346 q 482 1317 510 1346 q 454 1249 454 1289 q 482 1179 454 1207 q 551 1151 510 1151 z "},"V":{"ha":907,"x_min":-111,"x_max":1019,"o":"m 17 861 l -111 861 l -111 972 l 328 972 l 328 861 l 147 861 l 457 111 l 460 111 l 769 861 l 588 861 l 588 972 l 1019 972 l 1019 861 l 893 861 l 535 0 l 376 0 l 17 861 z "},"W":{"ha":1365,"x_min":-76,"x_max":1442,"o":"m 47 861 l -76 861 l -76 972 l 333 972 l 333 861 l 167 861 l 406 108 l 410 108 l 628 750 l 588 861 l 463 861 l 463 972 l 883 972 l 883 861 l 699 861 l 957 108 l 963 108 l 1201 861 l 1035 861 l 1035 972 l 1442 972 l 1442 861 l 1319 861 l 1049 0 l 886 0 l 682 588 l 476 0 l 317 0 l 47 861 z "},"Ẃ":{"ha":1365,"x_min":-76,"x_max":1442,"o":"m 47 861 l -76 861 l -76 972 l 333 972 l 333 861 l 167 861 l 406 108 l 410 108 l 628 750 l 588 861 l 463 861 l 463 972 l 883 972 l 883 861 l 699 861 l 957 108 l 963 108 l 1201 861 l 1035 861 l 1035 972 l 1442 972 l 1442 861 l 1319 861 l 1049 0 l 886 0 l 682 588 l 476 0 l 317 0 l 47 861 m 738 1313 l 843 1313 l 746 1090 l 646 1090 l 738 1313 z "},"Ŵ":{"ha":1365,"x_min":-76,"x_max":1442,"o":"m 47 861 l -76 861 l -76 972 l 333 972 l 333 861 l 167 861 l 406 108 l 410 108 l 628 750 l 588 861 l 463 861 l 463 972 l 883 972 l 883 861 l 699 861 l 957 108 l 963 108 l 1201 861 l 1035 861 l 1035 972 l 1442 972 l 1442 861 l 1319 861 l 1049 0 l 886 0 l 682 588 l 476 0 l 317 0 l 47 861 m 826 1090 l 683 1244 l 539 1090 l 415 1090 l 619 1313 l 747 1313 l 951 1090 l 826 1090 z "},"Ẅ":{"ha":1365,"x_min":-76,"x_max":1442,"o":"m 47 861 l -76 861 l -76 972 l 333 972 l 333 861 l 167 861 l 406 108 l 410 108 l 628 750 l 588 861 l 463 861 l 463 972 l 883 972 l 883 861 l 699 861 l 957 108 l 963 108 l 1201 861 l 1035 861 l 1035 972 l 1442 972 l 1442 861 l 1319 861 l 1049 0 l 886 0 l 682 588 l 476 0 l 317 0 l 47 861 m 493 1313 l 653 1313 l 579 1071 l 565 1071 l 493 1313 m 694 1313 l 854 1313 l 781 1071 l 767 1071 l 694 1313 z "},"Ẁ":{"ha":1365,"x_min":-76,"x_max":1442,"o":"m 47 861 l -76 861 l -76 972 l 333 972 l 333 861 l 167 861 l 406 108 l 410 108 l 628 750 l 588 861 l 463 861 l 463 972 l 883 972 l 883 861 l 699 861 l 957 108 l 963 108 l 1201 861 l 1035 861 l 1035 972 l 1442 972 l 1442 861 l 1319 861 l 1049 0 l 886 0 l 682 588 l 476 0 l 317 0 l 47 861 m 621 1090 l 524 1313 l 629 1313 l 721 1090 l 621 1090 z "},"X":{"ha":897,"x_min":-93,"x_max":989,"o":"m -93 110 l 46 110 l 365 492 l 54 861 l -83 861 l -83 972 l 379 972 l 379 861 l 194 861 l 449 550 l 706 861 l 521 861 l 521 972 l 981 972 l 981 861 l 842 861 l 532 493 l 853 110 l 989 110 l 989 0 l 521 0 l 521 110 l 706 110 l 447 426 l 189 110 l 379 110 l 379 0 l -93 0 l -93 110 z "},"Y":{"ha":914,"x_min":-89,"x_max":1003,"o":"m 206 110 l 397 110 l 397 369 l 38 861 l -89 861 l -89 972 l 356 972 l 356 861 l 172 861 l 460 461 l 746 861 l 561 861 l 561 972 l 1003 972 l 1003 861 l 876 861 l 518 369 l 518 110 l 710 110 l 710 0 l 206 0 l 206 110 z "},"Ý":{"ha":914,"x_min":-89,"x_max":1003,"o":"m 206 110 l 397 110 l 397 369 l 38 861 l -89 861 l -89 972 l 356 972 l 356 861 l 172 861 l 460 461 l 746 861 l 561 861 l 561 972 l 1003 972 l 1003 861 l 876 861 l 518 369 l 518 110 l 710 110 l 710 0 l 206 0 l 206 110 m 511 1313 l 617 1313 l 519 1090 l 419 1090 l 511 1313 z "},"Ŷ":{"ha":914,"x_min":-89,"x_max":1003,"o":"m 206 110 l 397 110 l 397 369 l 38 861 l -89 861 l -89 972 l 356 972 l 356 861 l 172 861 l 460 461 l 746 861 l 561 861 l 561 972 l 1003 972 l 1003 861 l 876 861 l 518 369 l 518 110 l 710 110 l 710 0 l 206 0 l 206 110 m 600 1090 l 457 1244 l 313 1090 l 189 1090 l 393 1313 l 521 1313 l 725 1090 l 600 1090 z "},"Ÿ":{"ha":914,"x_min":-89,"x_max":1003,"o":"m 206 110 l 397 110 l 397 369 l 38 861 l -89 861 l -89 972 l 356 972 l 356 861 l 172 861 l 460 461 l 746 861 l 561 861 l 561 972 l 1003 972 l 1003 861 l 876 861 l 518 369 l 518 110 l 710 110 l 710 0 l 206 0 l 206 110 m 268 1313 l 428 1313 l 354 1071 l 340 1071 l 268 1313 m 469 1313 l 629 1313 l 556 1071 l 542 1071 l 469 1313 z "},"Ỳ":{"ha":914,"x_min":-89,"x_max":1003,"o":"m 206 110 l 397 110 l 397 369 l 38 861 l -89 861 l -89 972 l 356 972 l 356 861 l 172 861 l 460 461 l 746 861 l 561 861 l 561 972 l 1003 972 l 1003 861 l 876 861 l 518 369 l 518 110 l 710 110 l 710 0 l 206 0 l 206 110 m 394 1090 l 297 1313 l 403 1313 l 494 1090 l 394 1090 z "},"Z":{"ha":861,"x_min":40,"x_max":822,"o":"m 635 861 l 179 861 l 176 860 l 176 656 l 68 656 l 68 1054 l 179 1054 l 179 972 l 785 972 l 785 871 l 190 110 l 706 110 q 708 113 708 110 l 708 326 l 822 326 l 822 -83 l 708 -83 l 708 0 l 40 0 l 40 100 l 635 861 z "},"Ź":{"ha":861,"x_min":40,"x_max":822,"o":"m 635 861 l 179 861 l 176 860 l 176 656 l 68 656 l 68 1054 l 179 1054 l 179 972 l 785 972 l 785 871 l 190 110 l 706 110 q 708 113 708 110 l 708 326 l 822 326 l 822 -83 l 708 -83 l 708 0 l 40 0 l 40 100 l 635 861 m 497 1313 l 603 1313 l 506 1090 l 406 1090 l 497 1313 z "},"Ž":{"ha":861,"x_min":40,"x_max":822,"o":"m 635 861 l 179 861 l 176 860 l 176 656 l 68 656 l 68 1054 l 179 1054 l 179 972 l 785 972 l 785 871 l 190 110 l 706 110 q 708 113 708 110 l 708 326 l 822 326 l 822 -83 l 708 -83 l 708 0 l 40 0 l 40 100 l 635 861 m 300 1313 l 443 1158 l 588 1313 l 711 1313 l 507 1090 l 379 1090 l 175 1313 l 300 1313 z "},"Ż":{"ha":861,"x_min":40,"x_max":822,"o":"m 635 861 l 179 861 l 176 860 l 176 656 l 68 656 l 68 1054 l 179 1054 l 179 972 l 785 972 l 785 871 l 190 110 l 706 110 q 708 113 708 110 l 708 326 l 822 326 l 822 -83 l 708 -83 l 708 0 l 40 0 l 40 100 l 635 861 m 354 1313 l 532 1313 l 450 1071 l 435 1071 l 354 1313 z "},"a":{"ha":817,"x_min":54,"x_max":793,"o":"m 276 -15 q 113 38 172 -15 q 54 178 54 90 q 406 399 54 382 q 576 465 576 408 q 526 578 576 536 q 399 621 476 621 q 269 587 329 621 q 208 497 208 553 l 208 450 l 113 450 l 113 729 l 207 729 l 207 632 q 297 688 242 667 q 414 708 351 708 q 611 634 538 708 q 685 435 685 560 l 685 100 l 793 100 l 793 0 l 585 0 l 585 147 q 462 29 546 74 q 276 -15 378 -15 m 307 76 q 447 110 383 76 q 548 198 511 143 q 585 317 585 253 l 585 360 q 525 335 564 343 q 418 321 486 326 q 222 280 283 311 q 160 185 160 249 q 199 104 160 132 q 307 76 238 76 z "},"á":{"ha":817,"x_min":54,"x_max":793,"o":"m 276 -15 q 113 38 172 -15 q 54 178 54 90 q 406 399 54 382 q 576 465 576 408 q 526 578 576 536 q 399 621 476 621 q 269 587 329 621 q 208 497 208 553 l 208 450 l 113 450 l 113 729 l 207 729 l 207 632 q 297 688 242 667 q 414 708 351 708 q 611 634 538 708 q 685 435 685 560 l 685 100 l 793 100 l 793 0 l 585 0 l 585 147 q 462 29 546 74 q 276 -15 378 -15 m 307 76 q 447 110 383 76 q 548 198 511 143 q 585 317 585 253 l 585 360 q 525 335 564 343 q 418 321 486 326 q 222 280 283 311 q 160 185 160 249 q 199 104 160 132 q 307 76 238 76 m 438 1035 l 543 1035 l 446 813 l 346 813 l 438 1035 z "},"ă":{"ha":817,"x_min":54,"x_max":793,"o":"m 276 -15 q 113 38 172 -15 q 54 178 54 90 q 406 399 54 382 q 576 465 576 408 q 526 578 576 536 q 399 621 476 621 q 269 587 329 621 q 208 497 208 553 l 208 450 l 113 450 l 113 729 l 207 729 l 207 632 q 297 688 242 667 q 414 708 351 708 q 611 634 538 708 q 685 435 685 560 l 685 100 l 793 100 l 793 0 l 585 0 l 585 147 q 462 29 546 74 q 276 -15 378 -15 m 307 76 q 447 110 383 76 q 548 198 511 143 q 585 317 585 253 l 585 360 q 525 335 564 343 q 418 321 486 326 q 222 280 283 311 q 160 185 160 249 q 199 104 160 132 q 307 76 238 76 z "},"â":{"ha":817,"x_min":54,"x_max":793,"o":"m 276 -15 q 113 38 172 -15 q 54 178 54 90 q 406 399 54 382 q 576 465 576 408 q 526 578 576 536 q 399 621 476 621 q 269 587 329 621 q 208 497 208 553 l 208 450 l 113 450 l 113 729 l 207 729 l 207 632 q 297 688 242 667 q 414 708 351 708 q 611 634 538 708 q 685 435 685 560 l 685 100 l 793 100 l 793 0 l 585 0 l 585 147 q 462 29 546 74 q 276 -15 378 -15 m 307 76 q 447 110 383 76 q 548 198 511 143 q 585 317 585 253 l 585 360 q 525 335 564 343 q 418 321 486 326 q 222 280 283 311 q 160 185 160 249 q 199 104 160 132 q 307 76 238 76 m 526 813 l 383 967 l 239 813 l 115 813 l 319 1035 l 447 1035 l 651 813 l 526 813 z "},"ä":{"ha":817,"x_min":54,"x_max":793,"o":"m 276 -15 q 113 38 172 -15 q 54 178 54 90 q 406 399 54 382 q 576 465 576 408 q 526 578 576 536 q 399 621 476 621 q 269 587 329 621 q 208 497 208 553 l 208 450 l 113 450 l 113 729 l 207 729 l 207 632 q 297 688 242 667 q 414 708 351 708 q 611 634 538 708 q 685 435 685 560 l 685 100 l 793 100 l 793 0 l 585 0 l 585 147 q 462 29 546 74 q 276 -15 378 -15 m 307 76 q 447 110 383 76 q 548 198 511 143 q 585 317 585 253 l 585 360 q 525 335 564 343 q 418 321 486 326 q 222 280 283 311 q 160 185 160 249 q 199 104 160 132 q 307 76 238 76 m 194 1035 l 354 1035 l 281 793 l 267 793 l 194 1035 m 396 1035 l 556 1035 l 482 793 l 468 793 l 396 1035 z "},"à":{"ha":817,"x_min":54,"x_max":793,"o":"m 276 -15 q 113 38 172 -15 q 54 178 54 90 q 406 399 54 382 q 576 465 576 408 q 526 578 576 536 q 399 621 476 621 q 269 587 329 621 q 208 497 208 553 l 208 450 l 113 450 l 113 729 l 207 729 l 207 632 q 297 688 242 667 q 414 708 351 708 q 611 634 538 708 q 685 435 685 560 l 685 100 l 793 100 l 793 0 l 585 0 l 585 147 q 462 29 546 74 q 276 -15 378 -15 m 307 76 q 447 110 383 76 q 548 198 511 143 q 585 317 585 253 l 585 360 q 525 335 564 343 q 418 321 486 326 q 222 280 283 311 q 160 185 160 249 q 199 104 160 132 q 307 76 238 76 m 321 813 l 224 1035 l 329 1035 l 421 813 l 321 813 z "},"ā":{"ha":817,"x_min":54,"x_max":793,"o":"m 276 -15 q 113 38 172 -15 q 54 178 54 90 q 406 399 54 382 q 576 465 576 408 q 526 578 576 536 q 399 621 476 621 q 269 587 329 621 q 208 497 208 553 l 208 450 l 113 450 l 113 729 l 207 729 l 207 632 q 297 688 242 667 q 414 708 351 708 q 611 634 538 708 q 685 435 685 560 l 685 100 l 793 100 l 793 0 l 585 0 l 585 147 q 462 29 546 74 q 276 -15 378 -15 m 307 76 q 447 110 383 76 q 548 198 511 143 q 585 317 585 253 l 585 360 q 525 335 564 343 q 418 321 486 326 q 222 280 283 311 q 160 185 160 249 q 199 104 160 132 q 307 76 238 76 m 589 968 l 589 872 l 178 872 l 178 968 l 589 968 z "},"ą":{"ha":817,"x_min":54,"x_max":793,"o":"m 276 -15 q 113 38 172 -15 q 54 178 54 90 q 406 399 54 382 q 576 465 576 408 q 526 578 576 536 q 399 621 476 621 q 269 587 329 621 q 208 497 208 553 l 208 450 l 113 450 l 113 729 l 207 729 l 207 632 q 297 688 242 667 q 414 708 351 708 q 611 634 538 708 q 685 435 685 560 l 685 100 l 793 100 l 793 0 l 585 0 l 585 147 q 462 29 546 74 q 276 -15 378 -15 m 307 76 q 447 110 383 76 q 548 198 511 143 q 585 317 585 253 l 585 360 q 525 335 564 343 q 418 321 486 326 q 222 280 283 311 q 160 185 160 249 q 199 104 160 132 q 307 76 238 76 z "},"å":{"ha":817,"x_min":54,"x_max":793,"o":"m 276 -15 q 113 38 172 -15 q 54 178 54 90 q 406 399 54 382 q 576 465 576 408 q 526 578 576 536 q 399 621 476 621 q 269 587 329 621 q 208 497 208 553 l 208 450 l 113 450 l 113 729 l 207 729 l 207 632 q 297 688 242 667 q 414 708 351 708 q 611 634 538 708 q 685 435 685 560 l 685 100 l 793 100 l 793 0 l 585 0 l 585 147 q 462 29 546 74 q 276 -15 378 -15 m 307 76 q 447 110 383 76 q 548 198 511 143 q 585 317 585 253 l 585 360 q 525 335 564 343 q 418 321 486 326 q 222 280 283 311 q 160 185 160 249 q 199 104 160 132 q 307 76 238 76 m 382 792 q 256 844 307 792 q 204 969 204 896 q 256 1097 204 1044 q 382 1150 307 1150 q 472 1126 431 1150 q 538 1060 514 1101 q 563 969 563 1018 q 538 880 563 921 q 472 815 514 839 q 382 792 431 792 m 383 874 q 452 902 424 874 q 481 971 481 931 q 452 1040 481 1011 q 383 1068 424 1068 q 314 1040 342 1068 q 286 971 286 1011 q 314 901 286 929 q 383 874 342 874 z "},"ã":{"ha":817,"x_min":54,"x_max":793,"o":"m 276 -15 q 113 38 172 -15 q 54 178 54 90 q 406 399 54 382 q 576 465 576 408 q 526 578 576 536 q 399 621 476 621 q 269 587 329 621 q 208 497 208 553 l 208 450 l 113 450 l 113 729 l 207 729 l 207 632 q 297 688 242 667 q 414 708 351 708 q 611 634 538 708 q 685 435 685 560 l 685 100 l 793 100 l 793 0 l 585 0 l 585 147 q 462 29 546 74 q 276 -15 378 -15 m 307 76 q 447 110 383 76 q 548 198 511 143 q 585 317 585 253 l 585 360 q 525 335 564 343 q 418 321 486 326 q 222 280 283 311 q 160 185 160 249 q 199 104 160 132 q 307 76 238 76 m 117 851 q 155 965 117 924 q 253 1007 193 1007 q 315 998 286 1007 q 386 969 344 989 q 444 946 424 953 q 488 939 464 939 q 537 958 517 939 q 557 1003 557 976 l 650 1003 q 612 889 650 931 q 514 847 574 847 q 451 856 481 847 q 381 885 422 865 q 322 908 343 901 q 279 915 301 915 q 231 897 250 915 q 211 851 211 879 l 117 851 z "},"æ":{"ha":1351,"x_min":54,"x_max":1278,"o":"m 1146 68 q 1051 8 1110 31 q 922 -14 993 -14 q 745 35 822 -14 q 628 169 668 83 q 498 35 585 85 q 307 -15 411 -15 q 119 37 183 -15 q 54 178 54 89 q 406 399 54 382 q 576 465 576 408 q 526 578 576 536 q 399 621 476 621 q 269 587 329 621 q 208 497 208 553 l 208 450 l 113 450 l 113 729 l 207 729 l 207 632 q 297 688 242 667 q 414 708 351 708 q 561 668 500 708 q 649 556 622 628 q 765 667 692 626 q 928 708 839 708 q 1109 663 1029 708 q 1233 534 1189 617 q 1278 347 1278 451 l 1276 300 l 678 300 q 761 140 692 201 q 933 79 831 79 q 1030 97 983 79 q 1105 144 1076 115 q 1133 201 1133 172 l 1133 226 l 1240 226 l 1240 -15 l 1146 -15 l 1146 68 m 1169 392 q 1092 553 1158 492 q 925 614 1025 614 q 759 551 828 614 q 679 392 690 488 l 1169 392 m 311 76 q 449 110 386 76 q 549 198 513 143 q 585 317 585 253 l 585 360 q 525 335 564 343 q 418 321 486 326 q 222 280 283 311 q 160 185 160 249 q 201 104 160 132 q 311 76 242 76 z "},"b":{"ha":892,"x_min":28,"x_max":835,"o":"m 507 -14 q 356 24 422 -14 q 254 124 289 61 l 254 0 l 153 0 l 153 871 l 28 871 l 28 972 l 253 972 l 253 568 q 355 671 289 633 q 507 708 421 708 q 674 661 599 708 q 792 531 749 614 q 835 347 835 449 q 792 163 835 244 q 675 33 750 81 q 507 -14 600 -14 m 485 86 q 608 120 553 86 q 694 214 663 154 q 726 347 726 274 q 694 481 726 421 q 608 574 663 540 q 485 608 553 608 q 365 574 419 608 q 278 481 310 540 q 247 347 247 421 q 278 214 247 274 q 365 120 310 154 q 485 86 419 86 z "},"c":{"ha":800,"x_min":57,"x_max":711,"o":"m 617 76 q 523 10 581 35 q 397 -14 465 -14 q 224 33 301 -14 q 101 163 146 81 q 57 347 57 246 q 101 531 57 449 q 224 661 146 614 q 397 708 301 708 q 515 686 460 708 q 603 629 569 664 l 603 744 l 697 744 l 697 436 l 597 436 l 597 483 q 567 546 594 517 q 495 592 539 575 q 406 610 451 610 q 283 576 338 610 q 196 481 228 542 q 164 347 164 421 q 196 214 164 274 q 283 120 228 154 q 406 86 338 86 q 504 105 458 86 q 579 156 550 124 q 611 228 608 189 l 611 279 l 711 279 l 711 -15 l 617 -15 l 617 76 z "},"ć":{"ha":800,"x_min":57,"x_max":711,"o":"m 617 76 q 523 10 581 35 q 397 -14 465 -14 q 224 33 301 -14 q 101 163 146 81 q 57 347 57 246 q 101 531 57 449 q 224 661 146 614 q 397 708 301 708 q 515 686 460 708 q 603 629 569 664 l 603 744 l 697 744 l 697 436 l 597 436 l 597 483 q 567 546 594 517 q 495 592 539 575 q 406 610 451 610 q 283 576 338 610 q 196 481 228 542 q 164 347 164 421 q 196 214 164 274 q 283 120 228 154 q 406 86 338 86 q 504 105 458 86 q 579 156 550 124 q 611 228 608 189 l 611 279 l 711 279 l 711 -15 l 617 -15 l 617 76 m 467 1035 l 572 1035 l 475 813 l 375 813 l 467 1035 z "},"č":{"ha":800,"x_min":57,"x_max":711,"o":"m 617 76 q 523 10 581 35 q 397 -14 465 -14 q 224 33 301 -14 q 101 163 146 81 q 57 347 57 246 q 101 531 57 449 q 224 661 146 614 q 397 708 301 708 q 515 686 460 708 q 603 629 569 664 l 603 744 l 697 744 l 697 436 l 597 436 l 597 483 q 567 546 594 517 q 495 592 539 575 q 406 610 451 610 q 283 576 338 610 q 196 481 228 542 q 164 347 164 421 q 196 214 164 274 q 283 120 228 154 q 406 86 338 86 q 504 105 458 86 q 579 156 550 124 q 611 228 608 189 l 611 279 l 711 279 l 711 -15 l 617 -15 l 617 76 m 269 1035 l 413 881 l 557 1035 l 681 1035 l 476 813 l 349 813 l 144 1035 l 269 1035 z "},"ç":{"ha":800,"x_min":57,"x_max":711,"o":"m 617 76 q 523 10 581 35 q 397 -14 465 -14 q 224 33 301 -14 q 101 163 146 81 q 57 347 57 246 q 101 531 57 449 q 224 661 146 614 q 397 708 301 708 q 515 686 460 708 q 603 629 569 664 l 603 744 l 697 744 l 697 436 l 597 436 l 597 483 q 567 546 594 517 q 495 592 539 575 q 406 610 451 610 q 283 576 338 610 q 196 481 228 542 q 164 347 164 421 q 196 214 164 274 q 283 120 228 154 q 406 86 338 86 q 504 105 458 86 q 579 156 550 124 q 611 228 608 189 l 611 279 l 711 279 l 711 -15 l 617 -15 l 617 76 m 267 -340 l 364 -118 l 464 -118 l 372 -340 l 267 -340 z "},"ċ":{"ha":800,"x_min":57,"x_max":711,"o":"m 617 76 q 523 10 581 35 q 397 -14 465 -14 q 224 33 301 -14 q 101 163 146 81 q 57 347 57 246 q 101 531 57 449 q 224 661 146 614 q 397 708 301 708 q 515 686 460 708 q 603 629 569 664 l 603 744 l 697 744 l 697 436 l 597 436 l 597 483 q 567 546 594 517 q 495 592 539 575 q 406 610 451 610 q 283 576 338 610 q 196 481 228 542 q 164 347 164 421 q 196 214 164 274 q 283 120 228 154 q 406 86 338 86 q 504 105 458 86 q 579 156 550 124 q 611 228 608 189 l 611 279 l 711 279 l 711 -15 l 617 -15 l 617 76 m 324 1035 l 501 1035 l 419 793 l 404 793 l 324 1035 z "},"d":{"ha":889,"x_min":57,"x_max":861,"o":"m 385 -14 q 217 33 292 -14 q 100 162 143 79 q 57 346 57 244 q 100 528 57 447 q 217 657 143 610 q 385 704 292 704 q 539 667 475 704 q 639 564 603 629 l 639 871 l 513 871 l 513 972 l 740 972 l 740 100 l 861 100 l 861 0 l 647 0 l 647 132 q 542 26 611 65 q 385 -14 474 -14 m 406 86 q 527 120 472 86 q 613 214 582 154 q 644 347 644 274 q 613 481 644 421 q 527 574 582 540 q 406 608 472 608 q 284 574 339 608 q 197 481 229 540 q 165 347 165 421 q 197 214 165 274 q 284 120 229 154 q 406 86 339 86 z "},"ð":{"ha":856,"x_min":57,"x_max":799,"o":"m 704 619 q 799 347 799 478 q 751 163 799 246 q 617 33 703 81 q 426 -14 532 -14 q 238 33 322 -14 q 106 163 154 81 q 57 346 57 244 q 105 528 57 446 q 236 657 153 610 q 422 704 319 704 q 521 692 475 704 l 513 704 l 456 785 l 228 785 l 228 871 l 396 871 l 315 986 l 440 986 l 524 871 l 717 871 l 717 785 l 585 785 l 704 619 m 428 90 q 559 124 500 90 q 652 217 618 158 q 686 347 686 275 q 652 478 686 419 q 559 572 618 538 q 428 606 500 606 q 297 572 356 606 q 205 478 239 538 q 171 347 171 419 q 205 217 171 275 q 297 124 239 158 q 428 90 356 90 z "},"ď":{"ha":889,"x_min":57,"x_max":933,"o":"m 385 -14 q 217 33 292 -14 q 100 162 143 79 q 57 346 57 244 q 100 528 57 447 q 217 657 143 610 q 385 704 292 704 q 539 667 475 704 q 639 564 603 629 l 639 871 l 513 871 l 513 972 l 740 972 l 740 100 l 861 100 l 861 0 l 647 0 l 647 132 q 542 26 611 65 q 385 -14 474 -14 m 406 86 q 527 120 472 86 q 613 214 582 154 q 644 347 644 274 q 613 481 644 421 q 527 574 582 540 q 406 608 472 608 q 284 574 339 608 q 197 481 229 540 q 165 347 165 421 q 197 214 165 274 q 284 120 229 154 q 406 86 339 86 m 832 972 l 933 972 l 926 750 l 832 750 l 832 972 z "},"đ":{"ha":889,"x_min":57,"x_max":861,"o":"m 385 -14 q 217 31 292 -14 q 100 157 143 76 q 57 336 57 238 q 100 513 57 433 q 218 639 143 593 q 385 685 293 685 q 539 653 475 685 q 639 564 603 621 l 639 732 l 383 732 l 383 818 l 639 818 l 639 871 l 513 871 l 513 972 l 740 972 l 740 818 l 856 818 l 856 732 l 740 732 l 740 100 l 861 100 l 861 0 l 647 0 l 647 132 q 542 26 611 65 q 385 -14 474 -14 m 406 86 q 527 119 472 86 q 613 210 582 153 q 644 338 644 268 q 613 465 644 407 q 527 556 582 522 q 406 589 472 589 q 284 556 339 589 q 197 465 229 522 q 165 338 165 407 q 197 210 165 268 q 284 119 229 153 q 406 86 339 86 z "},"e":{"ha":835,"x_min":57,"x_max":761,"o":"m 629 68 q 535 9 594 32 q 406 -14 476 -14 q 228 30 307 -14 q 103 155 149 74 q 57 343 57 236 q 104 532 57 449 q 232 662 151 615 q 411 708 313 708 q 592 663 513 708 q 717 534 672 617 q 761 347 761 451 l 760 300 l 161 300 q 244 140 175 201 q 417 79 314 79 q 513 97 467 79 q 588 144 560 115 q 617 201 617 172 l 617 226 l 724 226 l 724 -15 l 629 -15 l 629 68 m 653 392 q 575 553 642 492 q 408 614 508 614 q 242 551 311 614 q 163 392 174 488 l 653 392 z "},"é":{"ha":835,"x_min":57,"x_max":761,"o":"m 629 68 q 535 9 594 32 q 406 -14 476 -14 q 228 30 307 -14 q 103 155 149 74 q 57 343 57 236 q 104 532 57 449 q 232 662 151 615 q 411 708 313 708 q 592 663 513 708 q 717 534 672 617 q 761 347 761 451 l 760 300 l 161 300 q 244 140 175 201 q 417 79 314 79 q 513 97 467 79 q 588 144 560 115 q 617 201 617 172 l 617 226 l 724 226 l 724 -15 l 629 -15 l 629 68 m 653 392 q 575 553 642 492 q 408 614 508 614 q 242 551 311 614 q 163 392 174 488 l 653 392 m 458 1035 l 564 1035 l 467 813 l 367 813 l 458 1035 z "},"ě":{"ha":835,"x_min":57,"x_max":761,"o":"m 629 68 q 535 9 594 32 q 406 -14 476 -14 q 228 30 307 -14 q 103 155 149 74 q 57 343 57 236 q 104 532 57 449 q 232 662 151 615 q 411 708 313 708 q 592 663 513 708 q 717 534 672 617 q 761 347 761 451 l 760 300 l 161 300 q 244 140 175 201 q 417 79 314 79 q 513 97 467 79 q 588 144 560 115 q 617 201 617 172 l 617 226 l 724 226 l 724 -15 l 629 -15 l 629 68 m 653 392 q 575 553 642 492 q 408 614 508 614 q 242 551 311 614 q 163 392 174 488 l 653 392 m 261 1035 l 404 881 l 549 1035 l 672 1035 l 468 813 l 340 813 l 136 1035 l 261 1035 z "},"ê":{"ha":835,"x_min":57,"x_max":761,"o":"m 629 68 q 535 9 594 32 q 406 -14 476 -14 q 228 30 307 -14 q 103 155 149 74 q 57 343 57 236 q 104 532 57 449 q 232 662 151 615 q 411 708 313 708 q 592 663 513 708 q 717 534 672 617 q 761 347 761 451 l 760 300 l 161 300 q 244 140 175 201 q 417 79 314 79 q 513 97 467 79 q 588 144 560 115 q 617 201 617 172 l 617 226 l 724 226 l 724 -15 l 629 -15 l 629 68 m 653 392 q 575 553 642 492 q 408 614 508 614 q 242 551 311 614 q 163 392 174 488 l 653 392 m 547 813 l 404 967 l 260 813 l 136 813 l 340 1035 l 468 1035 l 672 813 l 547 813 z "},"ë":{"ha":835,"x_min":57,"x_max":761,"o":"m 629 68 q 535 9 594 32 q 406 -14 476 -14 q 228 30 307 -14 q 103 155 149 74 q 57 343 57 236 q 104 532 57 449 q 232 662 151 615 q 411 708 313 708 q 592 663 513 708 q 717 534 672 617 q 761 347 761 451 l 760 300 l 161 300 q 244 140 175 201 q 417 79 314 79 q 513 97 467 79 q 588 144 560 115 q 617 201 617 172 l 617 226 l 724 226 l 724 -15 l 629 -15 l 629 68 m 653 392 q 575 553 642 492 q 408 614 508 614 q 242 551 311 614 q 163 392 174 488 l 653 392 m 215 1035 l 375 1035 l 301 793 l 288 793 l 215 1035 m 417 1035 l 576 1035 l 503 793 l 489 793 l 417 1035 z "},"ė":{"ha":835,"x_min":57,"x_max":761,"o":"m 629 68 q 535 9 594 32 q 406 -14 476 -14 q 228 30 307 -14 q 103 155 149 74 q 57 343 57 236 q 104 532 57 449 q 232 662 151 615 q 411 708 313 708 q 592 663 513 708 q 717 534 672 617 q 761 347 761 451 l 760 300 l 161 300 q 244 140 175 201 q 417 79 314 79 q 513 97 467 79 q 588 144 560 115 q 617 201 617 172 l 617 226 l 724 226 l 724 -15 l 629 -15 l 629 68 m 653 392 q 575 553 642 492 q 408 614 508 614 q 242 551 311 614 q 163 392 174 488 l 653 392 m 315 1035 l 493 1035 l 411 793 l 396 793 l 315 1035 z "},"è":{"ha":835,"x_min":57,"x_max":761,"o":"m 629 68 q 535 9 594 32 q 406 -14 476 -14 q 228 30 307 -14 q 103 155 149 74 q 57 343 57 236 q 104 532 57 449 q 232 662 151 615 q 411 708 313 708 q 592 663 513 708 q 717 534 672 617 q 761 347 761 451 l 760 300 l 161 300 q 244 140 175 201 q 417 79 314 79 q 513 97 467 79 q 588 144 560 115 q 617 201 617 172 l 617 226 l 724 226 l 724 -15 l 629 -15 l 629 68 m 653 392 q 575 553 642 492 q 408 614 508 614 q 242 551 311 614 q 163 392 174 488 l 653 392 m 342 813 l 244 1035 l 350 1035 l 442 813 l 342 813 z "},"ē":{"ha":835,"x_min":57,"x_max":761,"o":"m 629 68 q 535 9 594 32 q 406 -14 476 -14 q 228 30 307 -14 q 103 155 149 74 q 57 343 57 236 q 104 532 57 449 q 232 662 151 615 q 411 708 313 708 q 592 663 513 708 q 717 534 672 617 q 761 347 761 451 l 760 300 l 161 300 q 244 140 175 201 q 417 79 314 79 q 513 97 467 79 q 588 144 560 115 q 617 201 617 172 l 617 226 l 724 226 l 724 -15 l 629 -15 l 629 68 m 653 392 q 575 553 642 492 q 408 614 508 614 q 242 551 311 614 q 163 392 174 488 l 653 392 m 610 968 l 610 872 l 199 872 l 199 968 l 610 968 z "},"ę":{"ha":835,"x_min":57,"x_max":761,"o":"m 629 68 q 535 9 594 32 q 406 -14 476 -14 q 228 30 307 -14 q 103 155 149 74 q 57 343 57 236 q 104 532 57 449 q 232 662 151 615 q 411 708 313 708 q 592 663 513 708 q 717 534 672 617 q 761 347 761 451 l 760 300 l 161 300 q 244 140 175 201 q 417 79 314 79 q 513 97 467 79 q 588 144 560 115 q 617 201 617 172 l 617 226 l 724 226 l 724 -15 l 629 -15 l 629 68 m 653 392 q 575 553 642 492 q 408 614 508 614 q 242 551 311 614 q 163 392 174 488 l 653 392 z "},"f":{"ha":518,"x_min":28,"x_max":653,"o":"m 150 100 l 150 594 l 28 594 l 28 694 l 150 694 l 150 761 q 216 936 150 872 q 389 1000 282 1000 q 490 983 442 1000 q 558 942 539 967 l 558 1026 l 653 1026 l 653 761 l 558 761 l 558 794 q 513 872 558 842 q 400 903 468 903 q 287 866 328 903 q 246 764 246 829 l 246 694 l 550 694 l 550 594 l 251 594 l 251 567 l 251 100 l 433 100 l 433 0 l 28 0 l 28 100 l 150 100 z "},"g":{"ha":907,"x_min":28,"x_max":871,"o":"m 482 -292 q 201 -233 304 -292 q 99 -71 99 -174 q 145 40 99 -7 q 278 107 192 86 q 28 283 28 136 q 60 362 28 326 q 143 397 93 397 q 167 393 157 397 q 144 481 144 432 q 222 633 144 575 q 443 700 300 690 l 443 803 l 293 803 l 293 900 l 690 900 l 690 803 l 542 803 l 542 700 q 772 635 693 693 q 851 481 851 578 q 806 360 851 411 q 681 282 761 310 q 497 254 600 254 q 362 268 411 254 q 263 306 313 282 q 216 326 235 319 q 172 333 197 333 q 136 320 150 333 q 122 289 122 307 q 163 219 122 243 q 265 185 203 194 q 438 168 328 175 l 539 160 q 779 94 688 151 q 871 -64 871 36 q 823 -185 871 -133 q 688 -264 775 -236 q 482 -292 600 -292 m 497 349 q 676 385 610 349 q 742 483 742 422 q 676 583 742 546 q 497 619 610 619 q 319 583 385 619 q 254 483 254 546 q 320 385 254 422 q 497 349 386 349 m 483 -197 q 686 -160 611 -197 q 761 -62 761 -124 q 686 39 761 1 q 483 76 611 76 q 283 39 357 76 q 208 -62 208 1 q 283 -160 208 -124 q 483 -197 357 -197 z "},"ğ":{"ha":907,"x_min":28,"x_max":871,"o":"m 482 -292 q 201 -233 304 -292 q 99 -71 99 -174 q 145 40 99 -7 q 278 107 192 86 q 28 283 28 136 q 60 362 28 326 q 143 397 93 397 q 167 393 157 397 q 144 481 144 432 q 235 641 144 579 q 494 703 325 703 q 762 642 672 703 q 851 481 851 582 q 806 360 851 411 q 681 282 761 310 q 497 254 600 254 q 362 268 411 254 q 263 306 313 282 q 216 326 235 319 q 172 333 197 333 q 136 320 150 333 q 122 289 122 307 q 163 219 122 243 q 265 185 203 194 q 438 168 328 175 l 539 160 q 779 94 688 151 q 871 -64 871 36 q 823 -185 871 -133 q 688 -264 775 -236 q 482 -292 600 -292 m 497 349 q 676 385 610 349 q 742 483 742 422 q 676 583 742 546 q 497 619 610 619 q 319 583 385 619 q 254 483 254 546 q 320 385 254 422 q 497 349 386 349 m 483 -197 q 686 -160 611 -197 q 761 -62 761 -124 q 686 39 761 1 q 483 76 611 76 q 283 39 357 76 q 208 -62 208 1 q 283 -160 208 -124 q 483 -197 357 -197 z "},"ģ":{"ha":907,"x_min":28,"x_max":871,"o":"m 482 -292 q 201 -233 304 -292 q 99 -71 99 -174 q 145 40 99 -7 q 278 107 192 86 q 28 283 28 136 q 60 362 28 326 q 143 397 93 397 q 167 393 157 397 q 144 481 144 432 q 235 641 144 579 q 494 703 325 703 q 762 642 672 703 q 851 481 851 582 q 806 360 851 411 q 681 282 761 310 q 497 254 600 254 q 362 268 411 254 q 263 306 313 282 q 216 326 235 319 q 172 333 197 333 q 136 320 150 333 q 122 289 122 307 q 163 219 122 243 q 265 185 203 194 q 438 168 328 175 l 539 160 q 779 94 688 151 q 871 -64 871 36 q 823 -185 871 -133 q 688 -264 775 -236 q 482 -292 600 -292 m 497 349 q 676 385 610 349 q 742 483 742 422 q 676 583 742 546 q 497 619 610 619 q 319 583 385 619 q 254 483 254 546 q 320 385 254 422 q 497 349 386 349 m 483 -197 q 686 -160 611 -197 q 761 -62 761 -124 q 686 39 761 1 q 483 76 611 76 q 283 39 357 76 q 208 -62 208 1 q 283 -160 208 -124 q 483 -197 357 -197 m 550 1035 q 517 976 532 1008 q 500 924 501 943 l 503 924 q 550 904 532 924 q 568 863 568 885 q 546 810 568 832 q 490 789 524 789 q 432 810 456 789 q 408 869 408 832 q 433 959 408 914 q 490 1035 457 1004 l 550 1035 z "},"ġ":{"ha":907,"x_min":28,"x_max":871,"o":"m 482 -292 q 201 -233 304 -292 q 99 -71 99 -174 q 145 40 99 -7 q 278 107 192 86 q 28 283 28 136 q 60 362 28 326 q 143 397 93 397 q 167 393 157 397 q 144 481 144 432 q 235 641 144 579 q 494 703 325 703 q 762 642 672 703 q 851 481 851 582 q 806 360 851 411 q 681 282 761 310 q 497 254 600 254 q 362 268 411 254 q 263 306 313 282 q 216 326 235 319 q 172 333 197 333 q 136 320 150 333 q 122 289 122 307 q 163 219 122 243 q 265 185 203 194 q 438 168 328 175 l 539 160 q 779 94 688 151 q 871 -64 871 36 q 823 -185 871 -133 q 688 -264 775 -236 q 482 -292 600 -292 m 497 349 q 676 385 610 349 q 742 483 742 422 q 676 583 742 546 q 497 619 610 619 q 319 583 385 619 q 254 483 254 546 q 320 385 254 422 q 497 349 386 349 m 483 -197 q 686 -160 611 -197 q 761 -62 761 -124 q 686 39 761 1 q 483 76 611 76 q 283 39 357 76 q 208 -62 208 1 q 283 -160 208 -124 q 483 -197 357 -197 m 401 1035 l 579 1035 l 497 793 l 482 793 l 401 1035 z "},"h":{"ha":908,"x_min":28,"x_max":886,"o":"m 153 100 l 153 871 l 28 871 l 28 972 l 253 972 l 253 568 q 347 671 286 633 q 482 708 407 708 q 697 619 618 708 q 776 378 776 531 l 776 100 l 886 100 l 886 0 l 550 0 l 550 100 l 675 100 l 675 365 q 617 542 675 476 q 463 608 560 608 q 356 576 404 608 q 281 489 308 544 q 253 365 253 433 l 253 100 l 386 100 l 386 0 l 29 0 l 29 100 l 153 100 z "},"ħ":{"ha":908,"x_min":28,"x_max":886,"o":"m 153 100 l 153 732 l 28 732 l 28 818 l 153 818 l 153 871 l 28 871 l 28 972 l 253 972 l 253 818 l 511 818 l 511 732 l 253 732 l 253 540 q 347 642 286 604 q 482 679 407 679 q 697 596 618 679 q 776 368 776 513 l 776 100 l 886 100 l 886 0 l 550 0 l 550 100 l 675 100 l 675 356 q 618 519 675 458 q 463 579 561 579 q 356 550 404 579 q 281 469 308 521 q 253 356 253 418 l 253 100 l 386 100 l 386 0 l 29 0 l 29 100 l 153 100 z "},"i":{"ha":426,"x_min":28,"x_max":408,"o":"m 28 100 l 168 100 l 168 594 l 28 594 l 28 694 l 269 694 l 269 100 l 408 100 l 408 0 l 28 0 l 28 100 m 110 1035 l 288 1035 l 206 793 l 190 793 l 110 1035 z "},"ı":{"ha":426,"x_min":28,"x_max":408,"o":"m 28 100 l 168 100 l 168 594 l 28 594 l 28 694 l 269 694 l 269 100 l 408 100 l 408 0 l 28 0 l 28 100 z "},"í":{"ha":426,"x_min":28,"x_max":408,"o":"m 28 100 l 168 100 l 168 594 l 28 594 l 28 694 l 269 694 l 269 100 l 408 100 l 408 0 l 28 0 l 28 100 m 253 1035 l 358 1035 l 261 813 l 161 813 l 253 1035 z "},"î":{"ha":426,"x_min":-69,"x_max":467,"o":"m 28 100 l 168 100 l 168 594 l 28 594 l 28 694 l 269 694 l 269 100 l 408 100 l 408 0 l 28 0 l 28 100 m 342 813 l 199 967 l 54 813 l -69 813 l 135 1035 l 263 1035 l 467 813 l 342 813 z "},"ï":{"ha":426,"x_min":10,"x_max":408,"o":"m 28 100 l 168 100 l 168 594 l 28 594 l 28 694 l 269 694 l 269 100 l 408 100 l 408 0 l 28 0 l 28 100 m 10 1035 l 169 1035 l 96 793 l 82 793 l 10 1035 m 211 1035 l 371 1035 l 297 793 l 283 793 l 211 1035 z "},"ì":{"ha":426,"x_min":28,"x_max":408,"o":"m 28 100 l 168 100 l 168 594 l 28 594 l 28 694 l 269 694 l 269 100 l 408 100 l 408 0 l 28 0 l 28 100 m 136 813 l 39 1035 l 144 1035 l 236 813 l 136 813 z "},"ī":{"ha":426,"x_min":-7,"x_max":408,"o":"m 28 100 l 168 100 l 168 594 l 28 594 l 28 694 l 269 694 l 269 100 l 408 100 l 408 0 l 28 0 l 28 100 m 404 968 l 404 872 l -7 872 l -7 968 l 404 968 z "},"į":{"ha":426,"x_min":28,"x_max":408,"o":"m 28 100 l 168 100 l 168 594 l 28 594 l 28 694 l 269 694 l 269 100 l 408 100 l 408 0 l 28 0 l 28 100 m 110 1035 l 288 1035 l 206 793 l 190 793 l 110 1035 z "},"j":{"ha":426,"x_min":-133,"x_max":321,"o":"m -42 -47 l -42 -67 q -8 -161 -42 -124 q 78 -199 26 -199 q 156 -162 125 -199 q 188 -67 188 -125 l 188 147 l 188 594 l 26 594 l 26 694 l 289 694 l 289 -79 q 264 -189 289 -140 q 197 -265 239 -237 q 104 -292 154 -292 q 19 -269 58 -292 q -39 -215 -21 -246 l -39 -292 l -133 -292 l -133 -47 l -42 -47 m 143 1035 l 321 1035 l 239 793 l 224 793 l 143 1035 z "},"ȷ":{"ha":426,"x_min":-133,"x_max":289,"o":"m -42 -47 l -42 -67 q -8 -161 -42 -124 q 78 -199 26 -199 q 156 -162 125 -199 q 188 -67 188 -125 l 188 147 l 188 594 l 26 594 l 26 694 l 289 694 l 289 -79 q 264 -189 289 -140 q 197 -265 239 -237 q 104 -292 154 -292 q 19 -269 58 -292 q -39 -215 -21 -246 l -39 -292 l -133 -292 l -133 -47 l -42 -47 z "},"k":{"ha":833,"x_min":28,"x_max":821,"o":"m 28 100 l 150 100 l 150 871 l 28 871 l 28 972 l 251 972 l 251 394 l 379 394 l 554 594 l 454 594 l 454 694 l 776 694 l 776 594 l 674 594 l 463 354 l 689 100 l 821 100 l 821 0 l 446 0 l 446 100 l 557 100 l 374 300 l 251 300 l 251 100 l 356 100 l 356 0 l 28 0 l 28 100 z "},"ķ":{"ha":833,"x_min":28,"x_max":821,"o":"m 28 100 l 150 100 l 150 871 l 28 871 l 28 972 l 251 972 l 251 394 l 379 394 l 554 594 l 454 594 l 454 694 l 776 694 l 776 594 l 674 594 l 463 354 l 689 100 l 821 100 l 821 0 l 446 0 l 446 100 l 557 100 l 374 300 l 251 300 l 251 100 l 356 100 l 356 0 l 28 0 l 28 100 m 357 -340 q 390 -281 375 -314 q 407 -229 406 -249 l 404 -229 q 357 -210 375 -229 q 339 -168 339 -190 q 360 -115 339 -136 q 417 -94 382 -94 q 475 -116 451 -94 q 499 -175 499 -137 q 474 -265 499 -219 q 417 -340 450 -310 l 357 -340 z "},"l":{"ha":447,"x_min":28,"x_max":421,"o":"m 31 100 l 171 100 l 171 871 l 28 871 l 28 972 l 271 972 l 271 100 l 421 100 l 421 0 l 31 0 l 31 100 z "},"ĺ":{"ha":447,"x_min":28,"x_max":421,"o":"m 31 100 l 171 100 l 171 871 l 28 871 l 28 972 l 271 972 l 271 100 l 421 100 l 421 0 l 31 0 l 31 100 m 276 1313 l 382 1313 l 285 1090 l 185 1090 l 276 1313 z "},"ľ":{"ha":447,"x_min":28,"x_max":464,"o":"m 31 100 l 171 100 l 171 871 l 28 871 l 28 972 l 271 972 l 271 100 l 421 100 l 421 0 l 31 0 l 31 100 m 363 972 l 464 972 l 457 750 l 363 750 l 363 972 z "},"ļ":{"ha":447,"x_min":28,"x_max":421,"o":"m 31 100 l 171 100 l 171 871 l 28 871 l 28 972 l 271 972 l 271 100 l 421 100 l 421 0 l 31 0 l 31 100 m 164 -340 q 197 -281 182 -314 q 214 -229 213 -249 l 211 -229 q 164 -210 182 -229 q 146 -168 146 -190 q 167 -115 146 -136 q 224 -94 189 -94 q 282 -116 258 -94 q 306 -175 306 -137 q 281 -265 306 -219 q 224 -340 257 -310 l 164 -340 z "},"ł":{"ha":449,"x_min":28,"x_max":421,"o":"m 31 100 l 171 100 l 171 344 l 31 265 l 31 365 l 171 444 l 171 871 l 28 871 l 28 972 l 271 972 l 271 501 l 421 588 l 421 488 l 271 401 l 271 100 l 421 100 l 421 0 l 31 0 l 31 100 z "},"m":{"ha":1385,"x_min":28,"x_max":1363,"o":"m 150 100 l 150 594 l 28 594 l 28 694 l 242 694 l 242 575 q 337 672 276 636 q 471 708 397 708 q 622 666 561 708 q 710 543 682 624 q 809 663 740 617 q 963 708 878 708 q 1178 622 1103 708 q 1254 378 1254 536 l 1254 100 l 1363 100 l 1363 0 l 1019 0 l 1019 100 l 1151 100 l 1151 365 q 1100 545 1151 482 q 953 608 1049 608 q 851 576 897 608 q 778 489 804 544 q 751 365 751 433 l 751 100 l 883 100 l 883 0 l 518 0 l 518 100 l 650 100 l 650 365 q 599 545 650 482 q 451 608 547 608 q 350 576 396 608 q 278 489 304 544 q 251 365 251 433 l 251 100 l 382 100 l 382 0 l 28 0 l 28 100 l 150 100 z "},"n":{"ha":907,"x_min":28,"x_max":885,"o":"m 150 100 l 150 594 l 28 594 l 28 694 l 242 694 l 242 572 q 340 672 278 635 q 481 708 403 708 q 696 619 617 708 q 775 378 775 531 l 775 100 l 885 100 l 885 0 l 539 0 l 539 100 l 674 100 l 674 365 q 616 542 674 476 q 461 608 558 608 q 355 576 403 608 q 279 489 307 544 q 251 365 251 433 l 251 100 l 385 100 l 385 0 l 28 0 l 28 100 l 150 100 z "},"ń":{"ha":907,"x_min":28,"x_max":885,"o":"m 150 100 l 150 594 l 28 594 l 28 694 l 242 694 l 242 572 q 340 672 278 635 q 481 708 403 708 q 696 619 617 708 q 775 378 775 531 l 775 100 l 885 100 l 885 0 l 539 0 l 539 100 l 674 100 l 674 365 q 616 542 674 476 q 461 608 558 608 q 355 576 403 608 q 279 489 307 544 q 251 365 251 433 l 251 100 l 385 100 l 385 0 l 28 0 l 28 100 l 150 100 m 506 1035 l 611 1035 l 514 813 l 414 813 l 506 1035 z "},"ň":{"ha":907,"x_min":28,"x_max":885,"o":"m 150 100 l 150 594 l 28 594 l 28 694 l 242 694 l 242 572 q 340 672 278 635 q 481 708 403 708 q 696 619 617 708 q 775 378 775 531 l 775 100 l 885 100 l 885 0 l 539 0 l 539 100 l 674 100 l 674 365 q 616 542 674 476 q 461 608 558 608 q 355 576 403 608 q 279 489 307 544 q 251 365 251 433 l 251 100 l 385 100 l 385 0 l 28 0 l 28 100 l 150 100 m 308 1035 l 451 881 l 596 1035 l 719 1035 l 515 813 l 388 813 l 183 1035 l 308 1035 z "},"ņ":{"ha":907,"x_min":28,"x_max":885,"o":"m 150 100 l 150 594 l 28 594 l 28 694 l 242 694 l 242 572 q 340 672 278 635 q 481 708 403 708 q 696 619 617 708 q 775 378 775 531 l 775 100 l 885 100 l 885 0 l 539 0 l 539 100 l 674 100 l 674 365 q 616 542 674 476 q 461 608 558 608 q 355 576 403 608 q 279 489 307 544 q 251 365 251 433 l 251 100 l 385 100 l 385 0 l 28 0 l 28 100 l 150 100 m 392 -340 q 425 -281 410 -314 q 442 -229 440 -249 l 439 -229 q 392 -210 410 -229 q 374 -168 374 -190 q 395 -115 374 -136 q 451 -94 417 -94 q 510 -116 486 -94 q 533 -175 533 -137 q 509 -265 533 -219 q 451 -340 485 -310 l 392 -340 z "},"ŋ":{"ha":907,"x_min":28,"x_max":775,"o":"m 444 -47 l 444 -67 q 478 -161 444 -124 q 564 -199 513 -199 q 642 -162 611 -199 q 674 -67 674 -125 l 674 147 l 674 365 q 617 543 674 478 q 461 608 560 608 q 355 576 403 608 q 279 489 307 544 q 251 365 251 433 l 251 100 l 385 100 l 385 0 l 28 0 l 28 100 l 150 100 l 150 594 l 28 594 l 28 694 l 242 694 l 242 572 q 340 672 278 635 q 481 708 403 708 q 696 619 617 708 q 775 378 775 531 l 775 -79 q 750 -189 775 -140 q 683 -265 725 -237 q 590 -292 640 -292 q 506 -269 544 -292 q 447 -215 467 -246 l 447 -292 l 354 -292 l 354 -47 l 444 -47 z "},"ñ":{"ha":907,"x_min":28,"x_max":885,"o":"m 150 100 l 150 594 l 28 594 l 28 694 l 242 694 l 242 572 q 340 672 278 635 q 481 708 403 708 q 696 619 617 708 q 775 378 775 531 l 775 100 l 885 100 l 885 0 l 539 0 l 539 100 l 674 100 l 674 365 q 616 542 674 476 q 461 608 558 608 q 355 576 403 608 q 279 489 307 544 q 251 365 251 433 l 251 100 l 385 100 l 385 0 l 28 0 l 28 100 l 150 100 m 185 851 q 223 965 185 924 q 321 1007 261 1007 q 383 998 354 1007 q 454 969 413 989 q 512 946 492 953 q 556 939 532 939 q 605 958 585 939 q 625 1003 625 976 l 718 1003 q 680 889 718 931 q 582 847 642 847 q 519 856 549 847 q 449 885 490 865 q 390 908 411 901 q 347 915 369 915 q 299 897 318 915 q 279 851 279 879 l 185 851 z "},"o":{"ha":856,"x_min":57,"x_max":799,"o":"m 428 -14 q 239 33 324 -14 q 106 163 154 81 q 57 347 57 246 q 106 531 57 449 q 239 661 154 614 q 428 708 324 708 q 617 661 532 708 q 750 531 701 614 q 799 347 799 449 q 750 163 799 246 q 617 33 701 81 q 428 -14 532 -14 m 428 86 q 563 120 503 86 q 658 214 624 154 q 692 347 692 274 q 658 481 692 421 q 563 574 624 540 q 428 608 503 608 q 292 574 353 608 q 198 481 232 540 q 164 347 164 421 q 198 214 164 274 q 292 120 232 154 q 428 86 353 86 z "},"ó":{"ha":856,"x_min":57,"x_max":799,"o":"m 428 -14 q 239 33 324 -14 q 106 163 154 81 q 57 347 57 246 q 106 531 57 449 q 239 661 154 614 q 428 708 324 708 q 617 661 532 708 q 750 531 701 614 q 799 347 799 449 q 750 163 799 246 q 617 33 701 81 q 428 -14 532 -14 m 428 86 q 563 120 503 86 q 658 214 624 154 q 692 347 692 274 q 658 481 692 421 q 563 574 624 540 q 428 608 503 608 q 292 574 353 608 q 198 481 232 540 q 164 347 164 421 q 198 214 164 274 q 292 120 232 154 q 428 86 353 86 m 482 1035 l 588 1035 l 490 813 l 390 813 l 482 1035 z "},"ô":{"ha":856,"x_min":57,"x_max":799,"o":"m 428 -14 q 239 33 324 -14 q 106 163 154 81 q 57 347 57 246 q 106 531 57 449 q 239 661 154 614 q 428 708 324 708 q 617 661 532 708 q 750 531 701 614 q 799 347 799 449 q 750 163 799 246 q 617 33 701 81 q 428 -14 532 -14 m 428 86 q 563 120 503 86 q 658 214 624 154 q 692 347 692 274 q 658 481 692 421 q 563 574 624 540 q 428 608 503 608 q 292 574 353 608 q 198 481 232 540 q 164 347 164 421 q 198 214 164 274 q 292 120 232 154 q 428 86 353 86 m 571 813 l 428 967 l 283 813 l 160 813 l 364 1035 l 492 1035 l 696 813 l 571 813 z "},"ö":{"ha":856,"x_min":57,"x_max":799,"o":"m 428 -14 q 239 33 324 -14 q 106 163 154 81 q 57 347 57 246 q 106 531 57 449 q 239 661 154 614 q 428 708 324 708 q 617 661 532 708 q 750 531 701 614 q 799 347 799 449 q 750 163 799 246 q 617 33 701 81 q 428 -14 532 -14 m 428 86 q 563 120 503 86 q 658 214 624 154 q 692 347 692 274 q 658 481 692 421 q 563 574 624 540 q 428 608 503 608 q 292 574 353 608 q 198 481 232 540 q 164 347 164 421 q 198 214 164 274 q 292 120 232 154 q 428 86 353 86 m 239 1035 l 399 1035 l 325 793 l 311 793 l 239 1035 m 440 1035 l 600 1035 l 526 793 l 513 793 l 440 1035 z "},"ò":{"ha":856,"x_min":57,"x_max":799,"o":"m 428 -14 q 239 33 324 -14 q 106 163 154 81 q 57 347 57 246 q 106 531 57 449 q 239 661 154 614 q 428 708 324 708 q 617 661 532 708 q 750 531 701 614 q 799 347 799 449 q 750 163 799 246 q 617 33 701 81 q 428 -14 532 -14 m 428 86 q 563 120 503 86 q 658 214 624 154 q 692 347 692 274 q 658 481 692 421 q 563 574 624 540 q 428 608 503 608 q 292 574 353 608 q 198 481 232 540 q 164 347 164 421 q 198 214 164 274 q 292 120 232 154 q 428 86 353 86 m 365 813 l 268 1035 l 374 1035 l 465 813 l 365 813 z "},"ő":{"ha":856,"x_min":57,"x_max":799,"o":"m 428 -14 q 239 33 324 -14 q 106 163 154 81 q 57 347 57 246 q 106 531 57 449 q 239 661 154 614 q 428 708 324 708 q 617 661 532 708 q 750 531 701 614 q 799 347 799 449 q 750 163 799 246 q 617 33 701 81 q 428 -14 532 -14 m 428 86 q 563 120 503 86 q 658 214 624 154 q 692 347 692 274 q 658 481 692 421 q 563 574 624 540 q 428 608 503 608 q 292 574 353 608 q 198 481 232 540 q 164 347 164 421 q 198 214 164 274 q 292 120 232 154 q 428 86 353 86 m 463 1035 l 375 813 l 285 813 l 367 1035 l 463 1035 m 668 1035 l 581 813 l 489 813 l 572 1035 l 668 1035 z "},"ō":{"ha":856,"x_min":57,"x_max":799,"o":"m 428 -14 q 239 33 324 -14 q 106 163 154 81 q 57 347 57 246 q 106 531 57 449 q 239 661 154 614 q 428 708 324 708 q 617 661 532 708 q 750 531 701 614 q 799 347 799 449 q 750 163 799 246 q 617 33 701 81 q 428 -14 532 -14 m 428 86 q 563 120 503 86 q 658 214 624 154 q 692 347 692 274 q 658 481 692 421 q 563 574 624 540 q 428 608 503 608 q 292 574 353 608 q 198 481 232 540 q 164 347 164 421 q 198 214 164 274 q 292 120 232 154 q 428 86 353 86 m 633 968 l 633 872 l 222 872 l 222 968 l 633 968 z "},"ø":{"ha":856,"x_min":57,"x_max":799,"o":"m 428 -14 q 231 40 317 -14 l 196 0 l 75 0 l 156 96 q 83 209 108 144 q 57 347 57 274 q 106 531 57 449 q 239 661 154 614 q 428 708 324 708 q 625 654 539 708 l 660 694 l 781 694 l 700 599 q 773 485 747 550 q 799 347 799 421 q 750 163 799 246 q 617 33 701 81 q 428 -14 532 -14 m 558 571 q 428 608 501 608 q 292 574 353 608 q 198 481 232 540 q 164 347 164 421 q 222 179 164 251 l 558 571 m 428 86 q 563 120 503 86 q 658 214 624 154 q 692 347 692 274 q 633 515 692 443 l 297 124 q 428 86 354 86 z "},"õ":{"ha":856,"x_min":57,"x_max":799,"o":"m 428 -14 q 239 33 324 -14 q 106 163 154 81 q 57 347 57 246 q 106 531 57 449 q 239 661 154 614 q 428 708 324 708 q 617 661 532 708 q 750 531 701 614 q 799 347 799 449 q 750 163 799 246 q 617 33 701 81 q 428 -14 532 -14 m 428 86 q 563 120 503 86 q 658 214 624 154 q 692 347 692 274 q 658 481 692 421 q 563 574 624 540 q 428 608 503 608 q 292 574 353 608 q 198 481 232 540 q 164 347 164 421 q 198 214 164 274 q 292 120 232 154 q 428 86 353 86 m 161 851 q 199 965 161 924 q 297 1007 238 1007 q 360 998 331 1007 q 431 969 389 989 q 488 946 468 953 q 532 939 508 939 q 581 958 561 939 q 601 1003 601 976 l 694 1003 q 656 889 694 931 q 558 847 618 847 q 496 856 525 847 q 425 885 467 865 q 367 908 388 901 q 324 915 346 915 q 275 897 294 915 q 256 851 256 879 l 161 851 z "},"œ":{"ha":1468,"x_min":57,"x_max":1393,"o":"m 1261 68 q 1167 9 1226 32 q 1038 -14 1108 -14 q 859 34 938 -14 q 740 165 781 82 q 615 35 697 83 q 428 -14 532 -14 q 239 33 324 -14 q 106 163 154 81 q 57 347 57 246 q 106 531 57 449 q 239 661 154 614 q 428 708 324 708 q 616 658 532 708 q 743 524 700 608 q 865 659 785 610 q 1043 708 946 708 q 1224 663 1144 708 q 1349 534 1304 617 q 1393 347 1393 451 q 1392 300 1393 317 l 793 300 q 876 140 807 201 q 1049 79 946 79 q 1145 97 1099 79 q 1220 144 1192 115 q 1249 201 1249 172 l 1249 226 l 1356 226 l 1356 -15 l 1261 -15 l 1261 68 m 1285 392 q 1207 553 1274 492 q 1040 614 1140 614 q 874 551 943 614 q 794 392 806 488 l 1285 392 m 428 86 q 563 120 503 86 q 658 214 624 154 q 692 347 692 274 q 658 481 692 421 q 563 574 624 540 q 428 608 503 608 q 292 574 353 608 q 198 481 232 540 q 164 347 164 421 q 198 214 164 274 q 292 120 232 154 q 428 86 353 86 z "},"p":{"ha":889,"x_min":28,"x_max":832,"o":"m 149 -178 l 149 594 l 28 594 l 28 694 l 242 694 l 242 563 q 346 669 278 629 q 501 708 414 708 q 670 662 594 708 q 789 533 746 615 q 832 347 832 450 q 789 163 832 246 q 670 33 746 81 q 501 -14 594 -14 q 351 24 417 -14 q 250 126 285 63 l 250 -182 l 444 -182 l 444 -278 l 28 -278 l 28 -178 l 149 -178 m 483 86 q 605 120 550 86 q 692 214 660 154 q 724 347 724 274 q 692 481 724 421 q 605 574 660 540 q 483 608 550 608 q 362 574 417 608 q 276 481 307 540 q 244 347 244 421 q 276 214 244 274 q 362 120 307 154 q 483 86 417 86 z "},"þ":{"ha":892,"x_min":28,"x_max":836,"o":"m 153 -178 l 153 876 l 28 876 l 28 976 l 253 976 l 253 558 q 355 668 289 628 q 507 708 421 708 q 675 662 600 708 q 793 533 750 615 q 836 347 836 450 q 793 163 836 246 q 675 33 750 81 q 507 -14 600 -14 q 356 26 422 -14 q 253 136 289 67 l 253 -182 l 447 -182 l 447 -278 l 31 -278 l 31 -178 l 153 -178 m 486 86 q 607 120 553 86 q 692 214 661 154 q 724 347 724 274 q 692 481 724 421 q 607 574 661 540 q 486 608 553 608 q 365 574 419 608 q 278 481 310 540 q 247 347 247 421 q 278 214 247 274 q 365 120 310 154 q 486 86 419 86 z "},"q":{"ha":889,"x_min":57,"x_max":861,"o":"m 639 -182 l 639 126 q 538 24 603 63 q 389 -14 474 -14 q 220 33 296 -14 q 101 163 144 81 q 57 347 57 246 q 100 533 57 450 q 219 662 143 615 q 389 708 294 708 q 543 669 475 708 q 647 563 611 629 l 647 694 l 861 694 l 861 594 l 740 594 l 740 -178 l 861 -178 l 861 -278 l 444 -278 l 444 -182 l 639 -182 m 406 86 q 527 120 472 86 q 613 214 582 154 q 644 347 644 274 q 613 481 644 421 q 527 574 582 540 q 406 608 472 608 q 284 574 339 608 q 197 481 229 540 q 165 347 165 421 q 197 214 165 274 q 284 120 229 154 q 406 86 339 86 z "},"r":{"ha":721,"x_min":28,"x_max":671,"o":"m 150 100 l 150 594 l 28 594 l 28 694 l 242 694 l 242 583 q 315 672 265 638 q 419 707 364 707 q 510 687 471 707 q 576 635 550 667 l 576 736 l 671 736 l 671 399 l 576 399 l 576 482 q 531 571 576 533 q 421 608 486 608 q 338 581 378 608 q 275 505 299 553 q 251 399 251 457 l 251 100 l 414 100 l 414 0 l 28 0 l 28 100 l 150 100 z "},"ŕ":{"ha":721,"x_min":28,"x_max":671,"o":"m 150 100 l 150 594 l 28 594 l 28 694 l 242 694 l 242 583 q 315 672 265 638 q 419 707 364 707 q 510 687 471 707 q 576 635 550 667 l 576 736 l 671 736 l 671 399 l 576 399 l 576 482 q 531 571 576 533 q 421 608 486 608 q 338 581 378 608 q 275 505 299 553 q 251 399 251 457 l 251 100 l 414 100 l 414 0 l 28 0 l 28 100 l 150 100 m 444 1035 l 550 1035 l 453 813 l 353 813 l 444 1035 z "},"ř":{"ha":721,"x_min":28,"x_max":671,"o":"m 150 100 l 150 594 l 28 594 l 28 694 l 242 694 l 242 583 q 315 672 265 638 q 419 707 364 707 q 510 687 471 707 q 576 635 550 667 l 576 736 l 671 736 l 671 399 l 576 399 l 576 482 q 531 571 576 533 q 421 608 486 608 q 338 581 378 608 q 275 505 299 553 q 251 399 251 457 l 251 100 l 414 100 l 414 0 l 28 0 l 28 100 l 150 100 m 247 1035 l 390 881 l 535 1035 l 658 1035 l 454 813 l 326 813 l 122 1035 l 247 1035 z "},"ŗ":{"ha":721,"x_min":28,"x_max":671,"o":"m 150 100 l 150 594 l 28 594 l 28 694 l 242 694 l 242 583 q 315 672 265 638 q 419 707 364 707 q 510 687 471 707 q 576 635 550 667 l 576 736 l 671 736 l 671 399 l 576 399 l 576 482 q 531 571 576 533 q 421 608 486 608 q 338 581 378 608 q 275 505 299 553 q 251 399 251 457 l 251 100 l 414 100 l 414 0 l 28 0 l 28 100 l 150 100 m 135 -340 q 168 -281 153 -314 q 185 -229 183 -249 l 182 -229 q 135 -210 153 -229 q 117 -168 117 -190 q 138 -115 117 -136 q 194 -94 160 -94 q 253 -116 229 -94 q 276 -175 276 -137 q 252 -265 276 -219 q 194 -340 228 -310 l 135 -340 z "},"s":{"ha":733,"x_min":60,"x_max":672,"o":"m 149 265 l 149 229 q 182 149 149 185 q 272 94 215 114 q 393 74 328 74 q 518 101 472 74 q 564 175 564 128 q 544 228 564 207 q 477 266 524 250 q 346 299 431 282 q 138 375 210 324 q 67 515 67 426 q 134 658 67 608 q 315 708 201 708 q 440 691 382 708 q 538 642 499 674 l 538 744 l 636 744 l 636 450 l 538 450 l 538 497 q 509 555 538 528 q 435 599 481 582 q 338 615 389 615 q 217 589 260 615 q 174 514 174 563 q 220 441 174 467 q 383 393 267 415 q 601 314 531 363 q 672 176 672 265 q 599 34 672 85 q 407 -17 525 -17 q 254 6 322 -17 q 149 68 186 28 l 149 -11 l 60 -11 l 60 265 l 149 265 z "},"ś":{"ha":733,"x_min":60,"x_max":672,"o":"m 149 265 l 149 229 q 182 149 149 185 q 272 94 215 114 q 393 74 328 74 q 518 101 472 74 q 564 175 564 128 q 544 228 564 207 q 477 266 524 250 q 346 299 431 282 q 138 375 210 324 q 67 515 67 426 q 134 658 67 608 q 315 708 201 708 q 440 691 382 708 q 538 642 499 674 l 538 744 l 636 744 l 636 450 l 538 450 l 538 497 q 509 555 538 528 q 435 599 481 582 q 338 615 389 615 q 217 589 260 615 q 174 514 174 563 q 220 441 174 467 q 383 393 267 415 q 601 314 531 363 q 672 176 672 265 q 599 34 672 85 q 407 -17 525 -17 q 254 6 322 -17 q 149 68 186 28 l 149 -11 l 60 -11 l 60 265 l 149 265 m 410 1035 l 515 1035 l 418 813 l 318 813 l 410 1035 z "},"š":{"ha":733,"x_min":60,"x_max":672,"o":"m 149 265 l 149 229 q 182 149 149 185 q 272 94 215 114 q 393 74 328 74 q 518 101 472 74 q 564 175 564 128 q 544 228 564 207 q 477 266 524 250 q 346 299 431 282 q 138 375 210 324 q 67 515 67 426 q 134 658 67 608 q 315 708 201 708 q 440 691 382 708 q 538 642 499 674 l 538 744 l 636 744 l 636 450 l 538 450 l 538 497 q 509 555 538 528 q 435 599 481 582 q 338 615 389 615 q 217 589 260 615 q 174 514 174 563 q 220 441 174 467 q 383 393 267 415 q 601 314 531 363 q 672 176 672 265 q 599 34 672 85 q 407 -17 525 -17 q 254 6 322 -17 q 149 68 186 28 l 149 -11 l 60 -11 l 60 265 l 149 265 m 213 1035 l 356 881 l 500 1035 l 624 1035 l 419 813 l 292 813 l 88 1035 l 213 1035 z "},"ş":{"ha":733,"x_min":60,"x_max":672,"o":"m 149 265 l 149 229 q 182 149 149 185 q 272 94 215 114 q 393 74 328 74 q 518 101 472 74 q 564 175 564 128 q 544 228 564 207 q 477 266 524 250 q 346 299 431 282 q 138 375 210 324 q 67 515 67 426 q 134 658 67 608 q 315 708 201 708 q 440 691 382 708 q 538 642 499 674 l 538 744 l 636 744 l 636 450 l 538 450 l 538 497 q 509 555 538 528 q 435 599 481 582 q 338 615 389 615 q 217 589 260 615 q 174 514 174 563 q 220 441 174 467 q 383 393 267 415 q 601 314 531 363 q 672 176 672 265 q 599 34 672 85 q 407 -17 525 -17 q 254 6 322 -17 q 149 68 186 28 l 149 -11 l 60 -11 l 60 265 l 149 265 m 238 -340 l 335 -118 l 435 -118 l 343 -340 l 238 -340 z "},"ș":{"ha":733,"x_min":60,"x_max":672,"o":"m 149 265 l 149 229 q 182 149 149 185 q 272 94 215 114 q 393 74 328 74 q 518 101 472 74 q 564 175 564 128 q 544 228 564 207 q 477 266 524 250 q 346 299 431 282 q 138 375 210 324 q 67 515 67 426 q 134 658 67 608 q 315 708 201 708 q 440 691 382 708 q 538 642 499 674 l 538 744 l 636 744 l 636 450 l 538 450 l 538 497 q 509 555 538 528 q 435 599 481 582 q 338 615 389 615 q 217 589 260 615 q 174 514 174 563 q 220 441 174 467 q 383 393 267 415 q 601 314 531 363 q 672 176 672 265 q 599 34 672 85 q 407 -17 525 -17 q 254 6 322 -17 q 149 68 186 28 l 149 -11 l 60 -11 l 60 265 l 149 265 m 324 -340 q 357 -281 342 -314 q 374 -229 372 -249 l 371 -229 q 324 -210 342 -229 q 306 -168 306 -190 q 327 -115 306 -136 q 383 -94 349 -94 q 442 -116 418 -94 q 465 -175 465 -137 q 441 -265 465 -219 q 383 -340 417 -310 l 324 -340 z "},"ß":{"ha":996,"x_min":18,"x_max":971,"o":"m 160 -178 l 160 594 l 18 594 l 18 694 l 160 694 l 160 753 q 240 954 160 881 q 463 1028 321 1028 q 607 1001 543 1028 q 697 933 671 974 l 697 1026 l 792 1026 l 792 614 l 701 614 q 643 622 678 622 q 543 595 583 622 q 503 521 503 568 q 550 442 503 472 q 701 392 597 413 q 904 315 838 364 q 971 182 971 265 q 900 38 971 92 q 726 -17 829 -17 q 583 5 649 -17 q 479 65 518 26 l 479 -11 l 389 -11 l 389 265 l 476 265 l 476 235 q 508 153 476 190 q 594 94 539 115 q 714 72 649 72 q 824 101 783 72 q 865 181 865 131 q 822 251 865 225 q 669 301 778 278 q 464 377 531 329 q 397 514 397 425 q 464 655 397 603 q 636 707 531 707 q 689 704 656 707 l 689 767 q 628 885 689 840 q 467 931 567 931 q 309 883 365 931 q 253 747 253 835 q 256 685 253 729 q 261 581 261 629 l 261 -182 l 446 -182 l 446 -278 l 18 -278 l 18 -178 l 160 -178 z "},"t":{"ha":599,"x_min":0,"x_max":572,"o":"m 393 -10 q 219 52 278 -10 q 160 226 160 114 l 160 594 l 0 594 l 0 694 l 118 694 q 149 706 138 694 q 161 738 161 717 l 161 861 l 260 861 l 260 694 l 572 694 l 572 594 l 260 594 l 260 228 q 298 126 260 160 q 407 92 336 92 q 572 132 492 92 l 572 29 q 393 -10 481 -10 z "},"ŧ":{"ha":600,"x_min":0,"x_max":572,"o":"m 393 -10 q 219 52 278 -10 q 160 226 160 114 l 160 304 l 0 304 l 0 390 l 160 390 l 160 594 l 0 594 l 0 694 l 118 694 q 149 706 138 694 q 161 738 161 717 l 161 861 l 260 861 l 260 694 l 572 694 l 572 594 l 260 594 l 260 390 l 572 390 l 572 304 l 260 304 l 260 228 q 298 126 260 160 q 407 92 336 92 q 572 132 492 92 l 572 29 q 393 -10 481 -10 z "},"ť":{"ha":599,"x_min":0,"x_max":572,"o":"m 393 -10 q 219 52 278 -10 q 160 226 160 114 l 160 594 l 0 594 l 0 694 l 118 694 q 149 706 138 694 q 161 738 161 717 l 161 861 l 260 861 l 260 694 l 572 694 l 572 594 l 260 594 l 260 228 q 298 126 260 160 q 407 92 336 92 q 572 132 492 92 l 572 29 q 393 -10 481 -10 m 324 972 l 425 972 l 418 750 l 324 750 l 324 972 z "},"ţ":{"ha":599,"x_min":0,"x_max":572,"o":"m 393 -10 q 219 52 278 -10 q 160 226 160 114 l 160 594 l 0 594 l 0 694 l 118 694 q 149 706 138 694 q 161 738 161 717 l 161 861 l 260 861 l 260 694 l 572 694 l 572 594 l 260 594 l 260 228 q 298 126 260 160 q 407 92 336 92 q 572 132 492 92 l 572 29 q 393 -10 481 -10 m 238 -340 l 335 -118 l 435 -118 l 343 -340 l 238 -340 z "},"ț":{"ha":599,"x_min":0,"x_max":572,"o":"m 393 -10 q 219 52 278 -10 q 160 226 160 114 l 160 594 l 0 594 l 0 694 l 118 694 q 149 706 138 694 q 161 738 161 717 l 161 861 l 260 861 l 260 694 l 572 694 l 572 594 l 260 594 l 260 228 q 298 126 260 160 q 407 92 336 92 q 572 132 492 92 l 572 29 q 393 -10 481 -10 m 324 -340 q 357 -281 342 -314 q 374 -229 372 -249 l 371 -229 q 324 -210 342 -229 q 306 -168 306 -190 q 327 -115 306 -136 q 383 -94 349 -94 q 442 -116 418 -94 q 465 -175 465 -137 q 441 -265 465 -219 q 383 -340 417 -310 l 324 -340 z "},"u":{"ha":907,"x_min":24,"x_max":879,"o":"m 426 -14 q 211 76 290 -14 q 132 318 132 165 l 132 594 l 24 594 l 24 694 l 235 694 l 235 331 q 292 152 235 218 q 447 86 350 86 q 553 118 506 86 q 629 206 601 150 q 657 331 657 263 l 657 594 l 511 594 l 511 694 l 879 694 l 879 594 l 758 594 l 758 100 l 879 100 l 879 0 l 665 0 l 665 133 q 567 26 631 65 q 426 -14 504 -14 z "},"ú":{"ha":907,"x_min":24,"x_max":879,"o":"m 426 -14 q 211 76 290 -14 q 132 318 132 165 l 132 594 l 24 594 l 24 694 l 235 694 l 235 331 q 292 152 235 218 q 447 86 350 86 q 553 118 506 86 q 629 206 601 150 q 657 331 657 263 l 657 594 l 511 594 l 511 694 l 879 694 l 879 594 l 758 594 l 758 100 l 879 100 l 879 0 l 665 0 l 665 133 q 567 26 631 65 q 426 -14 504 -14 m 501 1035 l 607 1035 l 510 813 l 410 813 l 501 1035 z "},"û":{"ha":907,"x_min":24,"x_max":879,"o":"m 426 -14 q 211 76 290 -14 q 132 318 132 165 l 132 594 l 24 594 l 24 694 l 235 694 l 235 331 q 292 152 235 218 q 447 86 350 86 q 553 118 506 86 q 629 206 601 150 q 657 331 657 263 l 657 594 l 511 594 l 511 694 l 879 694 l 879 594 l 758 594 l 758 100 l 879 100 l 879 0 l 665 0 l 665 133 q 567 26 631 65 q 426 -14 504 -14 m 590 813 l 447 967 l 303 813 l 179 813 l 383 1035 l 511 1035 l 715 813 l 590 813 z "},"ü":{"ha":907,"x_min":24,"x_max":879,"o":"m 426 -14 q 211 76 290 -14 q 132 318 132 165 l 132 594 l 24 594 l 24 694 l 235 694 l 235 331 q 292 152 235 218 q 447 86 350 86 q 553 118 506 86 q 629 206 601 150 q 657 331 657 263 l 657 594 l 511 594 l 511 694 l 879 694 l 879 594 l 758 594 l 758 100 l 879 100 l 879 0 l 665 0 l 665 133 q 567 26 631 65 q 426 -14 504 -14 m 257 1035 l 417 1035 l 343 793 l 329 793 l 257 1035 m 458 1035 l 618 1035 l 544 793 l 531 793 l 458 1035 z "},"ù":{"ha":907,"x_min":24,"x_max":879,"o":"m 426 -14 q 211 76 290 -14 q 132 318 132 165 l 132 594 l 24 594 l 24 694 l 235 694 l 235 331 q 292 152 235 218 q 447 86 350 86 q 553 118 506 86 q 629 206 601 150 q 657 331 657 263 l 657 594 l 511 594 l 511 694 l 879 694 l 879 594 l 758 594 l 758 100 l 879 100 l 879 0 l 665 0 l 665 133 q 567 26 631 65 q 426 -14 504 -14 m 385 813 l 288 1035 l 393 1035 l 485 813 l 385 813 z "},"ű":{"ha":907,"x_min":24,"x_max":879,"o":"m 426 -14 q 211 76 290 -14 q 132 318 132 165 l 132 594 l 24 594 l 24 694 l 235 694 l 235 331 q 292 152 235 218 q 447 86 350 86 q 553 118 506 86 q 629 206 601 150 q 657 331 657 263 l 657 594 l 511 594 l 511 694 l 879 694 l 879 594 l 758 594 l 758 100 l 879 100 l 879 0 l 665 0 l 665 133 q 567 26 631 65 q 426 -14 504 -14 m 482 1035 l 394 813 l 304 813 l 386 1035 l 482 1035 m 688 1035 l 600 813 l 508 813 l 592 1035 l 688 1035 z "},"ū":{"ha":907,"x_min":24,"x_max":879,"o":"m 426 -14 q 211 76 290 -14 q 132 318 132 165 l 132 594 l 24 594 l 24 694 l 235 694 l 235 331 q 292 152 235 218 q 447 86 350 86 q 553 118 506 86 q 629 206 601 150 q 657 331 657 263 l 657 594 l 511 594 l 511 694 l 879 694 l 879 594 l 758 594 l 758 100 l 879 100 l 879 0 l 665 0 l 665 133 q 567 26 631 65 q 426 -14 504 -14 m 653 968 l 653 872 l 242 872 l 242 968 l 653 968 z "},"ų":{"ha":907,"x_min":24,"x_max":879,"o":"m 426 -14 q 211 76 290 -14 q 132 318 132 165 l 132 594 l 24 594 l 24 694 l 235 694 l 235 331 q 292 152 235 218 q 447 86 350 86 q 553 118 506 86 q 629 206 601 150 q 657 331 657 263 l 657 594 l 511 594 l 511 694 l 879 694 l 879 594 l 758 594 l 758 100 l 879 100 l 879 0 l 665 0 l 665 133 q 567 26 631 65 q 426 -14 504 -14 z "},"ů":{"ha":907,"x_min":24,"x_max":879,"o":"m 426 -14 q 211 76 290 -14 q 132 318 132 165 l 132 594 l 24 594 l 24 694 l 235 694 l 235 331 q 292 152 235 218 q 447 86 350 86 q 553 118 506 86 q 629 206 601 150 q 657 331 657 263 l 657 594 l 511 594 l 511 694 l 879 694 l 879 594 l 758 594 l 758 100 l 879 100 l 879 0 l 665 0 l 665 133 q 567 26 631 65 q 426 -14 504 -14 m 446 792 q 319 844 371 792 q 268 969 268 896 q 319 1097 268 1044 q 446 1150 371 1150 q 536 1126 494 1150 q 602 1060 578 1101 q 626 969 626 1018 q 602 880 626 921 q 536 815 578 839 q 446 792 494 792 m 447 874 q 516 902 488 874 q 544 971 544 931 q 516 1040 544 1011 q 447 1068 488 1068 q 378 1040 406 1068 q 350 971 350 1011 q 378 901 350 929 q 447 874 406 874 z "},"v":{"ha":701,"x_min":-86,"x_max":786,"o":"m 17 594 l -86 594 l -86 694 l 279 694 l 279 594 l 136 594 l 354 99 l 571 594 l 425 594 l 425 694 l 786 694 l 786 594 l 685 594 l 419 0 l 282 0 l 17 594 z "},"w":{"ha":1092,"x_min":-46,"x_max":1138,"o":"m 50 594 l -46 594 l -46 694 l 288 694 l 288 594 l 160 594 l 319 92 l 493 561 l 479 594 l 371 594 l 371 694 l 725 694 l 725 594 l 588 594 l 775 90 l 935 594 l 803 594 l 803 694 l 1138 694 l 1138 594 l 1042 594 l 853 0 l 707 0 l 546 438 l 381 0 l 238 0 l 50 594 z "},"ẃ":{"ha":1092,"x_min":-46,"x_max":1138,"o":"m 50 594 l -46 594 l -46 694 l 288 694 l 288 594 l 160 594 l 319 92 l 493 561 l 479 594 l 371 594 l 371 694 l 725 694 l 725 594 l 588 594 l 775 90 l 935 594 l 803 594 l 803 694 l 1138 694 l 1138 594 l 1042 594 l 853 0 l 707 0 l 546 438 l 381 0 l 238 0 l 50 594 m 600 1035 l 706 1035 l 608 813 l 508 813 l 600 1035 z "},"ŵ":{"ha":1092,"x_min":-46,"x_max":1138,"o":"m 50 594 l -46 594 l -46 694 l 288 694 l 288 594 l 160 594 l 319 92 l 493 561 l 479 594 l 371 594 l 371 694 l 725 694 l 725 594 l 588 594 l 775 90 l 935 594 l 803 594 l 803 694 l 1138 694 l 1138 594 l 1042 594 l 853 0 l 707 0 l 546 438 l 381 0 l 238 0 l 50 594 m 689 813 l 546 967 l 401 813 l 278 813 l 482 1035 l 610 1035 l 814 813 l 689 813 z "},"ẅ":{"ha":1092,"x_min":-46,"x_max":1138,"o":"m 50 594 l -46 594 l -46 694 l 288 694 l 288 594 l 160 594 l 319 92 l 493 561 l 479 594 l 371 594 l 371 694 l 725 694 l 725 594 l 588 594 l 775 90 l 935 594 l 803 594 l 803 694 l 1138 694 l 1138 594 l 1042 594 l 853 0 l 707 0 l 546 438 l 381 0 l 238 0 l 50 594 m 357 1035 l 517 1035 l 443 793 l 429 793 l 357 1035 m 558 1035 l 718 1035 l 644 793 l 631 793 l 558 1035 z "},"ẁ":{"ha":1092,"x_min":-46,"x_max":1138,"o":"m 50 594 l -46 594 l -46 694 l 288 694 l 288 594 l 160 594 l 319 92 l 493 561 l 479 594 l 371 594 l 371 694 l 725 694 l 725 594 l 588 594 l 775 90 l 935 594 l 803 594 l 803 694 l 1138 694 l 1138 594 l 1042 594 l 853 0 l 707 0 l 546 438 l 381 0 l 238 0 l 50 594 m 483 813 l 386 1035 l 492 1035 l 583 813 l 483 813 z "},"x":{"ha":775,"x_min":4,"x_max":771,"o":"m 4 100 l 103 100 l 317 351 l 108 594 l 4 594 l 4 694 l 326 694 l 326 594 l 235 594 l 390 411 l 546 594 l 449 594 l 449 694 l 771 694 l 771 594 l 667 594 l 460 353 l 675 100 l 771 100 l 771 0 l 449 0 l 449 100 l 549 100 l 385 292 l 222 100 l 326 100 l 326 0 l 4 0 l 4 100 z "},"y":{"ha":747,"x_min":-53,"x_max":818,"o":"m 136 19 l 136 -47 q 168 -152 136 -112 q 250 -192 200 -192 q 326 -163 296 -192 q 356 -82 356 -135 l 356 -54 q 349 -8 356 -29 q 328 43 342 13 l 43 594 l -53 594 l -53 694 l 314 694 l 314 594 l 167 594 l 382 169 q 395 135 389 156 q 406 104 401 115 q 417 140 410 125 l 615 594 l 460 594 l 460 694 l 818 694 l 818 594 l 724 594 l 488 65 q 467 6 474 29 q 461 -44 461 -17 l 461 -82 q 407 -232 461 -174 q 269 -290 353 -290 q 190 -271 225 -290 q 136 -222 154 -251 l 136 -286 l 39 -286 l 39 19 l 136 19 z "},"ý":{"ha":747,"x_min":-53,"x_max":818,"o":"m 136 19 l 136 -47 q 168 -152 136 -112 q 250 -192 200 -192 q 326 -163 296 -192 q 356 -82 356 -135 l 356 -54 q 349 -8 356 -29 q 328 43 342 13 l 43 594 l -53 594 l -53 694 l 314 694 l 314 594 l 167 594 l 382 169 q 395 135 389 156 q 406 104 401 115 q 417 140 410 125 l 615 594 l 460 594 l 460 694 l 818 694 l 818 594 l 724 594 l 488 65 q 467 6 474 29 q 461 -44 461 -17 l 461 -82 q 407 -232 461 -174 q 269 -290 353 -290 q 190 -271 225 -290 q 136 -222 154 -251 l 136 -286 l 39 -286 l 39 19 l 136 19 m 435 1035 l 540 1035 l 443 813 l 343 813 l 435 1035 z "},"ŷ":{"ha":747,"x_min":-53,"x_max":818,"o":"m 136 19 l 136 -47 q 168 -152 136 -112 q 250 -192 200 -192 q 326 -163 296 -192 q 356 -82 356 -135 l 356 -54 q 349 -8 356 -29 q 328 43 342 13 l 43 594 l -53 594 l -53 694 l 314 694 l 314 594 l 167 594 l 382 169 q 395 135 389 156 q 406 104 401 115 q 417 140 410 125 l 615 594 l 460 594 l 460 694 l 818 694 l 818 594 l 724 594 l 488 65 q 467 6 474 29 q 461 -44 461 -17 l 461 -82 q 407 -232 461 -174 q 269 -290 353 -290 q 190 -271 225 -290 q 136 -222 154 -251 l 136 -286 l 39 -286 l 39 19 l 136 19 m 524 813 l 381 967 l 236 813 l 113 813 l 317 1035 l 444 1035 l 649 813 l 524 813 z "},"ÿ":{"ha":747,"x_min":-53,"x_max":818,"o":"m 136 19 l 136 -47 q 168 -152 136 -112 q 250 -192 200 -192 q 326 -163 296 -192 q 356 -82 356 -135 l 356 -54 q 349 -8 356 -29 q 328 43 342 13 l 43 594 l -53 594 l -53 694 l 314 694 l 314 594 l 167 594 l 382 169 q 395 135 389 156 q 406 104 401 115 q 417 140 410 125 l 615 594 l 460 594 l 460 694 l 818 694 l 818 594 l 724 594 l 488 65 q 467 6 474 29 q 461 -44 461 -17 l 461 -82 q 407 -232 461 -174 q 269 -290 353 -290 q 190 -271 225 -290 q 136 -222 154 -251 l 136 -286 l 39 -286 l 39 19 l 136 19 m 190 1035 l 350 1035 l 276 793 l 263 793 l 190 1035 m 392 1035 l 551 1035 l 478 793 l 464 793 l 392 1035 z "},"ỳ":{"ha":747,"x_min":-53,"x_max":818,"o":"m 136 19 l 136 -47 q 168 -152 136 -112 q 250 -192 200 -192 q 326 -163 296 -192 q 356 -82 356 -135 l 356 -54 q 349 -8 356 -29 q 328 43 342 13 l 43 594 l -53 594 l -53 694 l 314 694 l 314 594 l 167 594 l 382 169 q 395 135 389 156 q 406 104 401 115 q 417 140 410 125 l 615 594 l 460 594 l 460 694 l 818 694 l 818 594 l 724 594 l 488 65 q 467 6 474 29 q 461 -44 461 -17 l 461 -82 q 407 -232 461 -174 q 269 -290 353 -290 q 190 -271 225 -290 q 136 -222 154 -251 l 136 -286 l 39 -286 l 39 19 l 136 19 m 318 813 l 221 1035 l 326 1035 l 418 813 l 318 813 z "},"z":{"ha":738,"x_min":68,"x_max":661,"o":"m 68 0 l 68 89 l 518 594 l 186 594 q 183 590 183 594 l 183 419 l 82 419 l 82 757 l 183 757 l 183 694 l 653 694 l 653 599 l 211 100 l 557 100 q 560 104 560 100 l 560 281 l 661 281 l 661 -78 l 560 -78 l 560 0 l 68 0 z "},"ź":{"ha":738,"x_min":68,"x_max":661,"o":"m 68 0 l 68 89 l 518 594 l 186 594 q 183 590 183 594 l 183 419 l 82 419 l 82 757 l 183 757 l 183 694 l 653 694 l 653 599 l 211 100 l 557 100 q 560 104 560 100 l 560 281 l 661 281 l 661 -78 l 560 -78 l 560 0 l 68 0 m 471 1035 l 576 1035 l 479 813 l 379 813 l 471 1035 z "},"ž":{"ha":738,"x_min":68,"x_max":685,"o":"m 68 0 l 68 89 l 518 594 l 186 594 q 183 590 183 594 l 183 419 l 82 419 l 82 757 l 183 757 l 183 694 l 653 694 l 653 599 l 211 100 l 557 100 q 560 104 560 100 l 560 281 l 661 281 l 661 -78 l 560 -78 l 560 0 l 68 0 m 274 1035 l 417 881 l 561 1035 l 685 1035 l 481 813 l 353 813 l 149 1035 l 274 1035 z "},"ż":{"ha":738,"x_min":68,"x_max":661,"o":"m 68 0 l 68 89 l 518 594 l 186 594 q 183 590 183 594 l 183 419 l 82 419 l 82 757 l 183 757 l 183 694 l 653 694 l 653 599 l 211 100 l 557 100 q 560 104 560 100 l 560 281 l 661 281 l 661 -78 l 560 -78 l 560 0 l 68 0 m 328 1035 l 506 1035 l 424 793 l 408 793 l 328 1035 z "},"А":{"ha":939,"x_min":-86,"x_max":1025,"o":"m -86 110 l 39 110 l 361 858 l 360 861 l 204 861 l 204 972 l 539 972 l 896 110 l 1025 110 l 1025 0 l 596 0 l 596 110 l 771 110 l 686 314 l 240 314 l 154 110 l 336 110 l 336 0 l -86 0 l -86 110 m 644 419 l 471 836 l 463 836 l 285 419 l 644 419 z "},"Б":{"ha":900,"x_min":40,"x_max":874,"o":"m 188 110 l 188 861 l 40 861 l 40 972 l 700 972 l 700 1060 l 811 1060 l 811 668 l 699 668 l 699 863 q 696 865 699 865 l 303 865 l 303 565 l 518 565 q 779 490 685 565 q 874 283 874 415 q 778 76 874 151 q 518 0 682 0 l 40 0 l 40 110 l 188 110 m 519 107 q 690 155 628 107 q 753 286 753 203 q 691 417 753 369 q 519 465 629 465 l 303 465 l 303 107 l 519 107 z "},"В":{"ha":947,"x_min":40,"x_max":900,"o":"m 188 110 l 188 861 l 40 861 l 40 972 l 543 972 q 775 906 690 972 q 860 722 860 839 q 816 582 860 642 q 692 496 772 522 l 692 486 q 847 403 793 464 q 900 250 900 343 q 815 67 900 133 q 582 0 731 0 l 40 0 l 40 110 l 188 110 m 526 538 q 681 582 625 538 q 736 701 736 626 q 681 819 736 776 q 526 861 625 861 l 303 861 l 303 538 l 526 538 m 565 110 q 719 153 664 110 q 775 269 775 196 q 717 388 775 344 q 565 432 658 432 l 303 432 l 303 110 l 565 110 z "},"Г":{"ha":822,"x_min":40,"x_max":794,"o":"m 188 110 l 188 861 l 40 861 l 40 972 l 682 972 l 682 1060 l 794 1060 l 794 639 l 681 639 l 681 860 l 678 861 l 303 861 l 303 110 l 525 110 l 525 0 l 40 0 l 40 110 l 188 110 z "},"Ґ":{"ha":790,"x_min":40,"x_max":763,"o":"m 188 110 l 188 861 l 40 861 l 40 972 l 647 972 q 650 975 650 972 l 650 1196 l 763 1196 l 763 769 l 650 769 l 650 861 l 303 861 l 303 110 l 525 110 l 525 0 l 40 0 l 40 110 l 188 110 z "},"Д":{"ha":1046,"x_min":-15,"x_max":1001,"o":"m 110 110 q 176 429 149 275 q 218 753 203 583 q 225 861 222 789 l 82 861 l 82 972 l 990 972 l 990 861 l 849 861 l 849 110 l 1001 110 l 1001 -219 l 892 -219 l 892 -3 q 888 0 892 0 l 97 0 q 94 -3 94 0 l 94 -219 l -15 -219 l -15 110 l 110 110 m 735 864 l 340 864 q 297 476 326 660 q 224 108 267 293 l 735 108 l 735 864 z "},"Е":{"ha":929,"x_min":40,"x_max":868,"o":"m 40 0 l 40 110 l 188 110 l 188 861 l 40 861 l 40 972 l 700 972 l 700 1054 l 811 1054 l 811 644 l 700 644 l 700 860 l 697 861 l 299 861 l 299 539 l 468 539 l 471 540 l 471 654 l 565 654 l 565 319 l 471 319 l 471 432 q 468 433 471 433 l 299 433 l 299 110 l 753 110 q 756 113 756 110 l 756 329 l 868 329 l 868 -87 l 758 -87 l 758 0 l 40 0 z "},"Ё":{"ha":929,"x_min":40,"x_max":868,"o":"m 40 0 l 40 110 l 188 110 l 188 861 l 40 861 l 40 972 l 700 972 l 700 1054 l 811 1054 l 811 644 l 700 644 l 700 860 l 697 861 l 299 861 l 299 539 l 468 539 l 471 540 l 471 654 l 565 654 l 565 319 l 471 319 l 471 432 q 468 433 471 433 l 299 433 l 299 110 l 753 110 q 756 113 756 110 l 756 329 l 868 329 l 868 -87 l 758 -87 l 758 0 l 40 0 m 268 1313 l 428 1313 l 354 1071 l 340 1071 l 268 1313 m 469 1313 l 629 1313 l 556 1071 l 542 1071 l 469 1313 z "},"Ж":{"ha":1447,"x_min":-24,"x_max":1469,"o":"m -24 110 l 99 110 l 404 488 l 115 861 l 10 861 l 10 972 l 388 972 l 388 861 l 250 861 l 497 538 l 663 538 l 663 861 l 514 861 l 514 972 l 926 972 l 926 861 l 778 861 l 778 538 l 949 538 l 1197 861 l 1060 861 l 1060 972 l 1438 972 l 1438 861 l 1329 861 l 1044 490 l 1349 110 l 1469 110 l 1469 0 l 1060 0 l 1060 110 l 1203 110 l 939 436 l 778 436 l 778 110 l 906 110 l 906 0 l 535 0 l 535 110 l 663 110 l 663 436 l 506 436 l 239 110 l 388 110 l 388 0 l -24 0 l -24 110 z "},"З":{"ha":943,"x_min":97,"x_max":896,"o":"m 208 389 l 208 319 q 247 203 208 257 q 354 117 286 149 q 507 85 422 85 q 704 137 631 85 q 778 271 778 189 q 722 388 778 340 q 581 435 667 435 l 543 435 l 542 432 l 542 315 l 449 315 l 449 654 l 542 654 l 542 540 l 543 539 l 571 539 q 699 587 650 539 q 749 706 749 635 q 716 800 749 758 q 627 865 683 842 q 503 889 571 889 q 363 860 428 889 q 260 781 299 831 q 222 672 222 731 l 222 613 l 114 613 l 114 981 l 225 981 l 225 872 q 347 961 274 929 q 514 993 421 993 q 692 959 611 993 q 819 863 772 925 q 865 722 865 801 q 822 584 865 644 q 701 497 778 524 l 701 485 q 842 400 788 463 q 896 257 896 338 q 847 115 896 179 q 712 15 797 51 q 524 -21 626 -21 q 341 11 417 -21 q 207 107 265 43 l 207 -19 l 97 -19 l 97 389 l 208 389 z "},"И":{"ha":1156,"x_min":40,"x_max":1115,"o":"m 179 861 l 40 861 l 40 972 l 442 972 l 442 861 l 294 861 l 294 171 l 839 972 l 1115 972 l 1115 861 l 968 861 l 968 110 l 1115 110 l 1115 0 l 685 0 l 685 110 l 853 110 l 853 807 l 300 -10 l 179 -10 l 179 861 z "},"Й":{"ha":1156,"x_min":40,"x_max":1115,"o":"m 179 861 l 40 861 l 40 972 l 442 972 l 442 861 l 294 861 l 294 171 l 839 972 l 1115 972 l 1115 861 l 968 861 l 968 110 l 1115 110 l 1115 0 l 685 0 l 685 110 l 853 110 l 853 807 l 300 -10 l 179 -10 l 179 861 m 579 1069 q 395 1133 465 1069 q 325 1301 325 1197 l 325 1313 l 421 1313 l 421 1303 q 464 1198 421 1238 q 579 1158 507 1158 q 695 1198 651 1158 q 739 1303 739 1238 l 739 1313 l 833 1313 l 833 1301 q 763 1133 833 1197 q 579 1069 693 1069 z "},"К":{"ha":1006,"x_min":40,"x_max":1028,"o":"m 40 110 l 188 110 l 188 861 l 40 861 l 40 972 l 440 972 l 440 861 l 303 861 l 303 538 l 474 538 l 740 861 l 579 861 l 579 972 l 982 972 l 982 861 l 872 861 l 574 497 l 922 110 l 1028 110 l 1028 0 l 589 0 l 589 110 l 771 110 l 475 436 l 303 436 l 303 110 l 429 110 l 429 0 l 40 0 l 40 110 z "},"Л":{"ha":1079,"x_min":-14,"x_max":1039,"o":"m 90 -17 q -14 7 25 -17 l -14 122 q 76 101 31 101 q 191 195 150 101 q 249 421 232 289 q 285 788 267 553 q 290 861 288 808 l 160 861 l 160 972 l 1039 972 l 1039 861 l 892 861 l 892 110 l 1039 110 l 1039 0 l 608 0 l 608 110 l 776 110 l 776 861 l 406 861 l 401 811 q 288 122 372 304 q 90 -17 221 -17 z "},"М":{"ha":1385,"x_min":40,"x_max":1346,"o":"m 40 110 l 185 110 l 185 861 l 40 861 l 40 972 l 369 972 l 694 149 l 1019 972 l 1346 972 l 1346 861 l 1201 861 l 1201 110 l 1346 110 l 1346 0 l 944 0 l 944 110 l 1088 110 l 1088 840 l 1083 840 l 750 0 l 635 0 l 300 840 l 297 840 l 297 110 l 451 110 l 451 0 l 40 0 l 40 110 z "},"Н":{"ha":1139,"x_min":40,"x_max":1099,"o":"m 40 110 l 188 110 l 188 861 l 40 861 l 40 972 l 471 972 l 471 861 l 303 861 l 303 539 l 836 539 l 836 861 l 668 861 l 668 972 l 1099 972 l 1099 861 l 951 861 l 951 110 l 1099 110 l 1099 0 l 668 0 l 668 110 l 836 110 l 836 433 l 303 433 l 303 110 l 471 110 l 471 0 l 40 0 l 40 110 z "},"О":{"ha":1110,"x_min":50,"x_max":1060,"o":"m 554 -21 q 296 45 411 -21 q 115 226 181 111 q 50 486 50 342 q 115 746 50 631 q 296 927 181 861 q 554 993 411 993 q 814 927 699 993 q 994 746 929 861 q 1060 486 1060 631 q 994 226 1060 342 q 814 45 929 111 q 554 -21 699 -21 m 554 89 q 754 140 665 89 q 893 282 843 192 q 943 486 943 372 q 893 690 943 600 q 755 831 843 781 q 554 882 667 882 q 355 831 443 882 q 217 690 267 781 q 167 486 167 600 q 217 282 167 372 q 355 140 267 192 q 554 89 443 89 z "},"П":{"ha":1139,"x_min":40,"x_max":1100,"o":"m 40 110 l 188 110 l 188 861 l 40 861 l 40 972 l 1100 972 l 1100 861 l 953 861 l 953 110 l 1100 110 l 1100 0 l 668 0 l 668 110 l 838 110 l 838 861 l 303 861 l 303 110 l 471 110 l 471 0 l 40 0 l 40 110 z "},"Р":{"ha":896,"x_min":40,"x_max":864,"o":"m 188 110 l 188 861 l 40 861 l 40 972 l 504 972 q 767 894 671 972 q 864 681 864 815 q 768 465 864 543 q 504 386 672 386 l 303 386 l 303 110 l 499 110 l 499 0 l 40 0 l 40 110 l 188 110 m 507 486 q 683 538 619 486 q 747 676 747 589 q 683 816 747 765 q 507 867 619 867 l 303 867 l 303 486 l 507 486 z "},"С":{"ha":997,"x_min":50,"x_max":904,"o":"m 504 -19 q 273 46 376 -19 q 110 226 169 111 q 50 486 50 342 q 110 746 50 631 q 273 926 169 861 q 503 992 376 992 q 659 960 586 992 q 776 874 732 928 l 776 1018 l 888 1018 l 888 608 l 772 608 l 772 675 q 735 777 772 729 q 638 853 699 825 q 506 882 576 882 q 332 831 410 882 q 210 689 254 779 q 167 486 167 599 q 210 283 167 374 q 332 142 254 193 q 506 90 410 90 q 647 119 582 90 q 751 199 713 149 q 790 307 790 249 l 790 382 l 904 382 l 904 -11 l 793 -11 l 793 104 q 672 15 749 49 q 504 -19 594 -19 z "},"Т":{"ha":957,"x_min":33,"x_max":925,"o":"m 421 110 l 421 861 l 146 861 l 143 860 l 143 636 l 33 636 l 33 1054 l 143 1054 l 143 972 l 815 972 l 815 1054 l 925 1054 l 925 636 l 815 636 l 815 860 l 813 861 l 536 861 l 536 110 l 736 110 l 736 0 l 221 0 l 221 110 l 421 110 z "},"У":{"ha":865,"x_min":-82,"x_max":972,"o":"m 196 328 l 196 253 q 234 132 196 178 q 343 86 272 86 q 422 113 389 86 q 456 183 456 140 q 418 285 456 228 l 40 861 l -82 861 l -82 972 l 336 972 l 336 861 l 176 861 l 464 414 q 503 342 489 375 q 525 274 518 310 l 731 861 l 576 861 l 576 972 l 972 972 l 972 861 l 846 861 l 604 188 q 509 38 569 92 q 371 -17 449 -17 q 196 68 249 -17 l 196 -42 l 86 -42 l 86 328 l 196 328 z "},"Ў":{"ha":865,"x_min":-82,"x_max":972,"o":"m 196 328 l 196 253 q 234 132 196 178 q 343 86 272 86 q 422 113 389 86 q 456 183 456 140 q 418 285 456 228 l 40 861 l -82 861 l -82 972 l 336 972 l 336 861 l 176 861 l 464 414 q 503 342 489 375 q 525 274 518 310 l 731 861 l 576 861 l 576 972 l 972 972 l 972 861 l 846 861 l 604 188 q 509 38 569 92 q 371 -17 449 -17 q 196 68 249 -17 l 196 -42 l 86 -42 l 86 328 l 196 328 m 464 1069 q 280 1133 350 1069 q 210 1301 210 1197 l 210 1313 l 306 1313 l 306 1303 q 349 1198 306 1238 q 464 1158 392 1158 q 580 1198 536 1158 q 624 1303 624 1238 l 624 1313 l 718 1313 l 718 1301 q 648 1133 718 1197 q 464 1069 578 1069 z "},"Ф":{"ha":1297,"x_min":40,"x_max":1258,"o":"m 592 99 l 592 206 l 419 206 q 142 283 243 206 q 40 497 40 361 q 87 660 40 590 q 219 767 133 729 q 419 806 304 806 l 592 806 l 592 911 l 364 911 l 364 1019 l 933 1019 l 933 911 l 707 911 l 707 806 l 879 806 q 1081 769 994 806 q 1213 665 1167 733 q 1258 506 1258 597 q 1213 346 1258 414 q 1081 242 1167 278 q 879 206 994 206 l 707 206 l 707 99 l 933 99 l 933 -10 l 364 -10 l 364 99 l 592 99 m 592 700 l 415 700 q 224 649 292 700 q 157 506 157 599 q 224 363 157 414 q 415 311 292 311 l 592 311 l 592 700 m 882 311 q 1073 363 1006 311 q 1140 506 1140 414 q 1074 649 1140 599 q 882 700 1007 700 l 707 700 l 707 311 l 882 311 z "},"Х":{"ha":897,"x_min":-93,"x_max":989,"o":"m -93 110 l 46 110 l 365 492 l 54 861 l -83 861 l -83 972 l 379 972 l 379 861 l 194 861 l 449 550 l 706 861 l 521 861 l 521 972 l 981 972 l 981 861 l 842 861 l 532 493 l 853 110 l 989 110 l 989 0 l 521 0 l 521 110 l 706 110 l 447 426 l 189 110 l 379 110 l 379 0 l -93 0 l -93 110 z "},"Ч":{"ha":988,"x_min":-60,"x_max":947,"o":"m 685 110 l 685 392 l 433 392 q 175 463 268 392 q 82 663 82 535 l 82 861 l -60 861 l -60 972 l 358 972 l 358 861 l 196 861 l 196 675 q 255 545 196 593 q 417 497 314 497 l 685 497 l 685 861 l 542 861 l 542 972 l 947 972 l 947 861 l 800 861 l 800 110 l 947 110 l 947 0 l 404 0 l 404 110 l 685 110 z "},"Ц":{"ha":1154,"x_min":40,"x_max":1115,"o":"m 1004 -3 q 1001 0 1004 0 l 40 0 l 40 110 l 188 110 l 188 861 l 40 861 l 40 972 l 471 972 l 471 861 l 303 861 l 303 110 l 838 110 l 838 861 l 668 861 l 668 972 l 1100 972 l 1100 861 l 953 861 l 953 110 l 1115 110 l 1115 -229 l 1004 -229 l 1004 -3 z "},"Ш":{"ha":1581,"x_min":40,"x_max":1542,"o":"m 40 110 l 188 110 l 188 861 l 40 861 l 40 972 l 425 972 l 425 861 l 303 861 l 303 110 l 733 110 l 733 861 l 608 861 l 608 972 l 971 972 l 971 861 l 849 861 l 849 110 l 1279 110 l 1279 861 l 1154 861 l 1154 972 l 1542 972 l 1542 861 l 1394 861 l 1394 110 l 1542 110 l 1542 0 l 40 0 l 40 110 z "},"Щ":{"ha":1596,"x_min":40,"x_max":1556,"o":"m 1446 -3 q 1443 0 1446 0 l 40 0 l 40 110 l 188 110 l 188 861 l 40 861 l 40 972 l 425 972 l 425 861 l 303 861 l 303 110 l 733 110 l 733 861 l 608 861 l 608 972 l 971 972 l 971 861 l 849 861 l 849 110 l 1279 110 l 1279 861 l 1154 861 l 1154 972 l 1542 972 l 1542 861 l 1394 861 l 1394 110 l 1556 110 l 1556 -229 l 1446 -229 l 1446 -3 z "},"Ь":{"ha":900,"x_min":40,"x_max":858,"o":"m 188 110 l 188 861 l 40 861 l 40 972 l 497 972 l 497 861 l 303 861 l 303 579 l 503 579 q 763 502 668 579 q 858 290 858 425 q 763 78 858 156 q 503 0 668 0 l 40 0 l 40 110 l 188 110 m 506 107 q 678 156 615 107 q 740 292 740 206 q 678 426 740 378 q 506 475 615 475 l 303 475 l 303 107 l 506 107 z "},"Ъ":{"ha":1089,"x_min":33,"x_max":1049,"o":"m 375 110 l 375 861 l 146 861 l 143 860 l 143 636 l 33 636 l 33 1060 l 143 1060 l 143 972 l 671 972 l 671 861 l 490 861 l 490 579 l 692 579 q 953 502 858 579 q 1049 290 1049 425 q 953 78 1049 156 q 692 0 857 0 l 228 0 l 228 110 l 375 110 m 693 107 q 867 156 804 107 q 929 292 929 206 q 867 426 929 378 q 693 475 804 475 l 490 475 l 490 107 l 693 107 z "},"Ы":{"ha":1361,"x_min":40,"x_max":1322,"o":"m 188 110 l 188 861 l 40 861 l 40 972 l 497 972 l 497 861 l 303 861 l 303 579 l 503 579 q 763 502 668 579 q 858 290 858 425 q 763 78 858 156 q 503 0 668 0 l 40 0 l 40 110 l 188 110 m 506 107 q 678 156 615 107 q 740 292 740 206 q 678 426 740 378 q 506 475 615 475 l 303 475 l 303 107 l 506 107 m 913 110 l 1060 110 l 1060 861 l 913 861 l 913 972 l 1322 972 l 1322 861 l 1175 861 l 1175 110 l 1322 110 l 1322 0 l 913 0 l 913 110 z "},"Є":{"ha":1006,"x_min":50,"x_max":904,"o":"m 504 -19 q 273 46 376 -19 q 110 226 169 111 q 50 486 50 342 q 109 746 50 631 q 272 926 168 861 q 503 992 375 992 q 659 960 586 992 q 776 874 732 928 l 776 1018 l 888 1018 l 888 608 l 772 608 l 772 675 q 735 777 772 729 q 638 853 699 825 q 506 882 576 882 q 344 838 417 882 q 225 716 271 794 q 169 539 179 638 l 446 539 l 449 540 l 449 654 l 544 654 l 544 319 l 449 319 l 449 432 q 446 433 449 433 l 169 433 q 225 256 179 335 q 344 134 271 178 q 506 90 417 90 q 647 119 582 90 q 751 199 713 149 q 790 307 790 249 l 790 382 l 904 382 l 904 -19 l 793 -19 l 793 104 q 672 15 749 49 q 504 -19 594 -19 z "},"Э":{"ha":1011,"x_min":107,"x_max":961,"o":"m 221 382 l 221 307 q 260 199 221 249 q 367 120 300 150 q 508 90 433 90 q 671 134 599 90 q 788 256 743 178 q 842 433 832 333 l 579 433 q 576 432 576 433 l 576 319 l 481 319 l 481 654 l 576 654 l 576 540 l 579 539 l 842 539 q 788 717 832 639 q 672 838 743 794 q 511 882 600 882 q 378 853 440 882 q 277 777 315 825 q 239 675 239 729 l 239 608 l 124 608 l 124 1018 l 235 1018 l 235 874 q 358 960 282 928 q 519 992 433 992 q 745 926 644 992 q 903 746 846 861 q 961 486 961 631 q 903 226 961 342 q 744 46 846 111 q 517 -19 643 -19 q 345 15 425 -19 q 218 104 265 49 l 218 -19 l 107 -19 l 107 382 l 221 382 z "},"І":{"ha":489,"x_min":40,"x_max":450,"o":"m 40 110 l 188 110 l 188 861 l 40 861 l 40 972 l 450 972 l 450 861 l 303 861 l 303 110 l 450 110 l 450 0 l 40 0 l 40 110 z "},"Ї":{"ha":489,"x_min":40,"x_max":450,"o":"m 40 110 l 188 110 l 188 861 l 40 861 l 40 972 l 450 972 l 450 861 l 303 861 l 303 110 l 450 110 l 450 0 l 40 0 l 40 110 m 56 1313 l 215 1313 l 142 1071 l 128 1071 l 56 1313 m 257 1313 l 417 1313 l 343 1071 l 329 1071 l 257 1313 z "},"Ю":{"ha":1556,"x_min":40,"x_max":1504,"o":"m 1014 -21 q 778 38 885 -21 q 606 199 672 96 q 529 432 540 301 l 303 432 l 303 110 l 471 110 l 471 0 l 40 0 l 40 110 l 188 110 l 188 861 l 40 861 l 40 972 l 471 972 l 471 861 l 303 861 l 303 542 l 529 542 q 607 774 540 671 q 781 935 674 876 q 1015 993 888 993 q 1265 927 1153 993 q 1440 745 1376 861 q 1504 486 1504 629 q 1440 227 1504 343 q 1265 45 1376 111 q 1014 -21 1153 -21 m 1014 89 q 1204 141 1119 89 q 1338 284 1289 193 q 1386 488 1386 375 q 1338 689 1386 599 q 1204 831 1289 779 q 1014 882 1119 882 q 824 831 908 882 q 692 689 740 779 q 643 486 643 599 q 691 283 643 374 q 824 140 739 192 q 1014 89 908 89 z "},"Я":{"ha":940,"x_min":-68,"x_max":900,"o":"m 40 110 l 307 432 q 142 524 201 456 q 83 694 83 593 q 176 898 83 824 q 428 972 268 972 l 900 972 l 900 861 l 753 861 l 753 110 l 900 110 l 900 0 l 497 0 l 497 110 l 639 110 l 639 410 l 467 410 l 429 411 l 181 110 l 324 110 l 324 0 l -68 0 l -68 110 l 40 110 m 639 867 l 442 867 q 269 819 332 867 q 207 689 207 771 q 269 559 207 607 q 442 511 332 511 l 639 511 l 639 867 z "},"а":{"ha":817,"x_min":54,"x_max":793,"o":"m 276 -15 q 113 38 172 -15 q 54 178 54 90 q 406 399 54 382 q 576 465 576 408 q 526 578 576 536 q 399 621 476 621 q 269 587 329 621 q 208 497 208 553 l 208 450 l 113 450 l 113 729 l 207 729 l 207 632 q 297 688 242 667 q 414 708 351 708 q 611 634 538 708 q 685 435 685 560 l 685 100 l 793 100 l 793 0 l 585 0 l 585 147 q 462 29 546 74 q 276 -15 378 -15 m 307 76 q 447 110 383 76 q 548 198 511 143 q 585 317 585 253 l 585 360 q 525 335 564 343 q 418 321 486 326 q 222 280 283 311 q 160 185 160 249 q 199 104 160 132 q 307 76 238 76 z "},"б":{"ha":831,"x_min":68,"x_max":789,"o":"m 435 -14 q 247 33 331 -14 q 116 165 164 79 q 68 360 68 250 l 68 483 q 451 903 68 872 l 515 908 q 600 928 578 915 q 622 968 622 940 l 622 1022 l 721 1022 l 721 763 l 622 763 l 622 839 q 510 810 607 819 l 461 804 q 239 724 311 790 q 167 533 167 657 l 167 478 q 279 601 201 554 q 451 649 357 649 q 620 607 543 649 q 743 491 697 565 q 789 321 789 417 q 742 150 789 226 q 615 30 696 74 q 435 -14 535 -14 m 431 86 q 558 117 500 86 q 649 201 615 147 q 682 321 682 256 q 649 440 682 386 q 558 524 615 493 q 431 556 500 556 q 303 524 360 556 q 213 440 246 493 q 179 321 179 386 q 212 201 179 256 q 302 117 244 147 q 431 86 360 86 z "},"в":{"ha":769,"x_min":28,"x_max":708,"o":"m 150 100 l 150 594 l 28 594 l 28 694 l 439 694 q 618 647 553 694 q 683 514 683 599 q 653 418 683 458 q 564 357 622 378 l 564 347 q 671 287 633 329 q 708 182 708 244 q 642 48 708 96 q 458 0 576 0 l 28 0 l 28 100 l 150 100 m 428 394 q 534 421 496 394 q 572 496 572 447 q 536 572 572 544 q 435 599 500 599 l 251 599 l 251 394 l 428 394 m 458 96 q 564 123 526 96 q 601 200 601 150 q 562 274 601 247 q 454 301 522 301 l 251 301 l 251 96 l 458 96 z "},"г":{"ha":657,"x_min":28,"x_max":607,"o":"m 150 100 l 150 594 l 28 594 l 28 694 l 507 694 l 507 758 l 607 758 l 607 425 l 507 425 l 507 590 q 504 594 507 594 l 251 594 l 251 100 l 414 100 l 414 0 l 28 0 l 28 100 l 150 100 z "},"ґ":{"ha":657,"x_min":28,"x_max":607,"o":"m 150 -178 l 150 594 l 28 594 l 28 694 l 504 694 q 507 697 507 694 l 507 874 l 607 874 l 607 481 l 507 481 l 507 594 l 251 594 l 251 -178 l 414 -178 l 414 -278 l 28 -278 l 28 -178 l 150 -178 z "},"д":{"ha":817,"x_min":-3,"x_max":796,"o":"m 111 100 q 156 319 138 217 q 183 535 174 422 l 188 594 l 65 594 l 65 694 l 792 694 l 792 594 l 668 594 l 668 100 l 796 100 l 796 -175 l 696 -175 l 696 -3 q 693 0 696 0 l 103 0 q 100 -3 100 0 l 100 -175 l -3 -175 l -3 100 l 111 100 m 568 597 l 283 597 q 206 96 267 360 l 568 96 l 568 597 z "},"е":{"ha":835,"x_min":57,"x_max":761,"o":"m 629 68 q 535 9 594 32 q 406 -14 476 -14 q 228 30 307 -14 q 103 155 149 74 q 57 343 57 236 q 104 532 57 449 q 232 662 151 615 q 411 708 313 708 q 592 663 513 708 q 717 534 672 617 q 761 347 761 451 l 760 300 l 161 300 q 244 140 175 201 q 417 79 314 79 q 513 97 467 79 q 588 144 560 115 q 617 201 617 172 l 617 226 l 724 226 l 724 -15 l 629 -15 l 629 68 m 653 392 q 575 553 642 492 q 408 614 508 614 q 242 551 311 614 q 163 392 174 488 l 653 392 z "},"ё":{"ha":835,"x_min":57,"x_max":761,"o":"m 629 68 q 535 9 594 32 q 406 -14 476 -14 q 228 30 307 -14 q 103 155 149 74 q 57 343 57 236 q 104 532 57 449 q 232 662 151 615 q 411 708 313 708 q 592 663 513 708 q 717 534 672 617 q 761 347 761 451 l 760 300 l 161 300 q 244 140 175 201 q 417 79 314 79 q 513 97 467 79 q 588 144 560 115 q 617 201 617 172 l 617 226 l 724 226 l 724 -15 l 629 -15 l 629 68 m 653 392 q 575 553 642 492 q 408 614 508 614 q 242 551 311 614 q 163 392 174 488 l 653 392 m 215 1035 l 375 1035 l 301 793 l 288 793 l 215 1035 m 417 1035 l 576 1035 l 503 793 l 489 793 l 417 1035 z "},"ж":{"ha":1117,"x_min":-1,"x_max":1118,"o":"m -1 100 l 90 100 l 301 354 l 108 594 l 21 594 l 21 694 l 347 694 l 347 594 l 226 594 l 386 394 l 508 394 l 508 871 l 356 871 l 356 972 l 608 972 l 608 394 l 731 394 l 892 594 l 771 594 l 771 694 l 1097 694 l 1097 594 l 1008 594 l 817 356 l 1028 100 l 1118 100 l 1118 0 l 796 0 l 796 100 l 900 100 l 733 300 l 608 300 l 608 100 l 704 100 l 704 0 l 413 0 l 413 100 l 508 100 l 508 300 l 385 300 l 217 100 l 321 100 l 321 0 l -1 0 l -1 100 z "},"з":{"ha":722,"x_min":69,"x_max":683,"o":"m 165 282 l 165 235 q 229 122 165 167 q 388 78 293 78 q 526 110 475 78 q 576 200 576 143 q 538 275 576 247 q 435 303 500 303 l 410 303 q 409 302 410 303 q 408 301 408 301 l 408 219 l 326 219 l 326 475 l 408 475 l 408 394 q 410 392 408 392 l 431 392 q 522 423 486 392 q 557 500 557 454 q 507 584 557 551 q 378 617 457 617 q 237 577 293 617 q 178 481 181 538 l 178 436 l 86 436 l 86 719 l 181 719 l 181 629 q 388 708 251 708 q 529 683 467 708 q 626 615 592 658 q 661 518 661 572 q 628 419 661 464 q 538 356 596 375 l 538 350 q 647 294 610 335 q 683 194 683 253 q 647 87 683 135 q 544 13 611 39 q 389 -14 476 -14 q 257 9 314 -14 q 165 71 200 32 l 165 -14 l 69 -14 l 69 282 l 165 282 z "},"и":{"ha":875,"x_min":28,"x_max":847,"o":"m 136 594 l 28 594 l 28 694 l 346 694 l 346 594 l 238 594 l 238 163 l 631 694 l 847 694 l 847 594 l 726 594 l 726 100 l 847 100 l 847 0 l 497 0 l 497 86 l 628 86 l 628 540 l 226 -10 l 136 -10 l 136 594 z "},"й":{"ha":875,"x_min":28,"x_max":847,"o":"m 136 594 l 28 594 l 28 694 l 346 694 l 346 594 l 238 594 l 238 163 l 631 694 l 847 694 l 847 594 l 726 594 l 726 100 l 847 100 l 847 0 l 497 0 l 497 86 l 628 86 l 628 540 l 226 -10 l 136 -10 l 136 594 m 439 792 q 255 856 325 792 q 185 1024 185 919 l 185 1035 l 281 1035 l 281 1025 q 324 920 281 960 q 439 881 367 881 q 555 920 511 881 q 599 1025 599 960 l 599 1035 l 693 1035 l 693 1024 q 623 856 693 919 q 439 792 553 792 z "},"к":{"ha":833,"x_min":28,"x_max":821,"o":"m 28 100 l 150 100 l 150 871 l 28 871 l 28 972 l 251 972 l 251 394 l 379 394 l 554 594 l 454 594 l 454 694 l 776 694 l 776 594 l 674 594 l 463 354 l 689 100 l 821 100 l 821 0 l 446 0 l 446 100 l 557 100 l 374 300 l 251 300 l 251 100 l 356 100 l 356 0 l 28 0 l 28 100 z "},"л":{"ha":846,"x_min":-1,"x_max":818,"o":"m 86 -15 q -1 3 35 -15 l -1 107 q 78 92 36 92 q 160 157 132 92 q 194 299 183 213 q 218 536 206 385 q 221 594 221 575 l 113 594 l 113 694 l 818 694 l 818 594 l 696 594 l 696 100 l 818 100 l 818 0 l 464 0 l 464 100 l 596 100 l 596 593 l 319 593 l 317 556 q 290 271 306 386 q 238 82 274 156 q 86 -15 192 -15 z "},"м":{"ha":1097,"x_min":28,"x_max":1069,"o":"m 28 100 l 149 100 l 149 586 l 144 594 l 28 594 l 28 694 l 286 694 l 550 149 l 801 694 l 1069 694 l 1069 594 l 949 594 l 949 100 l 1069 100 l 1069 0 l 733 0 l 733 100 l 850 100 l 850 568 l 847 568 l 589 0 l 510 0 l 249 551 l 247 551 l 247 100 l 365 100 l 365 0 l 28 0 l 28 100 z "},"н":{"ha":889,"x_min":28,"x_max":861,"o":"m 28 100 l 150 100 l 150 594 l 28 594 l 28 694 l 251 694 l 251 394 l 639 394 l 639 594 l 489 594 l 489 694 l 861 694 l 861 594 l 740 594 l 740 100 l 861 100 l 861 0 l 508 0 l 508 100 l 639 100 l 639 300 l 251 300 l 251 100 l 381 100 l 381 0 l 28 0 l 28 100 z "},"о":{"ha":856,"x_min":57,"x_max":799,"o":"m 428 -14 q 239 33 324 -14 q 106 163 154 81 q 57 347 57 246 q 106 531 57 449 q 239 661 154 614 q 428 708 324 708 q 617 661 532 708 q 750 531 701 614 q 799 347 799 449 q 750 163 799 246 q 617 33 701 81 q 428 -14 532 -14 m 428 86 q 563 120 503 86 q 658 214 624 154 q 692 347 692 274 q 658 481 692 421 q 563 574 624 540 q 428 608 503 608 q 292 574 353 608 q 198 481 232 540 q 164 347 164 421 q 198 214 164 274 q 292 120 232 154 q 428 86 353 86 z "},"п":{"ha":889,"x_min":28,"x_max":861,"o":"m 28 100 l 150 100 l 150 594 l 28 594 l 28 694 l 861 694 l 861 594 l 740 594 l 740 100 l 861 100 l 861 0 l 508 0 l 508 100 l 639 100 l 639 599 l 251 599 l 251 100 l 381 100 l 381 0 l 28 0 l 28 100 z "},"р":{"ha":889,"x_min":28,"x_max":832,"o":"m 149 -178 l 149 594 l 28 594 l 28 694 l 242 694 l 242 563 q 346 669 278 629 q 501 708 414 708 q 670 662 594 708 q 789 533 746 615 q 832 347 832 450 q 789 163 832 246 q 670 33 746 81 q 501 -14 594 -14 q 351 24 417 -14 q 250 126 285 63 l 250 -182 l 444 -182 l 444 -278 l 28 -278 l 28 -178 l 149 -178 m 483 86 q 605 120 550 86 q 692 214 660 154 q 724 347 724 274 q 692 481 724 421 q 605 574 660 540 q 483 608 550 608 q 362 574 417 608 q 276 481 307 540 q 244 347 244 421 q 276 214 244 274 q 362 120 307 154 q 483 86 417 86 z "},"с":{"ha":800,"x_min":57,"x_max":711,"o":"m 617 76 q 523 10 581 35 q 397 -14 465 -14 q 224 33 301 -14 q 101 163 146 81 q 57 347 57 246 q 101 531 57 449 q 224 661 146 614 q 397 708 301 708 q 515 686 460 708 q 603 629 569 664 l 603 744 l 697 744 l 697 436 l 597 436 l 597 483 q 567 546 594 517 q 495 592 539 575 q 406 610 451 610 q 283 576 338 610 q 196 481 228 542 q 164 347 164 421 q 196 214 164 274 q 283 120 228 154 q 406 86 338 86 q 504 105 458 86 q 579 156 550 124 q 611 228 608 189 l 611 279 l 711 279 l 711 -15 l 617 -15 l 617 76 z "},"т":{"ha":771,"x_min":32,"x_max":739,"o":"m 336 100 l 336 594 l 135 594 q 132 590 132 594 l 132 425 l 32 425 l 32 757 l 129 757 l 129 694 l 642 694 l 642 757 l 739 757 l 739 425 l 639 425 l 639 590 q 635 594 639 594 l 436 594 l 436 100 l 593 100 l 593 0 l 179 0 l 179 100 l 336 100 z "},"у":{"ha":747,"x_min":-53,"x_max":818,"o":"m 136 19 l 136 -47 q 168 -152 136 -112 q 250 -192 200 -192 q 326 -163 296 -192 q 356 -82 356 -135 l 356 -54 q 349 -8 356 -29 q 328 43 342 13 l 43 594 l -53 594 l -53 694 l 314 694 l 314 594 l 167 594 l 382 169 q 395 135 389 156 q 406 104 401 115 q 417 140 410 125 l 615 594 l 460 594 l 460 694 l 818 694 l 818 594 l 724 594 l 488 65 q 467 6 474 29 q 461 -44 461 -17 l 461 -82 q 407 -232 461 -174 q 269 -290 353 -290 q 190 -271 225 -290 q 136 -222 154 -251 l 136 -286 l 39 -286 l 39 19 l 136 19 z "},"ў":{"ha":747,"x_min":-53,"x_max":818,"o":"m 136 19 l 136 -47 q 168 -152 136 -112 q 250 -192 200 -192 q 326 -163 296 -192 q 356 -82 356 -135 l 356 -54 q 349 -8 356 -29 q 328 43 342 13 l 43 594 l -53 594 l -53 694 l 314 694 l 314 594 l 167 594 l 382 169 q 395 135 389 156 q 406 104 401 115 q 417 140 410 125 l 615 594 l 460 594 l 460 694 l 818 694 l 818 594 l 724 594 l 488 65 q 467 6 474 29 q 461 -44 461 -17 l 461 -82 q 407 -232 461 -174 q 269 -290 353 -290 q 190 -271 225 -290 q 136 -222 154 -251 l 136 -286 l 39 -286 l 39 19 l 136 19 m 381 792 q 197 856 267 792 q 126 1024 126 919 l 126 1035 l 222 1035 l 222 1025 q 265 920 222 960 q 381 881 308 881 q 497 920 453 881 q 540 1025 540 960 l 540 1035 l 635 1035 l 635 1024 q 565 856 635 919 q 381 792 494 792 z "},"ф":{"ha":1250,"x_min":57,"x_max":1193,"o":"m 575 -178 l 575 138 q 483 28 542 68 q 347 -12 424 -12 q 199 35 265 -12 q 95 165 133 82 q 57 347 57 247 q 94 531 57 449 q 199 660 132 613 q 347 707 265 707 q 483 667 424 707 q 575 557 542 626 l 575 871 l 399 871 l 399 972 l 676 972 l 676 557 q 768 666 708 625 q 904 707 828 707 q 1052 660 986 707 q 1156 531 1118 613 q 1193 347 1193 449 q 1156 164 1193 246 q 1052 35 1118 82 q 904 -12 986 -12 q 768 28 828 -12 q 676 138 708 69 l 676 -178 l 853 -178 l 853 -278 l 399 -278 l 399 -178 l 575 -178 m 371 86 q 477 120 429 86 q 552 214 525 154 q 579 347 579 274 q 552 481 579 421 q 477 574 525 540 q 371 608 429 608 q 265 574 313 608 q 191 481 218 540 q 164 347 164 421 q 191 214 164 274 q 265 120 218 154 q 371 86 313 86 m 881 86 q 985 120 939 86 q 1059 214 1032 154 q 1086 347 1086 274 q 1060 481 1086 421 q 986 574 1033 540 q 881 608 939 608 q 774 574 822 608 q 699 481 726 540 q 672 347 672 421 q 699 214 672 274 q 774 120 726 154 q 881 86 822 86 z "},"х":{"ha":775,"x_min":4,"x_max":771,"o":"m 4 100 l 103 100 l 317 351 l 108 594 l 4 594 l 4 694 l 326 694 l 326 594 l 235 594 l 390 411 l 546 594 l 449 594 l 449 694 l 771 694 l 771 594 l 667 594 l 460 353 l 675 100 l 771 100 l 771 0 l 449 0 l 449 100 l 549 100 l 385 292 l 222 100 l 326 100 l 326 0 l 4 0 l 4 100 z "},"ч":{"ha":781,"x_min":-54,"x_max":753,"o":"m 531 90 l 531 276 l 306 276 q 132 331 194 276 q 69 479 69 385 l 69 594 l -54 594 l -54 694 l 169 694 l 169 492 q 208 404 169 436 q 314 372 246 372 l 531 372 l 531 604 l 381 604 l 381 694 l 753 694 l 753 594 l 632 594 l 632 100 l 753 100 l 753 0 l 367 0 l 367 90 l 531 90 z "},"ц":{"ha":885,"x_min":28,"x_max":861,"o":"m 761 -3 q 758 0 761 0 l 28 0 l 28 100 l 150 100 l 150 594 l 28 594 l 28 694 l 251 694 l 251 100 l 639 100 l 639 594 l 489 594 l 489 694 l 861 694 l 861 594 l 740 594 l 740 100 l 861 100 l 861 -175 l 761 -175 l 761 -3 z "},"ш":{"ha":1238,"x_min":28,"x_max":1210,"o":"m 28 100 l 150 100 l 150 594 l 28 594 l 28 694 l 251 694 l 251 96 l 568 96 l 568 594 l 429 594 l 429 694 l 669 694 l 669 96 l 988 96 l 988 594 l 846 594 l 846 694 l 1210 694 l 1210 594 l 1088 594 l 1088 100 l 1210 100 l 1210 0 l 28 0 l 28 100 z "},"щ":{"ha":1236,"x_min":28,"x_max":1210,"o":"m 1108 -3 q 1106 0 1108 0 l 28 0 l 28 100 l 150 100 l 150 594 l 28 594 l 28 694 l 251 694 l 251 96 l 568 96 l 568 594 l 429 594 l 429 694 l 669 694 l 669 96 l 988 96 l 988 594 l 846 594 l 846 694 l 1210 694 l 1210 594 l 1088 594 l 1088 100 l 1210 100 l 1210 -175 l 1108 -175 l 1108 -3 z "},"ь":{"ha":713,"x_min":28,"x_max":672,"o":"m 150 100 l 150 594 l 28 594 l 28 694 l 392 694 l 392 594 l 251 594 l 251 422 l 403 422 q 600 366 528 422 q 672 211 672 310 q 599 57 672 114 q 403 0 526 0 l 28 0 l 28 100 l 150 100 m 407 96 q 522 128 481 96 q 564 217 564 161 q 522 305 564 272 q 407 338 481 338 l 251 338 l 251 96 l 407 96 z "},"ъ":{"ha":857,"x_min":38,"x_max":817,"o":"m 294 100 l 294 599 l 133 599 q 131 596 131 599 l 131 425 l 38 425 l 38 758 l 132 758 l 132 694 l 536 694 l 536 604 l 396 604 l 396 422 l 547 422 q 744 366 672 422 q 817 211 817 310 q 744 57 817 114 q 547 0 671 0 l 172 0 l 172 100 l 294 100 m 551 96 q 667 128 625 96 q 708 217 708 161 q 667 305 708 272 q 551 338 625 338 l 396 338 l 396 96 l 551 96 z "},"ы":{"ha":1104,"x_min":28,"x_max":1076,"o":"m 150 100 l 150 594 l 28 594 l 28 694 l 392 694 l 392 594 l 251 594 l 251 422 l 403 422 q 600 366 528 422 q 672 211 672 310 q 599 57 672 114 q 403 0 526 0 l 28 0 l 28 100 l 150 100 m 407 96 q 522 128 481 96 q 564 217 564 161 q 522 305 564 272 q 407 338 481 338 l 251 338 l 251 96 l 407 96 m 696 100 l 836 100 l 836 594 l 696 594 l 696 694 l 938 694 l 938 100 l 1076 100 l 1076 0 l 696 0 l 696 100 z "},"є":{"ha":797,"x_min":57,"x_max":707,"o":"m 615 76 q 522 10 579 35 q 394 -14 464 -14 q 222 33 299 -14 q 101 163 144 81 q 57 347 57 246 q 101 531 57 449 q 222 661 144 614 q 394 708 299 708 q 513 687 458 708 q 601 631 568 665 l 601 726 l 694 726 l 694 436 l 596 436 l 596 483 q 565 547 594 517 q 490 594 536 576 q 393 613 444 613 q 283 583 335 613 q 200 503 232 554 q 163 392 168 453 l 356 392 l 357 394 l 357 476 l 440 476 l 440 217 l 357 217 l 357 300 q 354 303 357 303 l 163 303 q 200 192 168 243 q 283 109 232 140 q 393 78 333 78 q 497 98 449 78 q 576 152 546 118 q 608 228 606 186 l 608 279 l 707 279 l 707 -15 l 615 -15 l 615 76 z "},"э":{"ha":799,"x_min":92,"x_max":742,"o":"m 190 279 l 190 228 q 223 152 193 186 q 301 98 253 118 q 406 78 350 78 q 513 108 464 78 q 593 190 563 139 q 631 300 624 240 l 440 300 q 438 299 439 300 q 438 297 438 299 l 438 217 l 349 217 l 349 476 l 438 476 l 438 397 l 439 394 l 631 394 q 594 506 625 456 q 513 584 563 556 q 406 613 463 613 q 308 594 354 613 q 233 547 263 576 q 203 483 204 517 l 203 436 l 104 436 l 104 726 l 197 726 l 197 631 q 285 687 231 665 q 404 708 340 708 q 577 661 500 708 q 698 531 654 614 q 742 347 742 449 q 698 163 742 246 q 577 33 654 81 q 404 -14 500 -14 q 277 10 335 -14 q 183 76 219 35 l 183 -15 l 92 -15 l 92 279 l 190 279 z "},"і":{"ha":426,"x_min":28,"x_max":408,"o":"m 28 100 l 168 100 l 168 594 l 28 594 l 28 694 l 269 694 l 269 100 l 408 100 l 408 0 l 28 0 l 28 100 m 110 1035 l 288 1035 l 206 793 l 190 793 l 110 1035 z "},"ї":{"ha":426,"x_min":10,"x_max":408,"o":"m 28 100 l 168 100 l 168 594 l 28 594 l 28 694 l 269 694 l 269 100 l 408 100 l 408 0 l 28 0 l 28 100 m 10 1035 l 169 1035 l 96 793 l 82 793 l 10 1035 m 211 1035 l 371 1035 l 297 793 l 283 793 l 211 1035 z "},"ю":{"ha":1183,"x_min":28,"x_max":1128,"o":"m 767 -14 q 598 26 675 -14 q 472 138 521 67 q 414 300 424 210 l 251 300 l 251 90 l 379 90 l 379 0 l 28 0 l 28 100 l 150 100 l 150 594 l 28 594 l 28 694 l 251 694 l 251 394 l 414 394 q 473 556 425 485 q 598 668 521 628 q 767 708 675 708 q 951 662 869 708 q 1081 533 1033 615 q 1128 347 1128 450 q 1081 163 1128 246 q 951 33 1033 81 q 767 -14 868 -14 m 767 86 q 895 120 838 86 q 986 214 953 154 q 1019 347 1019 274 q 986 481 1019 421 q 895 574 953 540 q 767 608 838 608 q 638 574 696 608 q 548 481 581 540 q 515 347 515 421 q 548 214 515 274 q 638 120 581 154 q 767 86 696 86 z "},"я":{"ha":738,"x_min":-68,"x_max":710,"o":"m 33 100 l 190 293 q 78 365 118 314 q 39 488 39 417 q 110 640 39 585 q 306 694 182 694 l 710 694 l 710 594 l 588 594 l 588 100 l 710 100 l 710 0 l 394 0 l 394 100 l 488 100 l 488 271 l 315 271 q 293 272 300 271 l 158 100 l 268 100 l 268 0 l -68 0 l -68 100 l 33 100 m 488 607 l 296 607 q 185 574 225 607 q 144 485 144 542 q 185 394 144 428 q 296 361 226 361 l 488 361 l 488 607 z "},".":{"ha":364,"x_min":99,"x_max":265,"o":"m 182 -11 q 123 13 147 -11 q 99 74 99 38 q 123 133 99 108 q 182 157 147 157 q 241 133 217 157 q 265 74 265 108 q 241 13 265 38 q 182 -11 217 -11 z "},",":{"ha":358,"x_min":99,"x_max":267,"o":"m 108 -125 q 168 -7 151 -72 l 164 -7 q 116 22 133 0 q 99 72 99 44 q 122 131 99 106 q 181 157 144 157 q 242 134 217 157 q 267 71 267 111 q 239 -35 267 25 q 176 -125 211 -94 l 108 -125 z "},":":{"ha":364,"x_min":99,"x_max":265,"o":"m 182 -11 q 123 13 147 -11 q 99 74 99 38 q 123 133 99 108 q 182 157 147 157 q 241 133 217 157 q 265 74 265 108 q 241 13 265 38 q 182 -11 217 -11 m 182 486 q 123 510 147 486 q 99 571 99 535 q 123 630 99 606 q 182 654 147 654 q 241 630 217 654 q 265 571 265 606 q 241 510 265 535 q 182 486 217 486 z "},";":{"ha":364,"x_min":99,"x_max":267,"o":"m 108 -125 q 168 -7 151 -72 l 164 -7 q 116 22 133 0 q 99 72 99 44 q 122 131 99 106 q 181 157 144 157 q 242 134 217 157 q 267 71 267 111 q 239 -35 267 25 q 176 -125 211 -94 l 108 -125 m 182 486 q 123 510 147 486 q 99 571 99 535 q 123 630 99 606 q 182 654 147 654 q 241 630 217 654 q 265 571 265 606 q 241 510 265 535 q 182 486 217 486 z "},"…":{"ha":1069,"x_min":99,"x_max":971,"o":"m 182 -11 q 123 13 147 -11 q 99 74 99 38 q 123 133 99 108 q 182 157 147 157 q 241 133 217 157 q 265 74 265 108 q 241 13 265 38 q 182 -11 217 -11 m 535 -11 q 476 13 500 -11 q 451 74 451 38 q 476 133 451 108 q 535 157 500 157 q 594 133 569 157 q 618 74 618 108 q 594 13 618 38 q 535 -11 569 -11 m 888 -11 q 828 13 853 -11 q 804 74 804 38 q 828 133 804 108 q 888 157 853 157 q 947 133 922 157 q 971 74 971 108 q 947 13 971 38 q 888 -11 922 -11 z "},"!":{"ha":476,"x_min":40,"x_max":438,"o":"m 188 861 l 40 861 l 40 972 l 438 972 l 438 861 l 290 861 l 281 307 l 196 307 l 188 861 m 239 -11 q 180 13 204 -11 q 156 74 156 38 q 180 133 156 108 q 239 157 204 157 q 298 133 274 157 q 322 74 322 108 q 298 13 322 38 q 239 -11 274 -11 z "},"¡":{"ha":476,"x_min":39,"x_max":438,"o":"m 238 706 q 297 681 272 706 q 321 621 321 657 q 297 562 321 586 q 238 538 272 538 q 178 562 203 538 q 154 621 154 586 q 178 681 154 657 q 238 706 203 706 m 438 -167 l 438 -278 l 39 -278 l 39 -167 l 186 -167 l 196 388 l 281 388 l 290 -167 l 438 -167 z "},"?":{"ha":842,"x_min":88,"x_max":736,"o":"m 333 299 q 331 326 331 315 q 351 424 331 383 q 402 492 371 464 q 486 556 433 521 q 585 640 557 606 q 614 729 614 674 q 557 847 614 804 q 415 889 500 889 q 311 865 363 889 q 227 797 260 840 q 194 696 194 753 l 194 622 l 88 622 l 88 1017 l 190 1017 l 190 883 q 290 963 222 932 q 435 993 357 993 q 588 962 519 993 q 696 872 656 931 q 736 732 736 813 q 690 592 736 649 q 556 486 644 536 q 465 407 494 447 q 436 299 436 367 l 333 299 m 394 -11 q 335 13 360 -11 q 311 74 311 38 q 335 133 311 108 q 394 157 360 157 q 453 133 429 157 q 478 74 478 108 q 453 13 478 38 q 394 -11 429 -11 z "},"¿":{"ha":819,"x_min":83,"x_max":732,"o":"m 425 706 q 484 681 460 706 q 508 621 508 657 q 484 562 508 586 q 425 538 460 538 q 366 562 390 538 q 342 621 342 586 q 366 681 342 657 q 425 706 390 706 m 486 396 q 488 350 488 381 q 444 233 482 278 q 333 139 407 189 q 234 55 263 89 q 206 -35 206 21 q 262 -152 206 -110 q 404 -194 318 -194 q 508 -170 457 -194 q 592 -102 560 -146 q 625 -1 625 -58 l 625 72 l 732 72 l 732 -322 l 629 -322 l 629 -189 q 530 -268 597 -237 q 385 -299 463 -299 q 232 -267 300 -299 q 124 -177 164 -236 q 83 -37 83 -118 q 128 103 83 47 q 264 208 174 158 q 354 288 325 247 q 383 396 383 328 l 486 396 z "},"·":{"ha":364,"x_min":99,"x_max":265,"o":"m 182 335 q 123 359 147 335 q 99 419 99 383 q 123 478 99 454 q 182 503 147 503 q 241 478 217 503 q 265 419 265 454 q 241 359 265 383 q 182 335 217 335 z "},"•":{"ha":732,"x_min":226,"x_max":504,"o":"m 365 278 q 267 317 307 278 q 226 417 226 357 q 267 516 226 476 q 365 556 307 556 q 465 516 425 556 q 504 417 504 476 q 465 317 504 357 q 365 278 425 278 z "},"*":{"ha":542,"x_min":42,"x_max":500,"o":"m 294 797 l 460 797 l 486 701 l 392 674 l 283 769 l 296 631 l 244 631 l 257 769 l 150 674 l 54 701 l 81 797 l 246 797 l 42 860 l 42 956 l 131 979 l 253 833 l 183 1029 l 271 1103 l 358 1029 l 289 833 l 411 979 l 500 956 l 500 860 l 294 797 z "},"#":{"ha":972,"x_min":96,"x_max":876,"o":"m 696 636 l 696 338 l 876 338 l 876 229 l 696 229 l 696 -21 l 594 -21 l 594 229 l 379 229 l 379 -21 l 278 -21 l 278 229 l 96 229 l 96 338 l 278 338 l 278 636 l 96 636 l 96 743 l 278 743 l 278 993 l 379 993 l 379 743 l 594 743 l 594 993 l 696 993 l 696 743 l 876 743 l 876 636 l 696 636 m 594 636 l 379 636 l 379 338 l 594 338 l 594 636 z "},"/":{"ha":668,"x_min":46,"x_max":624,"o":"m 624 972 l 154 0 l 46 0 l 514 972 l 624 972 z "},"\\":{"ha":668,"x_min":46,"x_max":624,"o":"m 154 972 l 624 0 l 515 0 l 46 972 l 154 972 z "},"(":{"ha":694,"x_min":149,"x_max":528,"o":"m 528 -160 q 328 -79 414 -160 q 196 148 243 1 q 149 486 149 294 q 196 825 149 679 q 328 1051 243 971 q 528 1132 414 1132 l 528 1031 q 383 963 446 1031 q 287 772 321 896 q 253 486 253 649 q 287 200 253 324 q 383 8 321 76 q 528 -60 446 -60 l 528 -160 z "},")":{"ha":694,"x_min":167,"x_max":546,"o":"m 167 1132 q 366 1051 281 1132 q 499 824 451 971 q 546 486 546 678 q 499 147 546 293 q 366 -79 451 1 q 167 -160 281 -160 l 167 -58 q 311 9 249 -58 q 408 200 374 76 q 442 486 442 324 q 408 772 442 649 q 311 963 374 896 q 167 1031 249 1031 l 167 1132 z "},"{":{"ha":694,"x_min":122,"x_max":556,"o":"m 422 -160 q 282 -116 336 -160 q 228 21 228 -72 q 250 186 228 67 q 263 267 257 226 q 269 331 269 307 q 246 409 269 382 q 179 436 222 436 l 122 436 l 122 538 l 179 538 q 246 564 222 538 q 269 642 269 590 q 263 706 269 665 q 250 786 257 746 q 228 951 228 906 q 282 1088 228 1044 q 422 1132 336 1132 q 556 1111 490 1132 l 556 1008 q 446 1032 504 1032 q 364 1004 396 1032 q 332 919 332 976 q 349 794 332 892 q 368 640 368 686 q 263 486 368 515 q 368 332 368 457 q 349 178 368 286 q 332 53 332 81 q 364 -32 332 -4 q 446 -60 396 -60 q 556 -36 504 -60 l 556 -139 q 422 -160 492 -160 z "},"}":{"ha":694,"x_min":139,"x_max":572,"o":"m 272 1132 q 413 1088 358 1132 q 467 951 467 1044 q 444 788 467 904 q 425 640 425 674 q 449 563 425 590 q 515 536 472 536 l 572 536 l 572 435 l 515 435 q 449 408 472 435 q 425 331 425 382 q 431 267 425 307 q 444 186 438 226 q 467 21 467 67 q 413 -116 467 -72 q 272 -160 358 -160 q 139 -139 203 -160 l 139 -36 q 249 -60 190 -60 q 331 -31 299 -60 q 363 54 363 -3 q 346 176 363 82 q 326 332 326 285 q 432 486 326 457 q 326 640 326 515 q 346 796 326 688 q 363 918 363 890 q 331 1003 363 975 q 249 1032 299 1032 q 139 1008 190 1032 l 139 1111 q 272 1132 203 1132 z "},"[":{"ha":694,"x_min":203,"x_max":561,"o":"m 203 1111 l 561 1111 l 561 1010 l 303 1010 l 303 -39 l 561 -39 l 561 -139 l 203 -139 l 203 1111 z "},"]":{"ha":694,"x_min":133,"x_max":492,"o":"m 133 -139 l 133 -37 l 392 -37 l 392 1010 l 133 1010 l 133 1111 l 492 1111 l 492 -139 l 133 -139 z "},"-":{"ha":556,"x_min":101,"x_max":464,"o":"m 101 468 l 464 468 l 464 367 l 101 367 l 101 468 z "},"–":{"ha":750,"x_min":101,"x_max":658,"o":"m 101 468 l 658 468 l 658 367 l 101 367 l 101 468 z "},"—":{"ha":972,"x_min":101,"x_max":881,"o":"m 101 468 l 881 468 l 881 367 l 101 367 l 101 468 z "},"_":{"ha":640,"x_min":42,"x_max":599,"o":"m 42 28 l 599 28 l 599 -74 l 42 -74 l 42 28 z "},"‚":{"ha":274,"x_min":61,"x_max":229,"o":"m 71 -125 q 131 -7 114 -72 l 126 -7 q 78 22 96 0 q 61 72 61 44 q 84 131 61 106 q 143 157 107 157 q 204 134 179 157 q 229 71 229 111 q 201 -35 229 25 q 139 -125 174 -94 l 71 -125 z "},"„":{"ha":521,"x_min":61,"x_max":476,"o":"m 71 -125 q 131 -7 114 -72 l 126 -7 q 78 22 96 0 q 61 72 61 44 q 84 131 61 106 q 143 157 107 157 q 204 134 179 157 q 229 71 229 111 q 201 -35 229 25 q 139 -125 174 -94 l 71 -125 m 318 -125 q 378 -7 361 -72 l 374 -7 q 326 22 343 0 q 308 72 308 44 q 331 131 308 106 q 390 157 354 157 q 451 134 426 157 q 476 71 476 111 q 449 -35 476 25 q 386 -125 421 -94 l 318 -125 z "},"“":{"ha":521,"x_min":46,"x_max":461,"o":"m 203 986 q 144 868 158 928 l 149 868 q 197 839 179 861 q 214 789 214 817 q 191 730 214 756 q 131 704 168 704 q 71 727 96 704 q 46 790 46 750 q 74 896 46 836 q 136 986 101 956 l 203 986 m 450 986 q 392 868 408 932 l 396 868 q 444 839 426 861 q 461 789 461 817 q 438 730 461 756 q 379 704 415 704 q 318 727 343 704 q 293 790 293 750 q 321 896 293 836 q 383 986 349 956 l 450 986 z "},"”":{"ha":521,"x_min":61,"x_max":476,"o":"m 71 711 q 131 829 114 764 l 126 829 q 78 858 96 836 q 61 908 61 881 q 84 967 61 942 q 143 993 107 993 q 204 970 179 993 q 229 907 229 947 q 201 801 229 861 q 139 711 174 742 l 71 711 m 318 711 q 378 829 361 764 l 374 829 q 326 858 343 836 q 308 908 308 881 q 331 967 308 942 q 390 993 354 993 q 451 970 426 993 q 476 907 476 947 q 449 801 476 861 q 386 711 421 742 l 318 711 z "},"‘":{"ha":274,"x_min":46,"x_max":214,"o":"m 203 986 q 144 868 158 928 l 149 868 q 197 839 179 861 q 214 789 214 817 q 191 730 214 756 q 131 704 168 704 q 71 727 96 704 q 46 790 46 750 q 73 896 46 836 q 135 986 100 956 l 203 986 z "},"’":{"ha":274,"x_min":61,"x_max":229,"o":"m 71 711 q 131 829 114 764 l 126 829 q 78 858 96 836 q 61 908 61 881 q 84 967 61 942 q 143 993 107 993 q 204 970 179 993 q 229 907 229 947 q 201 801 229 861 q 139 711 174 742 l 71 711 z "},"«":{"ha":749,"x_min":96,"x_max":654,"o":"m 213 417 l 364 139 l 243 139 l 96 408 l 96 425 l 243 694 l 364 694 l 213 417 m 503 417 l 654 139 l 533 139 l 386 408 l 386 425 l 533 694 l 654 694 l 503 417 z "},"»":{"ha":749,"x_min":96,"x_max":654,"o":"z "},"‹":{"ha":458,"x_min":94,"x_max":363,"o":"m 211 417 l 363 139 l 242 139 l 94 408 l 94 425 l 242 694 l 363 694 l 211 417 z "},"›":{"ha":467,"x_min":96,"x_max":364,"o":"m 247 417 l 96 694 l 217 694 l 364 425 l 364 408 l 217 139 l 96 139 l 247 417 z "},"\"":{"ha":465,"x_min":58,"x_max":407,"o":"m 194 972 l 133 692 l 119 692 l 58 972 l 194 972 m 407 972 l 346 692 l 332 692 l 271 972 l 407 972 z "},"'":{"ha":253,"x_min":58,"x_max":194,"o":"m 194 972 l 133 692 l 119 692 l 58 972 l 194 972 z "}," ":{"ha":347,"x_min":0,"x_max":0,"o":""},"¢":{"ha":972,"x_min":103,"x_max":757,"o":"m 414 129 q 254 185 325 136 q 143 313 183 233 q 103 489 103 393 q 143 666 103 586 q 254 794 183 746 q 414 849 325 842 l 414 1014 l 500 1014 l 500 844 q 585 817 546 836 q 649 771 624 797 l 649 886 l 743 886 l 743 578 l 643 578 l 643 625 q 615 686 643 657 q 543 733 588 715 q 451 751 499 751 q 328 717 383 751 q 240 623 272 683 q 208 489 208 563 q 240 356 208 415 q 328 262 272 296 q 451 228 383 228 q 551 249 503 228 q 628 302 599 269 q 657 369 657 335 l 657 421 l 757 421 l 757 126 l 663 126 l 663 218 q 593 164 635 186 q 500 133 551 142 l 500 -42 l 414 -42 l 414 129 z "},"¤":{"ha":972,"x_min":99,"x_max":875,"o":"m 228 304 q 168 486 168 383 q 183 583 168 536 q 228 667 199 629 l 99 797 l 176 875 l 304 746 q 486 806 383 806 q 583 790 536 806 q 667 746 629 775 l 797 875 l 875 797 l 746 667 q 790 583 775 629 q 806 486 806 536 q 746 304 806 383 l 875 176 l 797 99 l 667 228 q 583 183 629 199 q 486 168 536 168 q 304 228 383 168 l 176 99 l 99 176 l 228 304 m 486 278 q 592 306 543 278 q 668 381 640 333 q 696 486 696 429 q 668 592 696 543 q 592 668 640 640 q 486 696 543 696 q 381 668 429 696 q 306 592 333 640 q 278 486 278 543 q 306 381 278 429 q 381 306 333 333 q 486 278 429 278 z "},"$":{"ha":972,"x_min":111,"x_max":917,"o":"m 465 -11 q 324 36 386 1 q 222 124 263 71 l 222 -18 l 111 -18 l 111 374 l 224 374 l 224 321 q 269 206 224 260 q 393 119 315 151 q 561 86 471 86 q 733 128 668 86 q 799 242 799 171 q 759 328 799 294 q 661 382 719 361 q 483 436 603 403 q 308 495 378 465 q 185 583 238 525 q 133 732 133 640 q 226 924 133 856 q 465 993 318 993 l 469 993 l 469 1153 l 556 1153 l 556 983 q 685 942 626 974 q 783 863 744 910 l 783 1013 l 893 1013 l 893 629 l 785 629 l 785 675 q 740 775 785 725 q 623 858 696 825 q 467 890 550 890 q 307 849 367 890 q 247 735 247 807 q 286 640 247 676 q 385 582 325 603 q 558 531 444 561 q 745 471 675 499 q 866 388 815 443 q 917 246 917 333 q 872 103 917 164 q 747 11 826 43 q 568 -21 668 -21 l 551 -21 l 551 -181 l 465 -181 l 465 -11 z "},"€":{"ha":972,"x_min":24,"x_max":886,"o":"m 793 96 q 675 11 747 43 q 521 -21 603 -21 q 342 26 425 -21 q 203 158 260 72 q 125 358 146 244 l 24 358 l 24 431 l 115 431 q 114 486 114 450 q 115 540 114 524 l 24 540 l 24 614 l 125 614 q 203 814 146 728 q 342 947 260 900 q 521 993 425 993 q 675 961 603 993 q 793 876 747 929 l 793 1017 l 886 1017 l 886 626 l 775 626 l 775 694 q 741 792 775 747 q 651 861 707 836 q 535 886 596 886 q 349 812 426 886 q 250 614 272 738 l 583 614 l 583 540 l 239 540 q 235 486 235 515 q 239 431 235 458 l 583 431 l 583 358 l 250 358 q 349 160 272 235 q 535 86 426 86 q 651 112 596 86 q 741 181 707 138 q 775 279 775 225 l 775 346 l 886 346 l 886 -17 l 793 -17 l 793 96 z "},"₴":{"ha":972,"x_min":57,"x_max":917,"o":"m 767 107 q 637 13 717 47 q 456 -21 557 -21 q 281 10 356 -21 q 165 95 206 40 q 124 224 124 150 q 186 358 124 303 l 57 358 l 57 431 l 268 431 q 446 497 318 458 q 567 540 546 532 l 57 540 l 57 614 l 653 614 q 721 733 721 660 q 661 852 721 808 q 500 896 601 896 q 381 873 439 896 q 289 813 324 850 q 254 735 254 775 l 254 669 l 138 669 l 138 1019 l 243 1019 l 243 888 q 362 965 289 936 q 519 993 435 993 q 756 928 669 993 q 842 751 842 864 q 783 614 842 672 l 917 614 l 917 540 l 711 540 q 551 479 665 514 q 418 431 454 449 l 917 431 l 917 358 l 321 358 q 244 242 244 314 q 308 122 244 167 q 474 76 371 76 q 602 101 542 76 q 699 169 663 126 q 735 260 735 211 l 735 303 l 872 303 l 872 -26 l 767 -26 l 767 107 z "},"₽":{"ha":972,"x_min":64,"x_max":886,"o":"m 221 110 l 221 261 l 64 261 l 64 333 l 221 333 l 221 425 l 64 425 l 64 497 l 221 497 l 221 861 l 64 861 l 64 972 l 547 972 q 795 899 704 972 q 886 700 886 826 q 795 499 886 572 q 547 425 704 425 l 344 425 l 344 333 l 794 333 l 794 261 l 344 261 l 344 110 l 549 110 l 549 0 l 64 0 l 64 110 l 221 110 m 528 497 q 698 547 636 497 q 760 681 760 596 q 698 813 760 764 q 528 861 636 861 l 344 861 l 344 497 l 528 497 z "},"£":{"ha":972,"x_min":8,"x_max":913,"o":"m 178 -21 q 57 20 106 -21 q 8 131 8 61 q 52 237 8 194 q 168 279 96 279 q 232 268 200 279 q 306 236 264 257 l 306 256 q 293 317 306 283 q 258 399 281 351 l 236 450 l 57 450 l 57 522 l 199 522 q 164 685 164 614 q 203 848 164 778 q 313 956 242 918 q 475 994 383 994 q 623 965 557 994 q 732 886 689 936 l 732 1008 l 828 1008 l 828 643 l 719 643 l 719 710 q 686 802 718 760 q 602 869 654 844 q 490 894 550 894 q 335 834 394 894 q 276 671 276 774 q 311 522 276 607 l 703 522 l 703 450 l 339 450 q 357 408 350 422 q 396 306 383 346 q 408 225 408 267 q 406 190 408 213 q 471 151 417 183 q 574 101 525 118 q 663 83 622 83 q 767 127 731 83 q 804 253 804 171 q 799 325 804 292 l 904 325 q 913 239 913 278 q 845 44 913 110 q 676 -21 778 -21 q 533 10 601 -21 q 371 101 465 42 q 291 13 343 46 q 178 -21 239 -21 m 178 64 q 255 87 219 64 q 304 147 290 110 q 167 196 228 196 q 115 177 135 196 q 96 129 96 158 q 118 82 96 100 q 178 64 140 64 z "},"¥":{"ha":972,"x_min":-37,"x_max":1010,"o":"m 247 90 l 432 90 l 432 254 l 100 254 l 100 326 l 432 326 l 432 374 l 383 436 l 100 436 l 100 508 l 331 508 l 83 861 l -37 861 l -37 972 l 386 972 l 386 861 l 214 861 l 489 461 l 764 861 l 589 861 l 589 972 l 1010 972 l 1010 861 l 889 861 l 642 508 l 872 508 l 872 436 l 589 436 l 540 374 l 540 326 l 872 326 l 872 254 l 540 254 l 540 90 l 726 90 l 726 0 l 247 0 l 247 90 z "},"+":{"ha":778,"x_min":101,"x_max":676,"o":"m 676 436 l 440 436 l 440 199 l 339 199 l 339 436 l 101 436 l 101 538 l 339 538 l 339 774 l 440 774 l 440 538 l 676 538 l 676 436 z "},"−":{"ha":778,"x_min":101,"x_max":676,"o":"m 101 538 l 676 538 l 676 436 l 101 436 l 101 538 z "},"×":{"ha":778,"x_min":124,"x_max":656,"o":"m 124 292 l 318 486 l 124 681 l 194 753 l 389 558 l 583 753 l 656 681 l 461 486 l 656 292 l 583 221 l 389 415 l 194 221 l 124 292 z "},"÷":{"ha":778,"x_min":90,"x_max":688,"o":"m 389 681 q 333 703 356 681 q 311 760 311 726 q 333 814 311 792 q 389 836 356 836 q 445 814 422 836 q 468 760 468 792 q 445 703 468 726 q 389 681 422 681 m 90 538 l 688 538 l 688 436 l 90 436 l 90 538 m 389 136 q 333 158 356 136 q 311 214 311 181 q 333 269 311 247 q 389 292 356 292 q 445 269 422 292 q 468 214 468 247 q 445 158 468 181 q 389 136 422 136 z "},"=":{"ha":778,"x_min":101,"x_max":676,"o":"m 101 682 l 676 682 l 676 581 l 101 581 l 101 682 m 101 393 l 676 393 l 676 292 l 101 292 l 101 393 z "},"≠":{"ha":778,"x_min":101,"x_max":676,"o":"m 483 581 l 394 393 l 676 393 l 676 292 l 353 292 l 293 160 l 193 160 l 254 292 l 101 292 l 101 393 l 294 393 l 385 581 l 101 581 l 101 682 l 425 682 l 486 813 l 585 813 l 524 682 l 676 682 l 676 581 l 483 581 z "},">":{"ha":778,"x_min":101,"x_max":676,"o":"m 101 289 l 517 485 l 101 678 l 101 792 l 676 521 l 676 451 l 101 182 l 101 289 z "},"<":{"ha":778,"x_min":101,"x_max":676,"o":"m 676 683 l 261 489 l 676 293 l 676 182 l 101 451 l 101 521 l 676 792 l 676 683 z "},"≥":{"ha":778,"x_min":101,"x_max":676,"o":"m 101 381 l 517 575 l 101 771 l 101 882 l 676 613 l 676 543 l 101 272 l 101 381 m 101 200 l 676 200 l 676 100 l 101 100 l 101 200 z "},"≤":{"ha":778,"x_min":101,"x_max":676,"o":"m 676 775 l 261 579 l 676 386 l 676 272 l 101 543 l 101 613 l 676 882 l 676 775 m 101 200 l 676 200 l 676 100 l 101 100 l 101 200 z "},"±":{"ha":778,"x_min":101,"x_max":676,"o":"m 440 631 l 676 631 l 676 531 l 440 531 l 440 292 l 339 292 l 339 531 l 101 531 l 101 631 l 339 631 l 339 867 l 440 867 l 440 631 m 101 100 l 101 200 l 676 200 l 676 100 l 101 100 z "},"≈":{"ha":778,"x_min":100,"x_max":679,"o":"m 100 544 q 141 669 100 624 q 246 715 182 715 q 316 705 285 715 q 393 672 347 694 q 452 649 426 657 q 503 640 478 640 q 557 660 535 640 q 579 708 579 681 l 679 708 q 638 584 679 629 q 532 539 597 539 q 461 549 493 539 q 388 581 429 560 q 322 606 344 599 q 275 614 300 614 q 222 594 244 614 q 200 544 200 574 l 100 544 m 100 265 q 141 390 100 344 q 246 436 182 436 q 316 426 285 436 q 393 393 347 415 q 456 369 433 376 q 503 361 478 361 q 557 381 535 361 q 579 431 579 401 l 679 431 q 638 306 679 351 q 532 260 597 260 q 461 270 493 260 q 388 301 429 281 q 322 327 344 319 q 275 335 300 335 q 222 315 244 335 q 200 265 200 294 l 100 265 z "},"~":{"ha":778,"x_min":100,"x_max":679,"o":"m 100 406 q 142 530 100 483 q 246 576 183 576 q 316 566 285 576 q 393 533 347 556 q 452 510 426 518 q 503 501 478 501 q 557 522 535 501 q 579 569 579 542 l 679 569 q 638 445 679 490 q 532 400 597 400 q 461 410 493 400 q 388 442 429 421 q 325 466 349 458 q 275 474 301 474 q 222 453 244 474 q 200 406 200 433 l 100 406 z "},"¬":{"ha":778,"x_min":101,"x_max":676,"o":"m 676 538 l 676 199 l 576 199 l 576 436 l 101 436 l 101 538 l 676 538 z "},"^":{"ha":778,"x_min":100,"x_max":678,"o":"m 349 972 l 429 972 l 678 540 l 565 540 l 389 849 l 211 540 l 100 540 l 349 972 z "},"%":{"ha":1072,"x_min":46,"x_max":1046,"o":"m 279 510 q 160 541 214 510 q 76 626 107 572 q 46 746 46 681 q 76 863 46 810 q 160 948 107 917 q 279 979 214 979 q 398 948 344 979 q 483 863 451 917 q 514 746 514 810 q 483 626 514 681 q 398 541 451 572 q 279 510 344 510 m 892 972 l 300 0 l 201 0 l 793 972 l 892 972 m 279 596 q 385 639 342 596 q 428 746 428 682 q 385 851 428 808 q 279 893 342 893 q 174 851 217 893 q 132 746 132 808 q 174 639 132 682 q 279 596 217 596 m 811 -7 q 692 24 746 -7 q 608 109 639 56 q 578 228 578 163 q 608 347 578 293 q 692 431 639 400 q 811 461 746 461 q 930 431 876 461 q 1015 347 983 400 q 1046 228 1046 293 q 1015 109 1046 163 q 930 24 983 56 q 811 -7 876 -7 m 811 79 q 917 122 874 79 q 960 228 960 165 q 917 333 960 290 q 811 375 874 375 q 706 333 749 375 q 664 228 664 290 q 706 122 664 165 q 811 79 749 79 z "},"‰":{"ha":1631,"x_min":46,"x_max":1586,"o":"m 279 510 q 160 541 214 510 q 76 626 107 572 q 46 746 46 681 q 76 863 46 810 q 160 948 107 917 q 279 979 214 979 q 398 948 344 979 q 483 863 451 917 q 514 746 514 810 q 483 626 514 681 q 398 541 451 572 q 279 510 344 510 m 300 0 l 201 0 l 793 972 l 892 972 l 300 0 m 279 596 q 385 639 342 596 q 428 746 428 682 q 385 851 428 808 q 279 893 342 893 q 174 851 217 893 q 132 746 132 808 q 174 639 132 682 q 279 596 217 596 m 811 -7 q 692 24 746 -7 q 608 109 639 56 q 578 228 578 163 q 608 347 578 293 q 692 431 639 400 q 811 461 746 461 q 930 431 876 461 q 1015 347 983 400 q 1046 228 1046 293 q 1015 109 1046 163 q 930 24 983 56 q 811 -7 876 -7 m 1350 -7 q 1233 24 1286 -7 q 1148 109 1179 56 q 1117 228 1117 163 q 1148 347 1117 293 q 1233 431 1179 400 q 1350 461 1286 461 q 1469 431 1415 461 q 1555 347 1524 400 q 1586 228 1586 293 q 1555 109 1586 163 q 1469 24 1524 56 q 1350 -7 1415 -7 m 811 79 q 917 122 874 79 q 960 228 960 165 q 917 333 960 290 q 811 375 874 375 q 706 333 749 375 q 664 228 664 290 q 706 122 664 165 q 811 79 749 79 m 1350 79 q 1457 122 1414 79 q 1500 228 1500 165 q 1457 333 1500 290 q 1350 375 1414 375 q 1245 333 1288 375 q 1203 228 1203 290 q 1245 122 1203 165 q 1350 79 1288 79 z "},"↑":{"ha":972,"x_min":160,"x_max":813,"o":"m 735 414 l 540 750 l 536 750 l 536 0 l 435 0 l 435 750 l 431 750 l 238 414 l 160 471 l 475 972 l 497 972 l 813 471 l 735 414 z "},"↗":{"ha":972,"x_min":107,"x_max":838,"o":"m 611 260 l 711 635 l 708 639 l 178 108 l 107 179 l 636 710 l 633 713 l 258 611 l 244 708 l 822 839 l 838 824 l 707 246 l 611 260 z "},"→":{"ha":972,"x_min":0,"x_max":972,"o":"m 414 238 l 750 432 l 750 436 l 0 436 l 0 538 l 750 538 l 750 542 l 414 735 l 471 813 l 972 497 l 972 475 l 471 160 l 414 238 z "},"↘":{"ha":972,"x_min":107,"x_max":838,"o":"m 258 361 l 633 261 l 638 264 l 107 794 l 178 865 l 708 336 l 711 339 l 610 714 l 707 728 l 838 150 l 822 135 l 244 265 l 258 361 z "},"↓":{"ha":972,"x_min":160,"x_max":813,"o":"m 238 558 l 432 222 l 436 222 l 436 972 l 538 972 l 538 222 l 542 222 l 735 558 l 813 500 l 497 0 l 475 0 l 160 500 l 238 558 z "},"↙":{"ha":972,"x_min":135,"x_max":865,"o":"m 361 714 l 261 339 l 264 335 l 794 865 l 865 794 l 336 264 l 339 261 l 714 363 l 728 265 l 150 135 l 135 150 l 265 728 l 361 714 z "},"←":{"ha":972,"x_min":0,"x_max":972,"o":"m 558 736 l 222 542 l 222 538 l 972 538 l 972 436 l 222 436 l 222 432 l 558 239 l 500 161 l 0 476 l 0 499 l 500 815 l 558 736 z "},"↖":{"ha":972,"x_min":135,"x_max":865,"o":"m 714 613 l 339 713 l 335 710 l 865 179 l 794 108 l 264 638 l 261 635 l 363 260 l 265 246 l 135 824 l 150 839 l 728 708 l 714 613 z "},"↔":{"ha":1278,"x_min":-4,"x_max":1283,"o":"m 478 799 l 538 721 l 213 536 l 213 531 l 1067 531 l 1067 536 l 742 721 l 800 799 l 1283 497 l 1283 475 l 800 174 l 742 251 l 1067 436 l 1067 440 l 213 440 l 213 436 l 538 251 l 478 174 l -4 475 l -4 497 l 478 799 z "},"↕":{"ha":972,"x_min":174,"x_max":799,"o":"m 174 325 l 251 385 l 436 60 l 442 60 l 442 914 l 436 914 l 251 589 l 174 647 l 475 1129 l 497 1129 l 799 647 l 721 589 l 536 914 l 532 914 l 532 60 l 536 60 l 721 385 l 799 325 l 497 -158 l 475 -158 l 174 325 z "},"↰":{"ha":1014,"x_min":0,"x_max":972,"o":"m 972 536 l 972 0 l 871 0 l 871 435 l 222 435 l 222 431 l 558 238 l 500 160 l 0 475 l 0 497 l 500 813 l 558 735 l 222 540 l 222 536 l 972 536 z "},"↱":{"ha":1014,"x_min":42,"x_max":1014,"o":"m 513 813 l 1014 497 l 1014 475 l 513 160 l 456 238 l 792 431 l 792 435 l 142 435 l 142 0 l 42 0 l 42 536 l 792 536 l 792 540 l 456 735 l 513 813 z "},"↲":{"ha":1014,"x_min":0,"x_max":972,"o":"m 871 972 l 972 972 l 972 436 l 222 436 l 222 432 l 558 238 l 500 160 l 0 475 l 0 497 l 500 813 l 558 735 l 222 542 l 222 538 l 871 538 l 871 972 z "},"↳":{"ha":1014,"x_min":42,"x_max":1014,"o":"m 513 813 l 1014 497 l 1014 475 l 513 160 l 456 238 l 792 432 l 792 436 l 42 436 l 42 972 l 142 972 l 142 538 l 792 538 l 792 542 l 456 735 l 513 813 z "},"★":{"ha":1478,"x_min":167,"x_max":1311,"o":"m 1311 519 l 800 363 l 1213 363 l 1279 124 l 1042 53 l 772 293 l 803 -54 l 675 -54 l 706 293 l 436 53 l 199 124 l 265 363 l 678 363 l 167 519 l 167 760 l 389 817 l 694 451 l 519 942 l 739 1126 l 958 942 l 783 451 l 1089 817 l 1311 760 l 1311 519 z "},"@":{"ha":1139,"x_min":63,"x_max":1076,"o":"m 569 -232 q 313 -165 429 -232 q 129 18 196 -99 q 63 275 63 135 q 129 532 63 415 q 313 715 196 649 q 569 782 429 782 q 826 715 710 782 q 1010 532 943 649 q 1076 275 1076 415 q 999 0 1076 124 l 736 0 l 736 128 q 638 26 706 64 q 486 -12 569 -12 q 349 28 397 -12 q 301 139 301 69 q 381 276 301 235 q 590 326 461 318 q 695 342 660 331 q 731 381 731 353 q 690 462 731 428 q 583 496 649 496 q 481 467 531 496 q 432 401 432 438 l 432 363 l 358 364 l 358 589 l 432 589 l 432 517 q 501 560 457 543 q 593 576 544 576 q 758 515 694 576 q 821 351 821 454 l 821 83 l 975 83 q 1018 275 1018 174 q 959 503 1018 400 q 797 665 900 606 q 569 724 694 724 q 342 665 444 724 q 181 503 240 606 q 122 275 122 400 q 181 48 122 150 q 342 -113 240 -54 q 569 -172 444 -172 q 879 -56 754 -172 l 919 -99 q 763 -197 851 -162 q 569 -232 674 -232 m 511 74 q 624 101 572 74 q 706 173 676 128 q 736 267 736 218 l 736 286 q 600 256 701 263 q 442 222 490 246 q 393 150 393 197 q 424 93 393 113 q 511 74 456 74 z "},"&":{"ha":1040,"x_min":42,"x_max":1033,"o":"m 399 -21 q 210 17 292 -21 q 85 122 129 54 q 42 281 42 190 q 81 424 42 360 q 188 525 119 489 q 342 561 256 561 l 349 561 l 103 860 l 103 972 l 688 972 l 688 1054 l 799 1054 l 799 714 l 688 714 l 688 864 q 685 867 688 867 l 236 867 l 726 269 q 789 440 774 347 l 667 440 l 667 540 l 1033 540 l 1033 440 l 896 440 q 892 436 892 440 q 856 301 881 367 q 796 189 832 236 l 858 110 l 1033 110 l 1033 0 l 811 0 l 718 110 q 576 13 657 46 q 399 -21 494 -21 m 397 78 q 654 190 554 78 l 418 476 l 388 476 q 219 424 282 476 q 156 286 156 372 q 222 135 156 192 q 397 78 288 78 z "},"¶":{"ha":856,"x_min":83,"x_max":671,"o":"m 403 -168 l 403 417 l 390 417 q 234 453 304 417 q 124 553 164 490 q 83 694 83 617 q 124 835 83 772 q 234 935 164 899 q 390 972 304 972 l 671 972 l 671 861 l 522 861 l 522 -168 l 671 -168 l 671 -278 l 228 -278 l 228 -168 l 403 -168 z "},"§":{"ha":972,"x_min":139,"x_max":850,"o":"m 503 -139 q 268 -72 367 -139 q 154 129 169 -4 l 269 129 q 347 2 282 46 q 503 -42 413 -42 q 634 -12 574 -42 q 694 81 694 17 q 668 149 694 125 q 602 184 642 174 q 476 211 563 194 q 297 251 364 231 q 185 314 229 271 q 139 431 140 357 q 187 544 139 500 q 313 608 235 589 q 213 670 249 632 q 176 774 178 708 q 267 941 176 886 q 479 996 357 996 q 699 931 608 996 q 806 735 790 865 l 692 735 q 618 857 678 817 q 474 897 558 897 q 346 867 401 897 q 290 769 290 838 q 317 706 290 729 q 386 671 344 682 q 501 647 428 660 q 692 606 625 625 q 804 545 758 586 q 850 431 850 504 q 801 316 850 361 q 674 247 751 271 q 776 185 740 224 q 811 81 811 147 q 767 -42 811 7 q 651 -115 722 -92 q 503 -139 581 -139 m 531 294 q 670 329 606 297 q 735 424 735 361 q 708 491 735 467 q 634 528 681 515 q 489 557 588 540 l 449 564 q 313 528 372 560 q 253 436 253 497 q 323 342 253 372 q 531 294 393 311 z "},"©":{"ha":1139,"x_min":63,"x_max":1076,"o":"m 569 -21 q 313 46 429 -21 q 129 229 196 113 q 63 486 63 346 q 129 743 63 626 q 313 926 196 860 q 569 993 429 993 q 826 926 710 993 q 1010 743 943 860 q 1076 486 1076 626 q 1010 229 1076 346 q 826 46 943 113 q 569 -21 710 -21 m 569 36 q 797 96 694 36 q 960 258 900 156 q 1019 486 1019 361 q 960 714 1019 611 q 797 876 900 817 q 569 936 694 936 q 342 876 444 936 q 179 714 239 817 q 119 486 119 611 q 179 258 119 361 q 342 96 239 156 q 569 36 444 36 m 728 272 q 652 220 699 240 q 551 200 606 200 q 413 238 475 200 q 315 342 350 276 q 279 489 279 408 q 315 637 279 571 q 413 740 350 703 q 551 778 475 778 q 652 758 606 778 q 728 707 699 739 l 728 775 l 806 775 l 806 544 l 722 544 l 722 581 q 671 661 719 628 q 558 694 622 694 q 422 636 476 694 q 368 489 368 578 q 422 342 368 400 q 558 283 476 283 q 671 317 622 283 q 722 399 719 351 l 722 435 l 806 435 l 806 204 l 728 204 l 728 272 z "},"®":{"ha":639,"x_min":69,"x_max":569,"o":"m 319 493 q 192 526 250 493 q 102 616 135 558 q 69 743 69 674 q 102 870 69 813 q 192 960 135 928 q 319 993 250 993 q 447 960 389 993 q 537 870 504 928 q 569 743 569 813 q 537 616 569 674 q 447 526 504 558 q 319 493 389 493 m 319 521 q 433 550 382 521 q 513 630 483 579 q 542 743 542 681 q 513 856 542 806 q 433 936 483 907 q 319 965 382 965 q 206 936 257 965 q 126 856 156 907 q 97 743 97 806 q 126 630 97 681 q 206 550 156 579 q 319 521 257 521 m 231 654 l 231 846 l 190 846 l 190 892 l 328 892 q 401 869 374 892 q 429 808 429 847 q 413 760 429 781 q 369 731 397 739 l 432 654 l 465 654 l 465 608 l 342 608 l 342 654 l 372 654 l 317 722 l 276 722 l 276 654 l 318 654 l 318 608 l 190 608 l 190 654 l 231 654 m 322 761 q 363 772 349 761 q 378 803 378 783 q 363 837 378 825 q 322 849 349 849 l 276 849 l 276 761 l 322 761 z "},"™":{"ha":1193,"x_min":42,"x_max":1144,"o":"m 221 621 l 221 910 l 107 910 l 107 908 l 107 810 l 42 810 l 42 1008 l 104 1008 l 104 972 l 403 972 l 403 1008 l 465 1008 l 465 810 l 400 810 l 400 908 q 399 909 400 908 q 399 910 399 910 l 286 910 l 286 621 l 376 621 l 378 556 l 129 556 l 129 621 l 221 621 m 521 621 l 592 621 l 592 907 l 521 907 l 521 972 l 675 972 l 833 644 l 982 972 l 1144 972 l 1144 907 l 1078 907 l 1078 621 l 1144 621 l 1144 556 l 943 556 l 943 611 l 1014 611 l 1014 894 l 1013 894 l 857 556 l 810 556 l 657 872 l 656 872 l 656 611 l 724 611 l 724 556 l 521 556 l 521 621 z "},"°":{"ha":464,"x_min":47,"x_max":419,"o":"m 233 621 q 140 646 182 621 q 72 714 97 671 q 47 807 47 757 q 72 900 47 857 q 140 968 97 943 q 233 993 182 993 q 326 968 283 993 q 394 900 369 943 q 419 807 419 857 q 394 714 419 757 q 326 646 369 671 q 233 621 283 621 m 233 693 q 314 726 281 693 q 347 807 347 760 q 314 888 347 854 q 233 921 281 921 q 151 888 185 921 q 118 807 118 854 q 152 726 118 760 q 233 693 186 693 z "},"|":{"ha":506,"x_min":203,"x_max":303,"o":"m 203 1111 l 303 1111 l 303 -139 l 203 -139 l 203 1111 z "},"¦":{"ha":506,"x_min":203,"x_max":303,"o":"m 203 1111 l 303 1111 l 303 583 l 203 583 l 203 1111 m 203 389 l 303 389 l 303 -139 l 203 -139 l 203 389 z "},"†":{"ha":476,"x_min":15,"x_max":461,"o":"m 197 771 l 15 771 l 15 847 l 197 847 l 197 986 l 279 986 l 279 847 l 461 847 l 461 771 l 279 771 l 279 539 l 197 539 l 197 771 z "},"‡":{"ha":476,"x_min":15,"x_max":461,"o":"m 197 650 l 15 650 l 15 722 l 197 722 l 197 804 l 15 804 l 15 875 l 197 875 l 197 986 l 279 986 l 279 875 l 461 875 l 461 804 l 279 804 l 279 722 l 461 722 l 461 650 l 279 650 l 279 539 l 197 539 l 197 650 z "},"№":{"ha":1675,"x_min":35,"x_max":1625,"o":"m 299 110 l 474 110 l 474 0 l 40 0 l 40 110 l 188 110 l 188 858 l 183 861 l 35 861 l 35 972 l 314 972 l 869 172 l 869 861 l 701 861 l 701 972 l 1122 972 l 1122 861 l 982 861 l 982 -25 l 867 -25 l 299 792 l 299 110 m 1390 503 q 1272 534 1325 503 q 1188 619 1218 565 q 1157 739 1157 674 q 1188 856 1157 803 q 1272 941 1218 910 q 1390 972 1325 972 q 1509 941 1456 972 q 1594 856 1563 910 q 1625 739 1625 803 q 1594 619 1625 674 q 1509 534 1563 565 q 1390 503 1456 503 m 1390 589 q 1496 632 1453 589 q 1539 739 1539 675 q 1496 844 1539 801 q 1390 886 1453 886 q 1285 844 1328 886 q 1243 739 1243 801 q 1285 632 1243 675 q 1390 589 1328 589 z "},"ʼ":{"ha":293,"x_min":61,"x_max":229,"o":"m 71 711 q 131 829 114 764 l 126 829 q 78 858 96 836 q 61 908 61 881 q 84 967 61 942 q 143 993 107 993 q 204 970 179 993 q 229 907 229 947 q 201 801 229 861 q 139 711 174 742 l 71 711 z "},"̈":{"ha":0,"x_min":-597,"x_max":-236,"o":"m -597 1035 l -437 1035 l -511 793 l -525 793 l -597 1035 m -396 1035 l -236 1035 l -310 793 l -324 793 l -396 1035 z "},"̇":{"ha":0,"x_min":-506,"x_max":-328,"o":"m -506 1035 l -328 1035 l -410 793 l -425 793 l -506 1035 z "},"̀":{"ha":0,"x_min":-576,"x_max":-379,"o":"m -479 813 l -576 1035 l -471 1035 l -379 813 l -479 813 z "},"́":{"ha":0,"x_min":-454,"x_max":-257,"o":"m -362 1035 l -257 1035 l -354 813 l -454 813 l -362 1035 z "},"̋":{"ha":0,"x_min":-560,"x_max":-176,"o":"m -382 1035 l -469 813 l -560 813 l -478 1035 l -382 1035 m -176 1035 l -264 813 l -356 813 l -272 1035 l -176 1035 z "},"̂":{"ha":0,"x_min":-685,"x_max":-149,"o":"m -274 813 l -417 967 l -561 813 l -685 813 l -481 1035 l -353 1035 l -149 813 l -274 813 z "},"̌":{"ha":0,"x_min":-685,"x_max":-149,"o":"m -560 1035 l -417 881 l -272 1035 l -149 1035 l -353 813 l -481 813 l -685 1035 l -560 1035 z "},"̆":{"ha":0,"x_min":-671,"x_max":-162,"o":"m -417 792 q -601 856 -531 792 q -671 1024 -671 919 l -671 1035 l -575 1035 l -575 1025 q -532 920 -575 960 q -417 881 -489 881 q -301 920 -344 881 q -257 1025 -257 960 l -257 1035 l -162 1035 l -162 1024 q -233 856 -162 919 q -417 792 -303 792 z "},"̊":{"ha":0,"x_min":-596,"x_max":-237,"o":"m -418 792 q -544 844 -493 792 q -596 969 -596 896 q -544 1097 -596 1044 q -418 1150 -493 1150 q -328 1126 -369 1150 q -262 1060 -286 1101 q -237 969 -237 1018 q -262 880 -237 921 q -328 815 -286 839 q -418 792 -369 792 m -417 874 q -348 902 -376 874 q -319 971 -319 931 q -348 1040 -319 1011 q -417 1068 -376 1068 q -486 1040 -458 1068 q -514 971 -514 1011 q -486 901 -514 929 q -417 874 -458 874 z "},"̃":{"ha":0,"x_min":-683,"x_max":-150,"o":"m -683 851 q -645 965 -683 924 q -547 1007 -607 1007 q -485 998 -514 1007 q -414 969 -456 989 q -356 946 -376 953 q -312 939 -336 939 q -263 958 -283 939 q -243 1003 -243 976 l -150 1003 q -188 889 -150 931 q -286 847 -226 847 q -349 856 -319 847 q -419 885 -378 865 q -478 908 -457 901 q -521 915 -499 915 q -569 897 -550 915 q -589 851 -589 879 l -683 851 z "},"̄":{"ha":0,"x_min":-622,"x_max":-211,"o":"m -211 968 l -211 872 l -622 872 l -622 968 l -211 968 z "},"̒":{"ha":0,"x_min":-499,"x_max":-339,"o":"m -357 1035 q -390 976 -375 1008 q -407 924 -406 943 l -404 924 q -357 904 -375 924 q -339 863 -339 885 q -361 810 -339 832 q -417 789 -383 789 q -475 810 -451 789 q -499 869 -499 832 q -474 959 -499 914 q -417 1035 -450 1004 l -357 1035 z "},"̦":{"ha":0,"x_min":-494,"x_max":-335,"o":"m -476 -340 q -443 -281 -458 -314 q -426 -229 -428 -249 l -429 -229 q -476 -210 -458 -229 q -494 -168 -494 -190 q -473 -115 -494 -136 q -417 -94 -451 -94 q -358 -116 -382 -94 q -335 -175 -335 -137 q -359 -265 -335 -219 q -417 -340 -383 -310 l -476 -340 z "},"̧":{"ha":0,"x_min":-562,"x_max":-365,"o":"m -562 -340 l -465 -118 l -365 -118 l -457 -340 l -562 -340 z "},"̨":{"ha":0,"x_min":-628,"x_max":-431,"o":"m -628 -340 l -531 -118 l -431 -118 l -522 -340 l -628 -340 z "},"̵":{"ha":0,"x_min":-653,"x_max":-179,"o":"m -179 876 l -179 790 l -653 790 l -653 876 l -179 876 z "}}}
